<svg width="24" height="24" viewBox="0 0 36 37" fill="none" xmlns="http://www.w3.org/2000/svg">
<path fill-rule="evenodd" clip-rule="evenodd" d="M10.5 5.33499C7.18628 5.33499 4.49999 8.02128 4.49999 11.335V26.335C4.49999 29.6487 7.18628 32.335 10.5 32.335H25.5C28.8137 32.335 31.5 29.6487 31.5 26.335V11.335C31.5 8.02128 28.8137 5.33499 25.5 5.33499H10.5ZM1.49999 11.335C1.49999 6.36443 5.52943 2.33499 10.5 2.33499H25.5C30.4706 2.33499 34.5 6.36443 34.5 11.335V26.335C34.5 31.3056 30.4706 35.335 25.5 35.335H10.5C5.52943 35.335 1.49999 31.3056 1.49999 26.335V11.335Z" fill="var(--primary-01)"/>
<path fill-rule="evenodd" clip-rule="evenodd" d="M18.725 14.3189C17.7887 14.18 16.8325 14.3399 15.9923 14.7759C15.1522 15.2118 14.4709 15.9016 14.0453 16.747C13.6198 17.5925 13.4717 18.5506 13.6221 19.4851C13.7724 20.4196 14.2136 21.2829 14.8829 21.9522C15.5522 22.6214 16.4155 23.0627 17.35 23.213C18.2845 23.3634 19.2426 23.2153 20.0881 22.7897C20.9335 22.3642 21.6233 21.6829 22.0592 20.8427C22.4951 20.0026 22.6551 19.0464 22.5162 18.1101C22.3746 17.1551 21.9296 16.2709 21.2469 15.5882C20.5642 14.9055 19.68 14.4605 18.725 14.3189ZM14.6106 12.113C16.0109 11.3864 17.6046 11.1199 19.165 11.3513C20.7568 11.5873 22.2304 12.329 23.3682 13.4669C24.506 14.6047 25.2477 16.0783 25.4838 17.6701C25.7152 19.2305 25.4486 20.8242 24.7221 22.2245C23.9955 23.6247 22.8459 24.7602 21.4368 25.4694C20.0277 26.1787 18.4309 26.4255 16.8734 26.1749C15.3159 25.9243 13.8771 25.189 12.7616 24.0735C11.6461 22.958 10.9108 21.5192 10.6602 19.9617C10.4095 18.4042 10.6564 16.8074 11.3656 15.3983C12.0749 13.9892 13.2104 12.8396 14.6106 12.113Z" fill="var(--primary-01)"/>
<path fill-rule="evenodd" clip-rule="evenodd" d="M24.75 10.585C24.75 9.75656 25.4216 9.08499 26.25 9.08499H26.265C27.0934 9.08499 27.765 9.75656 27.765 10.585C27.765 11.4134 27.0934 12.085 26.265 12.085H26.25C25.4216 12.085 24.75 11.4134 24.75 10.585Z" fill="var(--primary-01)"/>
</svg>