<svg width="24" height="24" viewBox="0 0 32 33" fill="none" xmlns="http://www.w3.org/2000/svg">
<g clip-path="url(#clip0_1370_1041)">
<path d="M30.8024 0.834961H1.19723C0.53595 0.834961 0 1.37091 0 2.03219V31.6373C0 32.2987 0.53595 32.8346 1.19723 32.8346H30.8028C31.4641 32.8346 32 32.2986 32 31.6373V2.03219C31.9997 1.37091 31.4637 0.834961 30.8024 0.834961ZM8.50159 27.1666C8.50159 27.6075 8.14437 27.9646 7.70343 27.9646H4.50801C4.06746 27.9646 3.70985 27.6074 3.70985 27.1666V13.2C3.70985 12.759 4.06746 12.4018 4.50801 12.4018H7.70343C8.14437 12.4018 8.50159 12.759 8.50159 13.2V27.1666ZM8.50159 9.1477C8.50159 9.58871 8.14437 9.94586 7.70343 9.94586H4.50801C4.06746 9.94586 3.70985 9.58864 3.70985 9.1477V6.31028C3.70985 5.86927 4.06746 5.51212 4.50801 5.51212H7.70343C8.14437 5.51212 8.50159 5.86927 8.50159 6.31028V9.1477ZM28.2898 27.1666C28.2898 27.6075 27.9323 27.9646 27.4917 27.9646H24.2962C23.8552 27.9646 23.4981 27.6074 23.4981 27.1666V21.2694C23.4981 19.3139 23.396 18.0491 23.1908 17.4749C22.9861 16.9006 22.6537 16.4545 22.1931 16.1364C21.7326 15.818 21.1786 15.6591 20.5306 15.6591C19.7005 15.6591 18.9558 15.8866 18.2965 16.3411C17.6373 16.7961 17.1855 17.3982 16.9408 18.1485C16.6966 18.8988 16.5745 20.286 16.5745 22.3093V27.1666C16.5745 27.6075 16.2169 27.9646 15.7763 27.9646H12.5809C12.1404 27.9646 11.7828 27.6074 11.7828 27.1666V13.2C11.7828 12.759 12.1403 12.4018 12.5809 12.4018H15.4352C15.8762 12.4018 16.2333 12.759 16.2333 13.2V14.2639C16.2333 14.7049 16.4493 14.7759 16.7457 14.4499C18.2367 12.8116 20.0553 11.9924 22.2019 11.9924C23.2591 11.9924 24.2252 12.1827 25.1008 12.5635C25.976 12.9442 26.6384 13.4302 27.0874 14.0213C27.5364 14.6123 27.8493 15.2831 28.0253 16.0334C28.2013 16.7836 28.2899 17.858 28.2899 19.2564V27.1666H28.2898Z" fill="var(--primary-01)"/>
</g>
<defs>
<clipPath id="clip0_1370_1041">
<rect width="32" height="32" fill="var(--primary-01)" transform="translate(0 0.834961)"/>
</clipPath>
</defs>
</svg>