<svg width="24" height="24" viewBox="0 0 24 24" fill="none" xmlns="http://www.w3.org/2000/svg">
<path d="M12 0C5.37272 0 0 5.37255 0 11.9998C0 18.6277 5.37272 24 12 24C18.6276 24 24 18.6277 24 11.9998C24 5.37297 18.6278 0.00057274 11.9999 0.00057274L12 0ZM17.5031 17.3071C17.2876 17.6606 16.8271 17.7714 16.4747 17.556C13.6568 15.8338 10.1099 15.4447 5.93286 16.3989C5.53034 16.4912 5.12911 16.2389 5.03741 15.8365C4.94527 15.434 5.19646 15.0328 5.59998 14.9411C10.1711 13.896 14.0921 14.3458 17.2551 16.2786C17.6076 16.4949 17.7193 16.9549 17.503 17.3074L17.5031 17.3071ZM18.9719 14.0402C18.7005 14.4805 18.1247 14.6186 17.685 14.3482C14.4601 12.3659 9.54262 11.7917 5.72738 12.9498C5.23257 13.0993 4.70998 12.8204 4.5598 12.3265C4.41078 11.8317 4.68978 11.3101 5.18371 11.1596C9.54176 9.83733 14.9595 10.4779 18.6637 12.7541C19.1036 13.0249 19.2426 13.601 18.9718 14.0403L18.9719 14.0402ZM19.098 10.6378C15.2299 8.34061 8.84949 8.12939 5.15691 9.2501C4.56396 9.42993 3.93689 9.09519 3.7572 8.50224C3.57751 7.90901 3.91196 7.28237 4.50534 7.10211C8.74417 5.81533 15.7907 6.06394 20.2435 8.7073C20.7768 9.02383 20.9518 9.71265 20.6357 10.2453C20.3204 10.7786 19.6298 10.9544 19.0981 10.6378H19.098Z" fill="var(--primary-01)"/>
</svg>