<svg width="24" height="24" viewBox="0 0 36 36" fill="none" xmlns="http://www.w3.org/2000/svg">
<path d="M24.9 20.9999C24.6 20.8499 22.65 19.9499 22.35 19.7999C22.05 19.6499 21.75 19.6499 21.45 19.9499C21.15 20.2499 20.55 21.1499 20.25 21.4499C20.1 21.7499 19.8 21.7499 19.5 21.5999C18.45 21.1499 17.4 20.5499 16.5 19.7999C15.75 19.0499 15 18.1499 14.4 17.2499C14.25 16.9499 14.4 16.6499 14.55 16.4999C14.7 16.3499 14.85 16.0499 15.15 15.8999C15.3 15.7499 15.45 15.4499 15.45 15.2999C15.6 15.1499 15.6 14.8499 15.45 14.6999C15.3 14.5499 14.55 12.7499 14.25 11.9999C14.1 10.9499 13.8 10.9499 13.5 10.9499C13.35 10.9499 13.05 10.9499 12.75 10.9499C12.45 10.9499 12 11.2499 11.85 11.3999C10.95 12.2999 10.5 13.3499 10.5 14.5499C10.65 15.8999 11.1 17.2499 12 18.4499C13.65 20.8499 15.75 22.7999 18.3 23.9999C19.05 24.2999 19.65 24.5999 20.4 24.7499C21.15 25.0499 21.9 25.0499 22.8 24.8999C23.85 24.7499 24.75 23.9999 25.35 23.0999C25.65 22.4999 25.65 21.8999 25.5 21.2999C25.5 21.2999 25.2 21.1499 24.9 20.9999ZM28.65 7.3499C22.8 1.4999 13.35 1.4999 7.5 7.3499C2.7 12.1499 1.8 19.4999 5.1 25.3499L3 32.9999L10.95 30.8999C13.2 32.0999 15.6 32.6999 18 32.6999C26.25 32.6999 32.85 26.0999 32.85 17.8499C33 13.9499 31.35 10.1999 28.65 7.3499ZM24.6 28.3499C22.65 29.5499 20.4 30.2999 18 30.2999C15.75 30.2999 13.65 29.6999 11.7 28.6499L11.25 28.3499L6.6 29.5499L7.8 25.0499L7.5 24.5999C3.9 18.5999 5.7 11.0999 11.55 7.3499C17.4 3.5999 24.9 5.5499 28.5 11.2499C32.1 17.0999 30.45 24.7499 24.6 28.3499Z" fill="white"/>
</svg>
