<svg width="24" height="24" viewBox="0 0 36 37" fill="none" xmlns="http://www.w3.org/2000/svg">
<path d="M25.9368 22.417C25.5952 22.2472 23.3748 21.2285 23.0332 21.0587C22.6916 20.8889 22.35 20.8889 22.0084 21.2285C21.6668 21.568 20.9836 22.5868 20.642 22.9263C20.4712 23.2659 20.1296 23.2659 19.788 23.0961C18.5924 22.5868 17.3968 21.9076 16.372 21.0587C15.518 20.2097 14.664 19.191 13.9808 18.1723C13.81 17.8327 13.9808 17.4931 14.1516 17.3233C14.3224 17.1536 14.4932 16.814 14.8348 16.6442C15.0056 16.4744 15.1764 16.1348 15.1764 15.965C15.3472 15.7953 15.3472 15.4557 15.1764 15.2859C15.0056 15.1161 14.1516 13.0787 13.81 12.2297C13.6392 11.0412 13.2976 11.0412 12.956 11.0412C12.7852 11.0412 12.4436 11.0412 12.102 11.0412C11.7604 11.0412 11.248 11.3808 11.0772 11.5506C10.0524 12.5693 9.54002 13.7578 9.54002 15.1161C9.71082 16.6442 10.2232 18.1723 11.248 19.5306C13.1268 22.2472 15.518 24.4544 18.4216 25.8127C19.2756 26.1523 19.9588 26.4919 20.8128 26.6617C21.6668 27.0012 22.5208 27.0012 23.5456 26.8315C24.7412 26.6617 25.766 25.8127 26.4492 24.794C26.7908 24.1149 26.7908 23.4357 26.62 22.7566C26.62 22.7566 26.2784 22.5868 25.9368 22.417ZM30.2069 6.96629C23.5456 0.344569 12.7852 0.344569 6.12401 6.96629C0.658399 12.3995 -0.366402 20.7191 3.3912 27.3408L1 36L10.0524 33.623C12.6144 34.9813 15.3472 35.6604 18.08 35.6604C27.474 35.6604 34.9893 28.1898 34.9893 18.8514C35.1601 14.437 33.2813 10.1923 30.2069 6.96629ZM25.5952 30.7366C23.3748 32.0949 20.8128 32.9438 18.08 32.9438C15.518 32.9438 13.1268 32.2647 10.9064 31.0762L10.394 30.7366L5.09921 32.0949L6.46561 27.0012L6.12401 26.4919C2.0248 19.7004 4.07441 11.211 10.7356 6.96629C17.3968 2.7216 25.9368 4.92884 30.0361 11.3808C34.1353 18.0025 32.2565 26.6617 25.5952 30.7366Z" fill="var(--primary-01)"/>
</svg>