<svg width="70" height="36" viewBox="0 0 140 72" fill="none" xmlns="http://www.w3.org/2000/svg">
<path d="M139.827 5.01446C139.827 5.01446 135.445 1.75973 124.505 0.692321L129.535 17.1606C138.012 10.1627 139.827 5.01446 139.827 5.01446ZM123.124 0.443262C110.617 -0.777424 90.1313 0.664015 58.8476 11.807C57.8437 12.1406 56.9146 12.4644 56.0569 12.7772C55.199 13.0893 54.413 13.3895 53.6957 13.6748C52.9784 13.9602 52.3295 14.23 51.7468 14.4819C51.1634 14.7341 50.6463 14.9683 50.1921 15.1818C49.7372 15.3954 49.3451 15.5876 49.0137 15.7566C48.6815 15.9251 48.4092 16.0707 48.1941 16.1888C47.7624 16.4254 47.5595 16.5559 47.5595 16.5559C47.5595 16.5559 47.5874 16.5135 47.6878 16.4158C47.7884 16.3188 47.9613 16.1659 48.2508 15.9457C48.3958 15.8352 48.5697 15.7081 48.7786 15.5619C48.9874 15.4157 49.2308 15.2512 49.515 15.0666C49.799 14.8812 50.1233 14.6766 50.4932 14.4496C50.8631 14.2226 51.2795 13.9737 51.7466 13.7016C52.2144 13.4293 52.6972 13.1632 53.1847 12.9049C53.6717 12.6475 54.1636 12.3987 54.6482 12.1613C55.1338 11.9244 55.6111 11.6985 56.0713 11.487C56.2517 11.4042 56.413 11.3341 56.5872 11.2563L26.1442 3.83578L18.2972 6.12237L39.3202 22.3682L46.7528 46.7025L38.3949 71.9224L46.2385 69.6245L67.2502 46.3638C67.0578 46.3972 66.8805 46.4298 66.6794 46.4627C66.1796 46.5445 65.6568 46.624 65.1222 46.6979C64.5886 46.7723 64.0416 46.8408 63.4939 46.8994C62.9455 46.9583 62.3969 47.0065 61.8568 47.042C61.3174 47.0774 60.8344 47.1031 60.4008 47.1216C59.9667 47.1409 59.5831 47.1518 59.2448 47.1565C58.9066 47.162 58.6122 47.1617 58.358 47.157C58.103 47.1524 57.8878 47.1442 57.7058 47.1335C57.3427 47.1127 57.114 47.0831 56.9762 47.0582C56.8383 47.0333 56.7917 47.0144 56.7917 47.0144C56.7917 47.0144 57.0334 47.0084 57.5222 46.9639C57.7673 46.9414 58.0738 46.9102 58.4435 46.8643C58.8127 46.8193 59.2453 46.7596 59.7412 46.6828C60.2371 46.6061 60.7969 46.5114 61.4209 46.3947C62.0452 46.2788 62.7341 46.14 63.4884 45.9759C64.2419 45.8112 65.0607 45.6212 65.9466 45.4007C66.832 45.1811 67.7834 44.9306 68.8017 44.6465C101.017 36.406 118.832 26.1453 128.529 18.1391L123.124 0.443262ZM104.021 15.8801C104.024 15.8884 104.026 15.8968 104.028 15.9055C104.034 15.9208 104.038 15.9356 104.042 15.9506C104.047 15.9654 104.052 15.98 104.056 15.995C104.06 16.0105 104.064 16.0248 104.068 16.0396C104.073 16.0551 104.077 16.0701 104.081 16.0851C104.085 16.0999 104.09 16.1147 104.094 16.1297C104.098 16.1447 104.102 16.1602 104.106 16.1753C104.11 16.1903 104.114 16.2053 104.117 16.2203C104.122 16.2351 104.126 16.2501 104.13 16.2651C104.134 16.2808 104.137 16.2951 104.141 16.3102C104.145 16.3259 104.149 16.3409 104.152 16.3561C104.156 16.3711 104.16 16.3861 104.163 16.4014C104.167 16.4164 104.17 16.4314 104.174 16.4464C104.177 16.4616 104.181 16.4767 104.184 16.4926C104.188 16.5078 104.191 16.5228 104.194 16.5373C104.198 16.5531 104.201 16.5683 104.205 16.5835C104.208 16.5987 104.211 16.6138 104.215 16.629C104.218 16.6449 104.221 16.6594 104.224 16.6747C104.227 16.6899 104.23 16.7051 104.233 16.7204C104.236 16.7356 104.239 16.751 104.242 16.7663C104.245 16.7815 104.247 16.7969 104.251 16.8122C104.254 16.8274 104.256 16.8428 104.259 16.8581C104.262 16.8733 104.264 16.8889 104.267 16.9042C104.269 16.9196 104.273 16.9348 104.275 16.9503C104.277 16.9657 104.28 16.9812 104.283 16.9964C104.285 17.0118 104.288 17.0273 104.29 17.0427C104.293 17.0582 104.295 17.0736 104.297 17.0884C104.3 17.1038 104.302 17.1192 104.304 17.1347C104.307 17.1501 104.309 17.1656 104.311 17.1812C104.313 17.196 104.315 17.2123 104.317 17.2271C104.32 17.2425 104.321 17.2582 104.324 17.2736C104.325 17.2893 104.328 17.3047 104.329 17.3197C104.331 17.3353 104.333 17.351 104.335 17.3664C104.337 17.3821 104.338 17.397 104.34 17.4127C104.342 17.4284 104.343 17.444 104.345 17.459C104.347 17.4746 104.349 17.4901 104.35 17.5053C104.351 17.5209 104.353 17.5366 104.355 17.5522C104.356 17.5674 104.357 17.5831 104.359 17.5987C104.36 17.6139 104.361 17.6295 104.363 17.6452C104.364 17.6604 104.366 17.676 104.366 17.6912C104.368 17.7069 104.369 17.7227 104.37 17.7379C104.372 17.7536 104.372 17.7696 104.373 17.7846C104.374 17.8005 104.375 17.8156 104.376 17.8315C104.377 17.8474 104.378 17.8626 104.379 17.8777C104.38 17.8936 104.38 17.9088 104.381 17.9246C104.382 17.9398 104.383 17.9557 104.384 17.9709C104.384 17.987 104.385 18.0021 104.386 18.018C104.386 18.0334 104.387 18.0486 104.387 18.0646C104.388 18.0798 104.388 18.0959 104.388 18.1113C104.389 18.1264 104.389 18.1425 104.39 18.1577C104.391 18.1738 104.391 18.1892 104.391 18.2046C104.391 18.2207 104.391 18.2353 104.391 18.2514C104.392 18.2673 104.392 18.282 104.392 18.2983C104.392 18.3135 104.392 18.3291 104.392 18.3444C104.392 18.3605 104.392 18.3759 104.392 18.3915C104.392 18.4069 104.392 18.4223 104.392 18.4377C104.391 18.454 104.391 18.4694 104.391 18.485C104.39 18.5006 104.39 18.516 104.39 18.5316C104.39 18.5469 104.389 18.5625 104.388 18.5781C104.388 18.5935 104.388 18.6091 104.387 18.6247C104.387 18.6403 104.386 18.6559 104.385 18.6715C104.385 18.6871 104.384 18.7027 104.383 18.7183C104.383 18.7339 104.382 18.7488 104.381 18.7644C104.381 18.78 104.379 18.7958 104.379 18.8114C104.378 18.827 104.377 18.8428 104.376 18.8577C104.375 18.8736 104.374 18.8891 104.373 18.904C104.372 18.9199 104.37 18.9357 104.37 18.9513C104.368 18.9664 104.367 18.9822 104.366 18.9978C104.365 19.0129 104.363 19.0287 104.363 19.0443C104.361 19.0594 104.36 19.0752 104.359 19.0911C104.357 19.1062 104.356 19.122 104.354 19.1371C104.353 19.1529 104.351 19.1682 104.35 19.1831C104.348 19.1992 104.346 19.215 104.345 19.2301C104.343 19.2461 104.341 19.2612 104.34 19.2763C104.337 19.2917 104.336 19.3075 104.334 19.3228C104.333 19.3386 104.33 19.354 104.329 19.3691C104.327 19.3851 104.324 19.4004 104.323 19.4155C104.321 19.4308 104.318 19.4462 104.316 19.4622C104.314 19.4775 104.313 19.4926 104.31 19.508C104.307 19.5235 104.306 19.5393 104.304 19.5547C104.301 19.57 104.298 19.5855 104.296 19.6008C104.294 19.6162 104.292 19.6315 104.289 19.6471C104.287 19.6622 104.284 19.6777 104.282 19.693C104.279 19.7086 104.277 19.7232 104.274 19.7385C104.271 19.754 104.268 19.7696 104.266 19.7849C104.263 19.7998 104.261 19.8158 104.258 19.8313C104.255 19.8469 104.253 19.8615 104.25 19.877C104.246 19.8919 104.243 19.9074 104.241 19.9229C104.238 19.9385 104.235 19.9531 104.231 19.9689C104.228 19.9837 104.226 19.999 104.222 20.0148C104.219 20.0296 104.216 20.0452 104.213 20.06C104.21 20.0755 104.207 20.0904 104.203 20.1061C104.2 20.121 104.196 20.136 104.193 20.1516C104.19 20.1664 104.187 20.1812 104.183 20.197C104.18 20.2118 104.175 20.2271 104.172 20.2426C104.169 20.2577 104.165 20.2725 104.162 20.2883C104.158 20.3033 104.155 20.3182 104.151 20.3332C104.147 20.3483 104.143 20.3633 104.139 20.3791C104.135 20.3934 104.131 20.4085 104.128 20.4235C104.124 20.4386 104.12 20.4543 104.116 20.4694C104.112 20.4844 104.108 20.4988 104.104 20.5138C104.1 20.5291 104.096 20.5442 104.092 20.5592C104.088 20.5743 104.083 20.5895 104.079 20.6041C104.075 20.6191 104.071 20.6342 104.066 20.6495C104.062 20.6638 104.058 20.6791 104.053 20.6943C104.049 20.7087 104.044 20.724 104.04 20.7383C104.036 20.7536 104.031 20.7688 104.026 20.7834C104.022 20.798 104.018 20.813 104.013 20.8276C104.008 20.8428 104.003 20.8574 103.999 20.8727C103.994 20.8872 103.989 20.9018 103.985 20.9171C103.98 20.9316 103.974 20.9464 103.97 20.9617C103.965 20.9762 103.96 20.9908 103.955 21.0054C103.95 21.0201 103.945 21.0354 103.94 21.0502C103.935 21.0647 103.93 21.0793 103.925 21.0941C103.92 21.1086 103.914 21.1234 103.91 21.138C103.904 21.1528 103.899 21.1675 103.894 21.1821C103.888 21.1969 103.883 21.211 103.877 21.2257C103.872 21.2405 103.867 21.2551 103.861 21.2699C103.856 21.2839 103.85 21.2987 103.845 21.3135C103.839 21.3276 103.833 21.3423 103.828 21.3571C103.822 21.3712 103.817 21.386 103.811 21.4007C103.805 21.4148 103.8 21.4289 103.793 21.4439C103.788 21.4579 103.782 21.473 103.776 21.487C103.77 21.5011 103.765 21.5159 103.758 21.5302C103.753 21.5449 103.746 21.5592 103.74 21.5733C103.734 21.5883 103.729 21.6024 103.722 21.6167C103.716 21.6309 103.71 21.645 103.704 21.6593C103.697 21.6736 103.691 21.6876 103.685 21.7019C103.679 21.7162 103.672 21.7305 103.666 21.7448C103.66 21.7589 103.654 21.7732 103.647 21.7875C103.641 21.8017 103.634 21.8153 103.628 21.8296C103.621 21.8439 103.614 21.8584 103.607 21.872C103.601 21.8863 103.595 21.9006 103.588 21.9149C103.581 21.9287 103.574 21.943 103.568 21.9565C103.561 21.9708 103.554 21.9846 103.547 21.9982C103.541 22.0125 103.534 22.0263 103.527 22.0408C103.52 22.0544 103.513 22.0689 103.506 22.0825C103.499 22.0963 103.492 22.1106 103.485 22.1244C103.478 22.1382 103.471 22.1517 103.464 22.1655C103.456 22.1793 103.449 22.1931 103.442 22.2069C103.435 22.2205 103.428 22.2343 103.42 22.2481C103.413 22.2619 103.406 22.2757 103.398 22.2895C103.391 22.3033 103.384 22.3171 103.376 22.3309C103.369 22.344 103.361 22.3578 103.354 22.3716C103.347 22.3854 103.338 22.3987 103.331 22.4125C103.324 22.4263 103.316 22.4394 103.308 22.4534C103.301 22.4665 103.293 22.4803 103.285 22.4936C103.278 22.5074 103.269 22.5207 103.262 22.5345C103.254 22.5478 103.246 22.5609 103.238 22.5742C103.23 22.5873 103.222 22.6013 103.214 22.6146C103.206 22.6277 103.198 22.6418 103.19 22.6551C103.183 22.6682 103.174 22.6817 103.166 22.6948C103.158 22.7081 103.149 22.7207 103.141 22.7347C103.134 22.7478 103.125 22.7604 103.117 22.7737C103.108 22.7872 103.1 22.8003 103.092 22.813C103.083 22.8265 103.075 22.8396 103.066 22.8531C103.058 22.8664 103.05 22.879 103.041 22.8916C103.033 22.9049 103.025 22.9182 103.015 22.931C103.007 22.9443 102.999 22.9569 102.99 22.9698C102.981 22.9831 102.973 22.9957 102.964 23.0085C102.955 23.0218 102.946 23.0346 102.937 23.0475C102.929 23.0608 102.92 23.0734 102.911 23.0855C102.903 23.0988 102.893 23.1116 102.884 23.1245C102.876 23.1371 102.867 23.1499 102.857 23.1627C102.849 23.1753 102.84 23.1881 102.831 23.201C102.821 23.2131 102.813 23.2256 102.803 23.2387C102.794 23.2506 102.785 23.2634 102.776 23.2762C102.767 23.2891 102.757 23.3012 102.748 23.314C102.739 23.3261 102.729 23.3389 102.72 23.351C102.711 23.3639 102.701 23.376 102.692 23.3881C102.682 23.4011 102.673 23.4133 102.663 23.4254C102.654 23.4375 102.645 23.4503 102.635 23.4624C102.625 23.4747 102.616 23.4868 102.606 23.499C102.597 23.512 102.587 23.5234 102.578 23.5355C102.567 23.5479 102.557 23.5602 102.548 23.5723C102.539 23.5844 102.528 23.5968 102.519 23.6089C102.509 23.6205 102.499 23.6328 102.489 23.6449C102.479 23.6566 102.469 23.6687 102.459 23.6803C102.449 23.6927 102.44 23.7048 102.429 23.7164C102.419 23.7287 102.409 23.7403 102.399 23.752C102.388 23.7643 102.379 23.7757 102.369 23.7873C102.358 23.7997 102.348 23.8113 102.338 23.8229C102.327 23.8346 102.317 23.8462 102.308 23.8576C102.297 23.8692 102.286 23.8817 102.276 23.8927C102.266 23.905 102.255 23.9159 102.245 23.9276C102.235 23.9392 102.224 23.9508 102.214 23.9624C102.204 23.9741 102.192 23.9852 102.182 23.9968C102.172 24.0077 102.161 24.0194 102.15 24.0312C102.14 24.0421 102.129 24.054 102.118 24.0656C102.108 24.0765 102.097 24.0877 102.086 24.0993C102.076 24.1102 102.064 24.1213 102.054 24.133C102.043 24.1441 102.032 24.155 102.021 24.1662C102.011 24.1771 102 24.1889 101.989 24.1992C101.978 24.2103 101.966 24.2214 101.956 24.233C101.945 24.2435 101.933 24.2546 101.922 24.2658C101.912 24.2767 101.9 24.2878 101.89 24.2987C101.878 24.3092 101.867 24.3203 101.856 24.3314C101.845 24.3417 101.833 24.353 101.822 24.3632C101.811 24.3744 101.8 24.3848 101.788 24.3952C101.777 24.4064 101.766 24.4175 101.755 24.4277C101.743 24.4384 101.732 24.4486 101.721 24.459C101.709 24.4704 101.698 24.4806 101.686 24.4912C101.674 24.5017 101.663 24.5121 101.651 24.5225C101.64 24.533 101.629 24.5434 101.617 24.5538C101.605 24.5645 101.593 24.5749 101.582 24.5853C101.57 24.5951 101.559 24.6055 101.547 24.6161C101.535 24.6259 101.524 24.6363 101.512 24.646C101.5 24.6567 101.488 24.6671 101.476 24.6771C101.464 24.6868 101.453 24.6972 101.44 24.7072C101.429 24.7169 101.417 24.7273 101.405 24.7373C101.393 24.7472 101.381 24.7576 101.369 24.7674C101.357 24.7773 101.345 24.787 101.333 24.797C101.321 24.8067 101.309 24.8167 101.297 24.8264C101.285 24.8363 101.273 24.8463 101.261 24.8553C101.248 24.8652 101.236 24.8752 101.224 24.8849C101.212 24.8941 101.199 24.9041 101.188 24.9138C101.175 24.923 101.163 24.933 101.15 24.9422C101.138 24.9522 101.126 24.9612 101.113 24.9704C101.101 24.9804 101.088 24.9896 101.076 24.9986C101.064 25.0079 101.051 25.0178 101.039 25.0271C101.026 25.0363 101.014 25.0455 101.001 25.0548C100.988 25.064 100.976 25.0732 100.963 25.0825C100.951 25.0917 100.938 25.1009 100.925 25.1102C100.913 25.1187 100.9 25.128 100.887 25.1372C100.875 25.1457 100.862 25.1557 100.85 25.1642C100.837 25.1734 100.824 25.182 100.811 25.1905C100.799 25.1998 100.786 25.209 100.773 25.2177C100.761 25.2261 100.747 25.2355 100.734 25.244C100.722 25.2526 100.709 25.2611 100.695 25.2699C100.682 25.2784 100.67 25.2876 100.657 25.2955C100.644 25.3049 100.631 25.3128 100.618 25.3213C100.605 25.3298 100.591 25.3386 100.579 25.3471C100.566 25.3556 100.552 25.3637 100.539 25.3722C100.526 25.3808 100.513 25.3895 100.5 25.3973C100.487 25.4059 100.473 25.4139 100.461 25.4224C100.447 25.4312 100.434 25.439 100.42 25.4471C100.408 25.4556 100.394 25.4629 100.381 25.4715C100.367 25.4795 100.354 25.4873 100.341 25.4952C100.328 25.5039 100.315 25.5117 100.301 25.5198C100.287 25.5278 100.274 25.5349 100.26 25.543C100.247 25.5515 100.233 25.5589 100.22 25.5669C100.207 25.5747 100.193 25.5819 100.18 25.5899C100.166 25.5973 100.153 25.6051 100.139 25.6124C100.125 25.6204 100.112 25.6276 100.098 25.6356C100.084 25.643 100.071 25.6508 100.057 25.6581C100.043 25.6655 100.03 25.6726 100.016 25.6806C100.002 25.688 99.9884 25.6953 99.9752 25.7025C99.9612 25.7098 99.9473 25.7171 99.934 25.7243C99.9201 25.7316 99.9062 25.7389 99.8922 25.7463C99.8783 25.7536 99.865 25.7607 99.8509 25.7674C99.8369 25.7747 99.823 25.782 99.8088 25.7887C99.7956 25.7958 99.7815 25.8024 99.7675 25.8098C99.7534 25.8164 99.7392 25.823 99.7253 25.8304C99.7118 25.8368 99.6977 25.8434 99.6837 25.8508C99.6696 25.8574 99.6554 25.864 99.6412 25.8707C99.6271 25.8773 99.6136 25.8838 99.5995 25.8904C99.5846 25.8972 99.5712 25.9036 99.557 25.9103C99.5429 25.9169 99.5287 25.9235 99.5145 25.9302C99.5004 25.9368 99.4862 25.9434 99.4719 25.9494C99.4577 25.956 99.4433 25.962 99.4292 25.9686C99.415 25.9752 99.4007 25.9812 99.3865 25.9878C99.3721 25.9937 99.3578 25.9996 99.3436 26.0063C99.3292 26.0122 99.3149 26.0181 99.3007 26.0248C99.2863 26.0307 99.272 26.0366 99.2576 26.0426C99.2434 26.0492 99.2288 26.0544 99.2145 26.0603C99.2003 26.067 99.1857 26.0722 99.1714 26.0781C99.1572 26.0848 99.1424 26.0893 99.128 26.0952C99.1139 26.1019 99.0993 26.1071 99.0847 26.1123C99.0706 26.119 99.0557 26.1235 99.0407 26.1296C99.0265 26.1363 99.0117 26.1408 98.9971 26.146C98.983 26.1526 98.9682 26.1572 98.9536 26.1624C98.9388 26.1669 98.9246 26.1735 98.91 26.1788C98.8952 26.1833 98.8802 26.1894 98.8656 26.1946C98.8508 26.1992 98.8364 26.2051 98.8216 26.2096C98.8068 26.2141 98.7926 26.2208 98.7778 26.2253C98.763 26.2298 98.7482 26.2367 98.7334 26.2412C98.7186 26.2457 98.7044 26.2524 98.6896 26.2569C98.6748 26.2614 98.6607 26.268 98.6459 26.2725C98.6311 26.2771 98.6156 26.2818 98.6008 26.2863C98.586 26.2908 98.5711 26.2954 98.5563 26.2999C98.5415 26.3044 98.5267 26.3089 98.5119 26.3134C98.5028 26.3162 98.4943 26.3188 98.4859 26.3214C98.4711 26.3259 98.4563 26.3305 98.4415 26.335C98.4267 26.3395 98.4112 26.3442 98.3964 26.3487C98.3816 26.3533 98.3668 26.3578 98.352 26.3623C98.3371 26.3668 98.3223 26.3714 98.3075 26.3759C98.2927 26.3804 98.2766 26.383 98.2618 26.3876C98.247 26.3921 98.2315 26.3945 98.2167 26.399C98.2019 26.4035 98.1865 26.4059 98.1717 26.4104C98.1569 26.415 98.1407 26.4176 98.1259 26.4221C98.1111 26.4266 98.0959 26.4297 98.0811 26.4343C98.0663 26.4388 98.0509 26.4412 98.0358 26.445C98.021 26.4495 98.0049 26.4521 97.9899 26.456C97.9751 26.4605 97.9596 26.4629 97.9446 26.4667C97.9294 26.4698 97.9146 26.4743 97.8993 26.4774C97.8839 26.4799 97.8691 26.4844 97.8539 26.4875C97.8386 26.4906 97.8229 26.4946 97.8077 26.4977C97.7929 26.4999 97.7779 26.5038 97.762 26.5071C97.7465 26.5095 97.7315 26.5133 97.7163 26.5164C97.7008 26.5188 97.6858 26.5227 97.6706 26.5258C97.6551 26.5282 97.6401 26.532 97.6247 26.5344C97.6094 26.5375 97.5942 26.5406 97.579 26.5437C97.5633 26.5454 97.5483 26.5493 97.5331 26.5524C97.5176 26.5548 97.5022 26.5572 97.4869 26.5603C97.4715 26.5627 97.4567 26.5649 97.4408 26.5682C97.4254 26.5706 97.4106 26.5728 97.3952 26.5752C97.3792 26.5785 97.3645 26.5807 97.3488 26.5824C97.3336 26.5855 97.3182 26.588 97.3025 26.5897C97.2871 26.5921 97.2716 26.5944 97.2561 26.5969C97.2407 26.5993 97.226 26.6015 97.2103 26.6032C97.1949 26.6056 97.1794 26.608 97.1637 26.6097C97.1483 26.6121 97.1328 26.6145 97.1179 26.616C97.1024 26.6184 97.0868 26.6201 97.0711 26.6218C97.0555 26.6235 97.04 26.6259 97.0251 26.6274C97.0096 26.6298 96.9939 26.6315 96.979 26.633C96.9626 26.6349 96.9477 26.6364 96.932 26.6381C96.9163 26.6398 96.9014 26.6413 96.8857 26.643C96.87 26.6447 96.8551 26.6462 96.8392 26.6472C96.8238 26.6496 96.8086 26.6504 96.7929 26.6521C96.7771 26.6531 96.7614 26.6548 96.7462 26.6556C96.7306 26.6573 96.7154 26.658 96.6997 26.6597C96.6839 26.6607 96.6687 26.6615 96.653 26.6632C96.6378 26.664 96.622 26.665 96.6063 26.6667C96.5911 26.6675 96.5753 26.6685 96.5601 26.6693C96.5442 26.6703 96.5283 26.6713 96.5131 26.672C96.4973 26.673 96.4821 26.6738 96.4662 26.6748C96.451 26.6756 96.435 26.6759 96.4198 26.6767C96.4046 26.6775 96.3887 26.6785 96.3733 26.6785C96.3575 26.6795 96.3423 26.6803 96.3269 26.6804C96.3108 26.6807 96.2956 26.6815 96.2795 26.6818C96.2644 26.6825 96.249 26.6826 96.2329 26.6829C96.2175 26.683 96.2023 26.6838 96.1862 26.6841C96.1708 26.6842 96.1555 26.6842 96.1394 26.6845C96.124 26.6846 96.1086 26.6847 96.0932 26.6847C96.0771 26.685 96.0617 26.6851 96.0463 26.6852C96.0309 26.6853 96.0149 26.6856 96.0002 26.6854C95.9839 26.685 95.9685 26.6851 95.9529 26.6845C95.9375 26.6846 95.9219 26.6839 95.9065 26.684C95.8911 26.6841 95.8755 26.6834 95.8592 26.683C95.8438 26.6831 95.8289 26.6823 95.8126 26.6819C95.7972 26.6819 95.7816 26.6813 95.766 26.6807C95.7511 26.6798 95.7355 26.6792 95.7192 26.6788C95.7036 26.6782 95.688 26.6776 95.6731 26.6767C95.6575 26.6761 95.6419 26.6755 95.6261 26.6741C95.6105 26.6735 95.5949 26.6729 95.5793 26.6722C95.5634 26.6709 95.5485 26.6701 95.5329 26.6694C95.518 26.6686 95.5022 26.6673 95.4866 26.6667C95.4708 26.6653 95.4552 26.6647 95.4401 26.6631C95.4243 26.6618 95.4087 26.6612 95.3936 26.6596C95.3779 26.659 95.3619 26.657 95.347 26.6561C95.3312 26.6548 95.3154 26.6535 95.3003 26.6519C95.2844 26.6506 95.2693 26.649 95.2535 26.6477C95.2384 26.6462 95.2224 26.6441 95.2073 26.6426C95.1914 26.6413 95.1763 26.6397 95.1603 26.6377C95.1452 26.6361 95.1301 26.6346 95.114 26.6325C95.0989 26.631 95.0829 26.629 95.0678 26.6274C95.0527 26.6259 95.0373 26.6236 95.0215 26.6223C95.0062 26.62 94.9901 26.618 94.9748 26.6157C94.9595 26.6135 94.9444 26.6119 94.929 26.6097C94.9139 26.6081 94.8979 26.6061 94.8826 26.6039C94.8672 26.6016 94.8519 26.5993 94.8366 26.5971C94.8212 26.5948 94.8057 26.5919 94.7904 26.5896C94.775 26.5874 94.7597 26.5851 94.7444 26.5829C94.7284 26.5808 94.7137 26.5784 94.6982 26.5754C94.6829 26.5732 94.6673 26.5702 94.652 26.568C94.6364 26.565 94.6211 26.5628 94.6056 26.5598C94.5902 26.5576 94.5754 26.5544 94.5599 26.5514C94.5445 26.5492 94.529 26.5462 94.5141 26.543C94.4988 26.5408 94.4833 26.5378 94.4677 26.5349C94.4529 26.5317 94.4373 26.5288 94.4225 26.5256C94.407 26.5226 94.3921 26.5195 94.3766 26.5165C94.361 26.5136 94.346 26.5097 94.3304 26.5067C94.3156 26.5035 94.3008 26.5004 94.285 26.4967C94.2702 26.4935 94.2546 26.4906 94.2396 26.4867C94.224 26.4837 94.209 26.4799 94.1941 26.4767C94.1786 26.4737 94.1635 26.4699 94.1487 26.4667C94.1329 26.463 94.1179 26.4592 94.103 26.456C94.0878 26.4514 94.0729 26.4482 94.0579 26.4444C94.0421 26.4407 94.0271 26.4368 94.012 26.4329C93.9972 26.4298 93.9821 26.4259 93.9668 26.4213C93.952 26.4181 93.9369 26.4143 93.9217 26.4097C93.9066 26.4058 93.8916 26.4019 93.8765 26.3981C93.8615 26.3942 93.8462 26.3896 93.8311 26.3857C93.8168 26.3816 93.8015 26.3771 93.7865 26.3732C93.7712 26.3686 93.7568 26.3645 93.7418 26.3606C93.7265 26.356 93.7122 26.352 93.6969 26.3474C93.6816 26.3428 93.6666 26.3389 93.652 26.3341C93.6367 26.3295 93.6222 26.3247 93.6071 26.3209C93.5926 26.3161 93.5773 26.3115 93.5627 26.3067C93.5474 26.3021 93.5329 26.2973 93.5183 26.2925C93.503 26.2879 93.4885 26.2832 93.4732 26.2786C93.4586 26.2738 93.4441 26.269 93.4293 26.2635C93.4147 26.2587 93.3995 26.2541 93.3849 26.2493C93.3701 26.2438 93.3556 26.239 93.341 26.2342C93.3262 26.2287 93.3109 26.2241 93.2969 26.2184C93.2816 26.2138 93.2668 26.2083 93.2523 26.2036C93.2382 26.1978 93.2229 26.1932 93.2088 26.1875C93.1941 26.182 93.1793 26.1765 93.1645 26.171C93.1499 26.1662 93.1352 26.1607 93.1204 26.1552C93.1063 26.1495 93.0915 26.144 93.077 26.1392C93.0627 26.1328 93.0481 26.128 93.0338 26.1216C93.019 26.1161 93.0049 26.1103 92.9902 26.1048C92.9754 26.0993 92.9613 26.0936 92.947 26.0872C92.9322 26.0817 92.9175 26.0762 92.9034 26.0705C92.8891 26.0641 92.8743 26.0586 92.86 26.0522C92.8459 26.0464 92.8312 26.0409 92.8169 26.0345C92.8028 26.0288 92.7878 26.0226 92.7744 26.0167C92.7599 26.0095 92.7452 26.0041 92.7318 25.9981C92.7166 25.9912 92.7025 25.9855 92.6882 25.9791C92.6741 25.9734 92.6598 25.9669 92.6456 25.9605C92.6313 25.9541 92.617 25.9477 92.6027 25.9413C92.5891 25.9346 92.5748 25.9282 92.5605 25.9218C92.5462 25.9154 92.5326 25.9087 92.5183 25.9023C92.5038 25.8952 92.4903 25.8885 92.476 25.8821C92.4617 25.8757 92.4481 25.8691 92.4336 25.8619C92.42 25.8553 92.4055 25.8482 92.3919 25.8415C92.3776 25.8351 92.3638 25.8278 92.3502 25.8211C92.3357 25.814 92.3221 25.8074 92.3076 25.8003C92.2938 25.7929 92.2802 25.7863 92.2664 25.7789C92.2529 25.7723 92.2384 25.7652 92.2248 25.7586C92.211 25.7512 92.1972 25.7439 92.1834 25.7365C92.1696 25.7292 92.1558 25.7218 92.142 25.7145C92.1284 25.7079 92.1144 25.6998 92.1008 25.6932C92.0868 25.6851 92.0737 25.6776 92.0599 25.6703C92.0461 25.6629 92.0323 25.6556 92.0185 25.6482C92.0054 25.6407 91.9913 25.6326 91.9775 25.6253C91.9644 25.6177 91.9506 25.6104 91.9373 25.6021C91.9235 25.5948 91.9104 25.5872 91.8964 25.5792C91.8833 25.5716 91.8695 25.5643 91.8562 25.556C91.8429 25.5478 91.8291 25.5404 91.8158 25.5322C91.8027 25.5246 91.7887 25.5166 91.7754 25.5083C91.7623 25.5007 91.749 25.4925 91.7356 25.4842C91.7225 25.4767 91.7092 25.4684 91.6959 25.4601C91.6826 25.4519 91.6695 25.4443 91.6562 25.4361C91.6429 25.4278 91.6296 25.4195 91.6163 25.4113C91.603 25.403 91.5904 25.3946 91.577 25.3863C91.5637 25.378 91.5504 25.3698 91.5378 25.3613C91.5245 25.353 91.511 25.3441 91.4984 25.3356C91.4851 25.3273 91.4725 25.3189 91.4589 25.3099C91.4463 25.3014 91.433 25.2932 91.4204 25.2847C91.4069 25.2757 91.3943 25.2672 91.3815 25.2581C91.3688 25.2496 91.3553 25.2406 91.3427 25.2322C91.3301 25.2237 91.3173 25.2145 91.3045 25.2053C91.2919 25.1968 91.2783 25.1879 91.2662 25.1785C91.2536 25.17 91.2401 25.161 91.2273 25.1519C91.2154 25.1432 91.2025 25.134 91.1897 25.1248C91.1771 25.1163 91.1643 25.1071 91.1522 25.0978C91.1394 25.0886 91.1265 25.0794 91.1144 25.07C91.1016 25.0608 91.0888 25.0516 91.0769 25.0429C91.0638 25.033 91.0517 25.0237 91.0389 25.0145C91.0268 25.0051 91.0146 24.9957 91.0018 24.9865C90.9897 24.9771 90.9776 24.9677 90.9646 24.9578C90.9524 24.9484 90.9403 24.939 90.9275 24.9299C90.9152 24.9198 90.903 24.9103 90.8909 24.901C90.8786 24.8909 90.8665 24.8815 90.8544 24.8721C90.842 24.862 90.8299 24.8526 90.8183 24.8423C90.8055 24.8331 90.7938 24.8228 90.7817 24.8134C90.7694 24.8033 90.7573 24.7939 90.7457 24.7835C90.7333 24.7734 90.7212 24.7641 90.7096 24.7538C90.6975 24.7444 90.6858 24.734 90.6735 24.7239C90.6621 24.7143 90.6505 24.704 90.6381 24.6939C90.6258 24.6838 90.6142 24.6735 90.6026 24.6632C90.5909 24.6529 90.5795 24.6433 90.5672 24.6332C90.5553 24.6221 90.5439 24.6125 90.5323 24.6022C90.5207 24.5919 90.509 24.5816 90.4974 24.5713C90.4858 24.5609 90.474 24.5499 90.4623 24.5396C90.4507 24.5293 90.4398 24.5188 90.4281 24.5085C90.4165 24.4981 90.4047 24.4871 90.393 24.4768C90.3821 24.4663 90.3705 24.456 90.3594 24.4447C90.3477 24.4344 90.3361 24.4241 90.325 24.4129C90.314 24.4023 90.3024 24.392 90.2913 24.3808C90.2797 24.3705 90.2685 24.3592 90.2576 24.3487C90.2467 24.3382 90.2355 24.3269 90.2239 24.3166C90.2128 24.3054 90.2016 24.2941 90.1907 24.2836C90.1796 24.2724 90.1686 24.2618 90.1575 24.2506C90.1466 24.2401 90.1355 24.2288 90.1243 24.2176C90.1132 24.2064 90.103 24.1956 90.0918 24.1844C90.0807 24.1731 90.0703 24.1617 90.0593 24.1512C90.0482 24.1399 90.037 24.1287 90.0266 24.1172C90.0164 24.1065 90.0051 24.0945 89.9946 24.0831C89.9835 24.0719 89.9733 24.0611 89.9621 24.0499C89.9517 24.0384 89.9412 24.027 89.9308 24.0155C89.9202 24.0034 89.9093 23.9928 89.8988 23.9814C89.8884 23.9699 89.8779 23.9585 89.8673 23.9463C89.8569 23.9349 89.8464 23.9234 89.836 23.912C89.8256 23.9005 89.8156 23.8882 89.8052 23.8767C89.7948 23.8653 89.7843 23.8538 89.7746 23.8421C89.764 23.83 89.7542 23.8183 89.7438 23.8069C89.7331 23.7947 89.7234 23.7831 89.713 23.7716C89.7033 23.7599 89.6926 23.7478 89.6829 23.7361C89.6729 23.7237 89.6625 23.7123 89.6526 23.6999C89.6428 23.6882 89.6329 23.6759 89.6225 23.6644C89.6132 23.6519 89.6035 23.6402 89.5928 23.628C89.5831 23.6164 89.5732 23.604 89.5635 23.5923C89.5542 23.5797 89.5436 23.5676 89.5345 23.5557C89.5246 23.5433 89.5149 23.5317 89.5056 23.5191C89.4957 23.5067 89.486 23.495 89.4767 23.4824C89.4668 23.4701 89.4575 23.4575 89.4478 23.4458C89.4379 23.4335 89.4286 23.4209 89.4194 23.4083C89.4102 23.3957 89.4002 23.3833 89.3912 23.3714C89.3819 23.3589 89.3727 23.3463 89.3628 23.3339C89.3535 23.3213 89.3443 23.3087 89.3351 23.2961C89.3258 23.2836 89.3168 23.2717 89.3076 23.2591C89.2981 23.2458 89.2889 23.2332 89.2803 23.2204C89.2713 23.2085 89.2621 23.1959 89.2526 23.1827C89.2441 23.1699 89.2348 23.1573 89.2265 23.1452C89.2171 23.1319 89.2078 23.1193 89.1993 23.1065C89.1901 23.0939 89.1815 23.0811 89.1723 23.0685C89.1638 23.0557 89.155 23.0422 89.1465 23.0294C89.1372 23.0168 89.1287 23.004 89.1199 22.9905C89.1114 22.9777 89.1029 22.9649 89.0944 22.9521C89.0858 22.9393 89.0773 22.9265 89.0685 22.913C89.06 22.9002 89.0515 22.8874 89.0427 22.8739C89.0349 22.8609 89.0261 22.8474 89.0176 22.8346C89.0098 22.8216 89.001 22.8081 88.9925 22.7953C88.9847 22.7822 88.9766 22.7685 88.9681 22.7557C88.9603 22.7427 88.9515 22.7292 88.9437 22.7162C88.9356 22.7025 88.9278 22.6894 88.9191 22.6759C88.9112 22.6629 88.9025 22.6494 88.8947 22.6364C88.8866 22.6227 88.8795 22.6094 88.871 22.5966C88.8629 22.5829 88.8549 22.5692 88.847 22.5562C88.8397 22.5422 88.8317 22.5285 88.8238 22.5155C88.8158 22.5018 88.8087 22.4886 88.8006 22.4748C88.7928 22.4618 88.7854 22.4479 88.7774 22.4342C88.7696 22.4211 88.7622 22.4072 88.7549 22.3933C88.7469 22.3795 88.7397 22.3663 88.7324 22.3524C88.7253 22.3392 88.7172 22.3254 88.7099 22.3115C88.7028 22.2983 88.6954 22.2843 88.6881 22.2704C88.681 22.2572 88.6734 22.2425 88.6663 22.2293C88.6589 22.2154 88.6516 22.2014 88.6445 22.1882C88.6371 22.1742 88.6298 22.1603 88.6232 22.1462C88.6158 22.1322 88.6087 22.119 88.6021 22.1048C88.5947 22.0909 88.5874 22.077 88.5808 22.0628C88.5734 22.0489 88.567 22.0354 88.5604 22.0213C88.5537 22.0071 88.5464 21.9932 88.5398 21.979C88.5331 21.9649 88.5258 21.9509 88.5194 21.9375C88.5127 21.9233 88.5061 21.9092 88.4995 21.895C88.4928 21.8809 88.4862 21.8667 88.4796 21.8526C88.4736 21.8382 88.4663 21.8243 88.4604 21.8099C88.4537 21.7958 88.4471 21.7816 88.4405 21.7675C88.4345 21.7531 88.4281 21.7397 88.4222 21.7253C88.4153 21.7104 88.4094 21.6961 88.403 21.6826C88.3971 21.6682 88.3902 21.6534 88.3843 21.639C88.3786 21.6254 88.3726 21.611 88.3665 21.5959C88.3608 21.5823 88.3541 21.5681 88.3482 21.5537C88.3421 21.5387 88.3361 21.5243 88.3302 21.5099C88.3243 21.4956 88.3186 21.4819 88.3124 21.4668C88.3065 21.4525 88.3013 21.4379 88.2953 21.4235C88.2894 21.4091 88.2842 21.3946 88.2782 21.3802C88.273 21.3656 88.2671 21.3512 88.2612 21.3369C88.2557 21.3216 88.25 21.3079 88.2448 21.2933C88.2387 21.2783 88.2341 21.2635 88.2282 21.2491C88.223 21.2345 88.2177 21.22 88.2125 21.2054C88.2066 21.191 88.2014 21.1764 88.1959 21.1611C88.1907 21.1465 88.1855 21.132 88.1803 21.1174C88.175 21.1028 88.1705 21.088 88.1653 21.0734C88.1601 21.0588 88.1555 21.044 88.1503 21.0295C88.1451 21.0149 88.1404 20.9994 88.1351 20.9848C88.1299 20.9702 88.1254 20.9554 88.1209 20.9406C88.1156 20.926 88.1111 20.9112 88.1059 20.8966C88.1012 20.8811 88.0966 20.8664 88.0921 20.8516C88.0876 20.8368 88.0824 20.8222 88.0779 20.8074C88.0753 20.7989 88.0727 20.7905 88.0699 20.7813C88.0654 20.7665 88.0609 20.7517 88.0563 20.7369C88.0518 20.7221 88.0473 20.7073 88.0435 20.6923C88.0387 20.6768 88.0342 20.662 88.0304 20.647C88.0259 20.6322 88.0221 20.6172 88.0176 20.6024C88.0137 20.5874 88.0092 20.5726 88.0054 20.5576C88.0007 20.5421 87.9969 20.5271 87.993 20.512C87.9892 20.497 87.9847 20.4822 87.9809 20.4672C87.9771 20.4522 87.9733 20.4372 87.9692 20.4215C87.9654 20.4065 87.9616 20.3914 87.9578 20.3764C87.954 20.3614 87.9502 20.3464 87.9463 20.3314C87.9425 20.3164 87.9387 20.3014 87.9349 20.2863C87.9318 20.2711 87.9278 20.2554 87.9247 20.2402C87.9208 20.2252 87.9177 20.2099 87.9139 20.1949C87.9108 20.1797 87.907 20.1647 87.9039 20.1494C87.9008 20.1342 87.897 20.1192 87.8938 20.104C87.8905 20.0881 87.8876 20.0735 87.8838 20.0585C87.8805 20.0426 87.8774 20.0274 87.8745 20.0128C87.8712 19.9969 87.869 19.9822 87.8656 19.9662C87.8625 19.951 87.8596 19.9365 87.8565 19.9212C87.8532 19.9053 87.8508 19.8899 87.8477 19.8746C87.8446 19.8594 87.8422 19.844 87.839 19.8287C87.8369 19.814 87.8338 19.7988 87.8311 19.7826C87.8289 19.7679 87.8258 19.7527 87.8234 19.7372C87.821 19.7218 87.8179 19.7065 87.8155 19.6911C87.8131 19.6757 87.8107 19.6602 87.8083 19.6448C87.8059 19.6293 87.8035 19.6139 87.8011 19.5984C87.7987 19.583 87.7963 19.5676 87.7941 19.5528C87.7917 19.5374 87.79 19.5217 87.7876 19.5063C87.7852 19.4908 87.7828 19.4754 87.7811 19.4597C87.7794 19.4441 87.7772 19.4293 87.7755 19.4137C87.7731 19.3982 87.7714 19.3826 87.769 19.3671C87.7675 19.3522 87.7658 19.3365 87.7634 19.3211C87.7617 19.3054 87.76 19.2898 87.7585 19.2748C87.7568 19.2591 87.7551 19.2435 87.7536 19.2285C87.7519 19.2129 87.7502 19.1972 87.7485 19.1815C87.7468 19.1659 87.7453 19.1509 87.7436 19.1353C87.7419 19.1196 87.7411 19.1044 87.7394 19.0888C87.7377 19.0731 87.7369 19.058 87.7352 19.0423C87.7345 19.0271 87.7328 19.0115 87.7318 18.9956C87.7301 18.9799 87.7293 18.9648 87.7283 18.9489C87.7268 18.934 87.7258 18.9181 87.725 18.9029C87.724 18.887 87.7233 18.8719 87.7223 18.856C87.7213 18.8401 87.7205 18.8249 87.7188 18.8093C87.7187 18.7939 87.7177 18.778 87.7169 18.7629C87.7159 18.747 87.7151 18.7318 87.7151 18.7164C87.7141 18.7005 87.7133 18.6854 87.7123 18.6695C87.7122 18.6541 87.7112 18.6383 87.7112 18.6229C87.7104 18.6077 87.7101 18.5916 87.71 18.5762C87.709 18.5604 87.7089 18.545 87.7082 18.5298C87.7079 18.5137 87.7078 18.4983 87.7077 18.4829C87.7074 18.4668 87.7074 18.4515 87.7066 18.4363C87.7063 18.4202 87.7062 18.4048 87.7061 18.3894C87.7068 18.3738 87.7067 18.3585 87.7064 18.3424C87.7063 18.327 87.7063 18.3116 87.7069 18.296C87.7066 18.2799 87.7067 18.2652 87.7071 18.2489C87.7071 18.2335 87.707 18.2181 87.7076 18.2025C87.7075 18.1872 87.7082 18.1716 87.7088 18.156C87.7087 18.1406 87.7094 18.125 87.71 18.1094C87.7097 18.0933 87.7105 18.0784 87.7112 18.0628C87.7118 18.0472 87.7124 18.0316 87.7128 18.0153C87.7137 18.0004 87.7143 17.9848 87.7149 17.9692C87.7156 17.9536 87.7162 17.938 87.7168 17.9224C87.7175 17.9068 87.7188 17.891 87.7196 17.8761C87.721 17.8603 87.7216 17.8447 87.7222 17.8291C87.7231 17.8142 87.7244 17.7984 87.725 17.7828C87.7264 17.7669 87.7277 17.7511 87.7286 17.7362C87.7299 17.7204 87.7314 17.7053 87.7321 17.6897C87.7334 17.6739 87.735 17.6588 87.7356 17.6432C87.7376 17.6271 87.7385 17.6123 87.7398 17.5964C87.7414 17.5813 87.7427 17.5655 87.7442 17.5504C87.7456 17.5346 87.7471 17.5195 87.7491 17.5034C87.7507 17.4883 87.752 17.4725 87.7534 17.4567C87.7556 17.4414 87.7572 17.4263 87.7585 17.4105C87.7608 17.3951 87.7623 17.38 87.7643 17.364C87.7659 17.3489 87.7681 17.3336 87.7695 17.3177C87.7717 17.3024 87.774 17.2871 87.776 17.2711C87.7776 17.2559 87.7798 17.2406 87.7821 17.2253C87.7834 17.2095 87.7859 17.1949 87.7881 17.1795C87.7902 17.1635 87.7924 17.1482 87.7947 17.1329C87.797 17.1175 87.7999 17.102 87.8022 17.0867C87.8044 17.0713 87.8067 17.056 87.8089 17.0407C87.8112 17.0254 87.8141 17.0098 87.8164 16.9945C87.8194 16.9789 87.8216 16.9636 87.8246 16.9481C87.8268 16.9327 87.8293 16.9181 87.832 16.9019C87.8352 16.8871 87.8375 16.8717 87.8404 16.8562C87.8427 16.8408 87.8466 16.8258 87.8488 16.8105C87.8518 16.7949 87.8547 16.7794 87.8579 16.7646C87.8602 16.7492 87.864 16.7342 87.8663 16.7189C87.87 16.7031 87.8724 16.6885 87.8754 16.6729C87.8793 16.6579 87.8822 16.6423 87.8852 16.6268C87.8884 16.612 87.8915 16.5971 87.8952 16.5814C87.8984 16.5665 87.9013 16.551 87.9052 16.5359C87.9084 16.5211 87.912 16.5053 87.9152 16.4905C87.9184 16.4757 87.922 16.4599 87.9259 16.4449C87.9291 16.43 87.9328 16.4143 87.9367 16.3992C87.9398 16.3844 87.9437 16.3693 87.9476 16.3543C87.9512 16.3385 87.9551 16.3235 87.959 16.3084C87.9631 16.2941 87.9668 16.2783 87.9706 16.2633C87.9738 16.2484 87.9784 16.2332 87.9823 16.2181C87.9862 16.2031 87.99 16.188 87.9939 16.173C87.9987 16.1584 88.0024 16.1426 88.0065 16.1283C88.0104 16.1132 88.0149 16.098 88.0188 16.0829C88.0236 16.0684 88.0275 16.0533 88.0321 16.038C88.0362 16.0237 88.0408 16.0084 88.0446 15.9934C88.0494 15.9788 88.054 15.9635 88.0579 15.9485C88.0627 15.9339 88.0673 15.9187 88.0721 15.9041C88.076 15.8891 88.0815 15.8743 88.0853 15.8592C88.0901 15.8447 88.0949 15.8301 88.0995 15.8148C88.1041 15.7996 88.1089 15.785 88.1137 15.7704C88.1183 15.7552 88.1231 15.7406 88.1286 15.7258C88.1334 15.7113 88.1382 15.6967 88.1435 15.6812C88.1483 15.6667 88.1531 15.6521 88.1586 15.6373C88.1634 15.6228 88.1689 15.608 88.1737 15.5934C88.1785 15.5789 88.184 15.5641 88.1888 15.5495C88.1943 15.5347 88.1998 15.52 88.2046 15.5054C88.2101 15.4906 88.2156 15.4758 88.2211 15.4611C88.2259 15.4465 88.2316 15.4324 88.2371 15.4176C88.2426 15.4029 88.2481 15.3881 88.2539 15.374C88.2594 15.3592 88.2649 15.3445 88.2706 15.3304C88.2761 15.3156 88.2818 15.3015 88.2873 15.2868C88.293 15.2727 88.2992 15.2577 88.305 15.2436C88.3105 15.2289 88.3162 15.2148 88.3226 15.2005C88.3281 15.1857 88.3338 15.1716 88.34 15.1566C88.3458 15.1426 88.3522 15.1283 88.3579 15.1142C88.3641 15.0992 88.3698 15.0851 88.3763 15.0709C88.382 15.0568 88.3884 15.0425 88.3948 15.0282C88.4005 15.0141 88.407 14.9998 88.4134 14.9856C88.4198 14.9713 88.4255 14.9572 88.4327 14.9427C88.4391 14.9284 88.4448 14.9143 88.4512 14.9C88.4577 14.8858 88.4641 14.8715 88.4705 14.8572C88.4771 14.8436 88.4843 14.8291 88.4907 14.8148C88.4971 14.8005 88.5038 14.7869 88.5102 14.7726C88.5166 14.7584 88.5239 14.7445 88.5306 14.731C88.537 14.7167 88.5434 14.7024 88.5508 14.6886C88.5572 14.6743 88.5645 14.6605 88.5719 14.6467C88.5785 14.6331 88.5857 14.6186 88.5923 14.605C88.5987 14.5908 88.6061 14.5769 88.6134 14.5631C88.6208 14.5494 88.6274 14.5358 88.6347 14.522C88.6421 14.5082 88.6492 14.4937 88.6558 14.4801C88.6632 14.4663 88.6705 14.4525 88.6779 14.4387C88.6852 14.4249 88.6926 14.4111 88.6999 14.3973C88.7075 14.3842 88.7148 14.3704 88.7222 14.3566C88.7295 14.3428 88.7371 14.3297 88.7451 14.3157C88.7518 14.3021 88.7598 14.2881 88.7674 14.275C88.7747 14.2612 88.783 14.2479 88.7903 14.2341C88.7977 14.2203 88.8052 14.2072 88.8133 14.1932C88.8208 14.1801 88.8291 14.1668 88.8364 14.153C88.8447 14.1397 88.8523 14.1266 88.8603 14.1126C88.8679 14.0995 88.8761 14.0862 88.8837 14.0731C88.8924 14.0588 88.9 14.0457 88.9083 14.0324C88.9158 14.0193 88.9241 14.006 88.9324 13.9927C88.9406 13.9794 88.9489 13.9661 88.9571 13.9528C88.9647 13.9397 88.973 13.9264 88.9815 13.9138C88.9897 13.9005 88.998 13.8872 89.0062 13.8739C89.0145 13.8606 89.0228 13.8472 89.0312 13.8346C89.0402 13.8211 89.0487 13.8085 89.057 13.7952C89.0652 13.7819 89.0737 13.7693 89.0829 13.7564C89.0912 13.7431 89.1003 13.7303 89.1079 13.7172C89.1171 13.7044 89.1256 13.6918 89.1345 13.6783C89.143 13.6657 89.152 13.6521 89.1607 13.6402C89.1696 13.6267 89.1781 13.6141 89.1866 13.6015C89.1956 13.588 89.205 13.5759 89.2135 13.5633C89.2226 13.5504 89.2318 13.5376 89.2403 13.525C89.2495 13.5122 89.2587 13.4994 89.2679 13.4866C89.277 13.4737 89.2864 13.4616 89.2949 13.449C89.3041 13.4362 89.3133 13.4234 89.3227 13.4113C89.3319 13.3985 89.341 13.3856 89.3504 13.3735C89.3596 13.3607 89.369 13.3486 89.3782 13.3357C89.3876 13.3236 89.397 13.3115 89.4062 13.2987C89.4156 13.2866 89.4257 13.2743 89.4351 13.2621C89.4443 13.2493 89.4537 13.2372 89.4638 13.2249C89.4732 13.2128 89.4826 13.2006 89.492 13.1885C89.5019 13.1755 89.5113 13.1634 89.5207 13.1513C89.5308 13.1389 89.5402 13.1268 89.5505 13.1152C89.5599 13.1031 89.57 13.0907 89.5794 13.0786C89.5895 13.0663 89.5991 13.0549 89.6092 13.0426C89.6195 13.0309 89.6289 13.0188 89.639 13.0065C89.6491 12.9942 89.6588 12.9827 89.6689 12.9704C89.6792 12.9588 89.6895 12.9472 89.6989 12.935C89.7092 12.9234 89.7195 12.9118 89.7297 12.8995C89.74 12.8878 89.7503 12.8762 89.7604 12.8639C89.7709 12.853 89.7806 12.8415 89.7907 12.8292C89.8017 12.8174 89.812 12.8057 89.8223 12.7941C89.8326 12.7825 89.843 12.7709 89.8533 12.7592C89.8638 12.7483 89.8741 12.7367 89.8844 12.7251C89.8955 12.7132 89.9058 12.7016 89.9163 12.6907C89.9266 12.6791 89.937 12.6674 89.9482 12.6563C89.9587 12.6454 89.9691 12.6337 89.9801 12.6219C89.9906 12.611 90.0012 12.6001 90.0122 12.5882C90.0227 12.5773 90.0339 12.5662 90.0443 12.5545C90.0555 12.5434 90.066 12.5325 90.0773 12.5213C90.0876 12.5097 90.0989 12.4986 90.1094 12.4876C90.1206 12.4765 90.1312 12.4656 90.1424 12.4545C90.1536 12.4433 90.1649 12.4322 90.1754 12.4213C90.1869 12.4108 90.1974 12.3999 90.2086 12.3888C90.2199 12.3776 90.2313 12.3672 90.2419 12.3563C90.2531 12.3452 90.2646 12.3347 90.2758 12.3236C90.2873 12.3131 90.2985 12.302 90.3099 12.2916C90.3205 12.2806 90.3329 12.2707 90.3434 12.2598C90.3548 12.2494 90.367 12.2387 90.3775 12.2278C90.3897 12.2171 90.4012 12.2067 90.4124 12.1956C90.4238 12.1851 90.4353 12.1747 90.447 12.165C90.4584 12.1545 90.4699 12.1441 90.4813 12.1337C90.4928 12.1233 90.5042 12.1128 90.5164 12.1022C90.5279 12.0917 90.5395 12.082 90.551 12.0716C90.5634 12.0616 90.5748 12.0512 90.587 12.0406C90.5986 12.0308 90.6101 12.0204 90.6225 12.0104C90.6339 12 90.6456 11.9903 90.658 11.9803C90.6694 11.9699 90.6811 11.9602 90.6935 11.9502C90.7049 11.9398 90.7173 11.9299 90.7297 11.9199C90.7414 11.9102 90.7537 11.9003 90.7654 11.8905C90.7778 11.8806 90.7894 11.8709 90.8018 11.8609C90.8135 11.8512 90.8259 11.8412 90.8378 11.8322C90.8501 11.8223 90.8625 11.8123 90.8742 11.8026C90.8865 11.7927 90.8991 11.7834 90.9115 11.7735C90.9234 11.7645 90.9358 11.7545 90.9481 11.7446C90.9607 11.7353 90.9726 11.7263 90.9852 11.7171C90.9976 11.7071 91.0102 11.6979 91.0221 11.6889C91.0346 11.6796 91.047 11.6697 91.0596 11.6605C91.0722 11.6512 91.0848 11.642 91.0974 11.6327C91.11 11.6235 91.1226 11.6143 91.1352 11.605C91.1477 11.5958 91.1603 11.5865 91.1729 11.5773C91.1857 11.5688 91.1983 11.5595 91.2109 11.5503C91.2235 11.5411 91.2363 11.5325 91.2489 11.5233C91.2615 11.5141 91.2741 11.5048 91.2869 11.4963C91.2997 11.4877 91.3123 11.4785 91.3251 11.47C91.3386 11.4612 91.3512 11.452 91.364 11.4435C91.3768 11.4349 91.3903 11.4262 91.4029 11.4169C91.4159 11.4091 91.4285 11.3999 91.4415 11.392C91.4548 11.3826 91.4676 11.3741 91.4806 11.3662C91.4934 11.3577 91.507 11.3489 91.5198 11.3404C91.5326 11.3319 91.5463 11.3238 91.5591 11.3153C91.5719 11.3068 91.5847 11.2982 91.5984 11.2902C91.6119 11.2814 91.625 11.2736 91.6378 11.2651C91.6506 11.2565 91.6643 11.2485 91.678 11.2405C91.6908 11.2319 91.7046 11.2239 91.7176 11.2161C91.7304 11.2075 91.7441 11.1995 91.7578 11.1914C91.7708 11.1836 91.7846 11.1756 91.7976 11.1677C91.8113 11.1597 91.8243 11.1518 91.8381 11.1438C91.8511 11.136 91.865 11.1286 91.8781 11.1208C91.8918 11.1128 91.9055 11.1047 91.9187 11.0976C91.9325 11.0896 91.9455 11.0817 91.9594 11.0744C91.9727 11.0673 91.9864 11.0592 92.0003 11.0519C92.014 11.0438 92.0273 11.0367 92.041 11.0287C92.055 11.0213 92.0682 11.0142 92.0821 11.0069C92.0961 10.9995 92.1091 10.9917 92.123 10.9844C92.137 10.977 92.1509 10.9697 92.1642 10.9625C92.1781 10.9552 92.192 10.9479 92.206 10.9405C92.2201 10.9339 92.2334 10.9268 92.2473 10.9194C92.2613 10.9121 92.2754 10.9055 92.2893 10.8981C92.3033 10.8908 92.3167 10.8844 92.3309 10.8777C92.3448 10.8704 92.359 10.8637 92.3722 10.8566C92.3871 10.8498 92.4005 10.8433 92.4147 10.8367C92.4288 10.8301 92.443 10.8235 92.4569 10.8161C92.4711 10.8095 92.4853 10.8028 92.4987 10.7964C92.5126 10.7891 92.5268 10.7825 92.5412 10.7765C92.5553 10.7699 92.5695 10.7632 92.5836 10.7566C92.5978 10.75 92.6122 10.744 92.6263 10.7374C92.6405 10.7308 92.6548 10.7249 92.669 10.7182C92.6832 10.7116 92.6975 10.7056 92.7119 10.6997C92.7254 10.6933 92.7404 10.6872 92.7548 10.6812C92.769 10.6746 92.7833 10.6687 92.797 10.663C92.8119 10.6561 92.8264 10.6509 92.8406 10.6442C92.855 10.6383 92.8693 10.6324 92.8837 10.6264C92.8981 10.6205 92.9127 10.6153 92.927 10.6094C92.9412 10.6027 92.9558 10.5975 92.9701 10.5916C92.9843 10.5849 92.9991 10.5804 93.0135 10.5745C93.0278 10.5686 93.0424 10.5633 93.0568 10.5574C93.0712 10.5515 93.0867 10.5467 93.101 10.5408C93.1152 10.5342 93.13 10.5296 93.1446 10.5244C93.1594 10.5199 93.1736 10.5133 93.1884 10.5087C93.2032 10.5042 93.218 10.4974 93.2328 10.4929C93.2476 10.4883 93.2618 10.4817 93.2766 10.4772C93.2914 10.4726 93.3055 10.466 93.3203 10.4615C93.3351 10.457 93.3493 10.4503 93.3641 10.4458C93.3796 10.4411 93.394 10.4352 93.4088 10.4306C93.4236 10.4261 93.4377 10.4195 93.4525 10.415C93.4671 10.4097 93.4826 10.405 93.4976 10.4012C93.5122 10.396 93.527 10.3914 93.542 10.3876C93.5566 10.3824 93.5714 10.3779 93.5865 10.374C93.5956 10.3712 93.6041 10.3687 93.6125 10.3661C93.6271 10.3609 93.6419 10.3563 93.6569 10.3525C93.6715 10.3473 93.6863 10.3428 93.7013 10.339C93.7166 10.3335 93.7314 10.329 93.7464 10.3252C93.761 10.32 93.7758 10.3154 93.7909 10.3116C93.8057 10.3071 93.8218 10.3045 93.8366 10.3C93.8514 10.2954 93.8666 10.2923 93.8814 10.2878C93.8962 10.2833 93.9117 10.2809 93.9265 10.2764C93.9413 10.2718 93.9574 10.2692 93.9722 10.2647C93.987 10.2602 94.0025 10.2578 94.0173 10.2532C94.0321 10.2487 94.0476 10.2463 94.0631 10.2416C94.0779 10.2371 94.0928 10.2356 94.1076 10.231C94.1231 10.2263 94.1386 10.2239 94.1536 10.2201C94.169 10.2177 94.1838 10.2132 94.1991 10.21C94.2145 10.2076 94.2293 10.2031 94.2445 10.2C94.2598 10.1969 94.2748 10.1931 94.29 10.19C94.3062 10.1873 94.3205 10.1837 94.3357 10.1806C94.3517 10.1773 94.3667 10.1735 94.3819 10.1704C94.3976 10.1687 94.4126 10.1649 94.4278 10.1618C94.4431 10.1586 94.4583 10.1555 94.4735 10.1524C94.489 10.15 94.5042 10.1469 94.5194 10.1438C94.5349 10.1414 94.5501 10.1383 94.5653 10.1352C94.5808 10.1327 94.596 10.1296 94.6115 10.1272C94.6267 10.1241 94.6421 10.1217 94.6576 10.1193C94.6723 10.1171 94.6883 10.1138 94.703 10.1116C94.7185 10.1092 94.7339 10.1068 94.7494 10.1044C94.7646 10.1013 94.7802 10.0996 94.7957 10.0972C94.8109 10.094 94.8266 10.0923 94.842 10.0899C94.8568 10.0877 94.8722 10.0853 94.8879 10.0836C94.9033 10.0812 94.919 10.0795 94.9344 10.0771C94.9501 10.0754 94.9648 10.0732 94.9803 10.0708C94.996 10.0691 95.0114 10.0667 95.0271 10.065C95.0427 10.0633 95.0575 10.0611 95.0731 10.0594C95.0888 10.0577 95.1042 10.0553 95.1199 10.0536C95.1349 10.0521 95.1505 10.0504 95.1662 10.0487C95.1811 10.0472 95.1968 10.0455 95.2125 10.0438C95.2274 10.0423 95.2431 10.0406 95.259 10.0396C95.2746 10.0379 95.2896 10.0364 95.3055 10.0354C95.3211 10.0337 95.3363 10.0329 95.352 10.0312C95.3678 10.0302 95.3828 10.0288 95.3987 10.0278C95.4143 10.0261 95.4295 10.0253 95.4454 10.0243C95.4611 10.0226 95.4762 10.0218 95.4921 10.0208C95.5071 10.0193 95.5229 10.0183 95.5381 10.0175C95.554 10.0165 95.5692 10.0157 95.585 10.0148C95.6002 10.014 95.6161 10.013 95.6322 10.0127C95.6474 10.0119 95.6625 10.0111 95.6784 10.0101C95.6943 10.0091 95.7095 10.0083 95.7248 10.0083C95.7409 10.008 95.7561 10.0072 95.7713 10.0064C95.7874 10.0061 95.8028 10.006 95.8179 10.0052C95.834 10.005 95.8492 10.0042 95.8653 10.0039C95.8807 10.0038 95.8961 10.0037 95.9122 10.0034C95.9276 10.0034 95.9429 10.0033 95.9588 10.0023C95.9742 10.0022 95.9896 10.0021 96.005 10.002C96.0204 10.002 96.0365 10.0017 96.0518 10.0016C96.0674 10.0022 96.0828 10.0022 96.0982 10.0021C96.1143 10.0018 96.1299 10.0024 96.1453 10.0023C96.1607 10.0023 96.1763 10.0029 96.1917 10.0028C96.2073 10.0034 96.2236 10.0038 96.2383 10.004C96.2539 10.0046 96.2702 10.005 96.2856 10.0049C96.3012 10.0056 96.3168 10.0062 96.3324 10.0068C96.348 10.0074 96.3636 10.0081 96.3792 10.0087C96.3939 10.0088 96.4095 10.0095 96.4253 10.0108C96.4409 10.0114 96.4565 10.012 96.4721 10.0127C96.4877 10.0133 96.5033 10.0139 96.5191 10.0153C96.534 10.0161 96.5496 10.0167 96.5655 10.0181C96.5811 10.0187 96.596 10.0195 96.6118 10.0209C96.6276 10.0222 96.6432 10.0228 96.6581 10.0237C96.6739 10.025 96.6897 10.0263 96.7048 10.0279C96.7205 10.0285 96.7363 10.0298 96.7514 10.0314C96.7672 10.0327 96.783 10.034 96.7981 10.0356C96.814 10.0369 96.8291 10.0385 96.8449 10.0398C96.86 10.0413 96.8758 10.0427 96.8909 10.0442C96.906 10.0458 96.9221 10.0478 96.9379 10.0491C96.953 10.0507 96.9688 10.052 96.9842 10.0543C96.9993 10.0558 97.0146 10.0581 97.0306 10.0601C97.0457 10.0617 97.0616 10.063 97.0769 10.0652C97.0922 10.0675 97.1076 10.0697 97.1234 10.0711C97.1387 10.0733 97.154 10.0756 97.1691 10.0771C97.1845 10.0794 97.2005 10.0814 97.2158 10.0837C97.2312 10.0859 97.2465 10.0882 97.2618 10.0904C97.2772 10.0927 97.2925 10.0949 97.3078 10.0972C97.3231 10.0994 97.3392 10.1015 97.354 10.1046C97.3693 10.1069 97.3854 10.1089 97.4002 10.1121C97.4155 10.1143 97.4309 10.1166 97.4464 10.1195C97.462 10.1225 97.4773 10.1247 97.4928 10.1277C97.5075 10.1302 97.523 10.1331 97.5385 10.1361C97.5539 10.1383 97.5694 10.1413 97.585 10.1443C97.5996 10.1467 97.6151 10.1497 97.63 10.1528C97.6455 10.1558 97.6611 10.1587 97.6759 10.1619C97.6914 10.1649 97.7063 10.168 97.7218 10.171C97.7374 10.174 97.7522 10.1771 97.7678 10.1801C97.7828 10.184 97.7984 10.1869 97.8132 10.1901C97.828 10.1933 97.8438 10.1969 97.8588 10.2008C97.8744 10.2038 97.8892 10.2069 97.905 10.2106C97.9191 10.214 97.9349 10.2176 97.9497 10.2208C97.9655 10.2245 97.9805 10.2284 97.9954 10.2315C98.0104 10.2354 98.0255 10.2393 98.0412 10.2429C98.0561 10.2461 98.0711 10.25 98.0862 10.2539C98.1012 10.2577 98.1163 10.2616 98.1314 10.2655C98.1464 10.2694 98.1615 10.2732 98.1765 10.2771C98.1916 10.281 98.2068 10.2856 98.2219 10.2894C98.2369 10.2933 98.252 10.2972 98.2673 10.3018C98.2816 10.3059 98.2967 10.3097 98.3119 10.3143C98.327 10.3182 98.3416 10.323 98.3566 10.3269C98.3719 10.3315 98.3862 10.3355 98.4015 10.3401C98.4168 10.3447 98.4318 10.3486 98.4464 10.3534C98.4617 10.358 98.476 10.3621 98.4906 10.3668C98.5058 10.3714 98.5211 10.376 98.5357 10.3808C98.5503 10.3856 98.5655 10.3902 98.5806 10.3941C98.5953 10.3996 98.6099 10.4044 98.6245 10.4092C98.6397 10.4137 98.6543 10.4185 98.6691 10.424C98.6844 10.4286 98.6989 10.4334 98.7135 10.4382C98.7283 10.4437 98.7428 10.4485 98.7574 10.4533C98.7722 10.4588 98.7868 10.4636 98.8013 10.4684C98.8168 10.4737 98.8316 10.4792 98.8454 10.4842C98.8609 10.4895 98.8748 10.4945 98.8896 10.5C98.9043 10.5055 98.9191 10.511 98.9337 10.5158C98.9485 10.5213 98.9633 10.5268 98.9773 10.5325C98.9921 10.538 99.0069 10.5435 99.0207 10.5485C99.0357 10.5547 99.0503 10.5595 99.0646 10.5659C99.0792 10.5707 99.0939 10.5762 99.1082 10.5826C99.123 10.5881 99.1371 10.5939 99.1519 10.5994C99.1662 10.6058 99.1802 10.6115 99.195 10.617C99.2093 10.6234 99.2241 10.6289 99.2384 10.6353C99.2525 10.6411 99.2665 10.6468 99.2815 10.653C99.2956 10.6587 99.3099 10.6651 99.324 10.6708C99.3383 10.6772 99.3523 10.683 99.3666 10.6894C99.3816 10.6956 99.3959 10.702 99.41 10.7077C99.4243 10.7142 99.4388 10.7213 99.4529 10.727C99.4664 10.7336 99.4814 10.7398 99.4957 10.7462C99.5093 10.7529 99.5236 10.7593 99.5379 10.7657C99.5522 10.7722 99.5658 10.7788 99.5801 10.7852C99.5944 10.7916 99.6079 10.7983 99.6224 10.8054C99.6367 10.8118 99.6503 10.8184 99.6648 10.8256C99.6784 10.8322 99.6927 10.8386 99.7065 10.846C99.7208 10.8524 99.7344 10.859 99.7482 10.8664C99.7625 10.8728 99.7763 10.8801 99.7908 10.8872C99.8044 10.8939 99.8182 10.9012 99.8317 10.9079C99.8455 10.9152 99.86 10.9223 99.8736 10.929C99.8874 10.9363 99.9012 10.9436 99.915 10.951C99.9286 10.9576 99.9426 10.9657 99.9564 10.973C99.97 10.9796 99.9838 10.987 99.9976 10.9943C100.011 11.0019 100.025 11.0099 100.038 11.0166C100.052 11.0246 100.066 11.032 100.079 11.0395C100.093 11.0468 100.107 11.0542 100.12 11.0617C100.134 11.0698 100.148 11.0771 100.161 11.0854C100.175 11.0927 100.188 11.1003 100.202 11.1083C100.215 11.1159 100.229 11.1232 100.242 11.1315C100.255 11.139 100.269 11.1471 100.282 11.1546C100.296 11.1629 100.309 11.1705 100.323 11.1785C100.336 11.1868 100.349 11.195 100.363 11.2026C100.376 11.2108 100.389 11.2191 100.402 11.2274C100.416 11.2356 100.429 11.2432 100.442 11.2514C100.455 11.2597 100.469 11.268 100.482 11.2762C100.495 11.2845 100.508 11.293 100.521 11.3012C100.535 11.3095 100.548 11.3177 100.561 11.3262C100.574 11.3345 100.587 11.3427 100.6 11.3519C100.613 11.3602 100.626 11.3686 100.639 11.3769C100.652 11.3861 100.665 11.3944 100.678 11.4028C100.691 11.4113 100.704 11.4203 100.717 11.4287C100.73 11.4379 100.742 11.4464 100.756 11.4554C100.768 11.4638 100.781 11.473 100.794 11.4815C100.807 11.4907 100.819 11.4991 100.832 11.5083C100.845 11.5173 100.858 11.5265 100.87 11.5359C100.883 11.5443 100.896 11.5535 100.909 11.5627C100.921 11.5712 100.933 11.5806 100.946 11.5898C100.959 11.5989 100.972 11.6081 100.984 11.6175C100.997 11.626 101.01 11.6359 101.022 11.6446C101.035 11.6545 101.046 11.6631 101.06 11.673C101.072 11.6824 101.084 11.6916 101.097 11.701C101.109 11.7104 101.121 11.7198 101.134 11.729C101.146 11.7391 101.158 11.7485 101.171 11.7576C101.183 11.7677 101.195 11.7771 101.207 11.7865C101.22 11.7959 101.232 11.806 101.244 11.8154C101.256 11.8255 101.268 11.8349 101.281 11.845C101.292 11.8546 101.304 11.864 101.317 11.8741C101.329 11.8835 101.34 11.8938 101.353 11.9039C101.365 11.9133 101.377 11.9234 101.389 11.9338C101.401 11.9432 101.413 11.9535 101.425 11.9636C101.436 11.9732 101.449 11.9833 101.46 11.9936C101.472 12.0039 101.484 12.014 101.496 12.0243C101.507 12.0346 101.519 12.0442 101.531 12.0543C101.543 12.0647 101.554 12.075 101.566 12.0853C101.578 12.0956 101.589 12.1059 101.601 12.1162C101.613 12.1266 101.624 12.1369 101.636 12.1479C101.648 12.1582 101.659 12.1687 101.67 12.1791C101.682 12.1894 101.694 12.1997 101.705 12.2107C101.716 12.2212 101.728 12.2316 101.739 12.2421C101.751 12.2531 101.762 12.2636 101.773 12.274C101.784 12.2845 101.796 12.2955 101.807 12.306C101.819 12.3171 101.83 12.3276 101.841 12.3388C101.852 12.3491 101.863 12.3606 101.874 12.3711C101.886 12.3821 101.897 12.3927 101.908 12.4039C101.919 12.4144 101.93 12.4257 101.941 12.4369C101.952 12.4474 101.963 12.4587 101.974 12.4699C101.984 12.4807 101.995 12.4919 102.007 12.5031C102.018 12.5144 102.029 12.5256 102.039 12.5363C102.05 12.5476 102.061 12.559 102.072 12.5703C102.083 12.5808 102.093 12.5929 102.104 12.6037C102.115 12.6149 102.125 12.6264 102.136 12.6376C102.147 12.6491 102.157 12.6605 102.168 12.672C102.178 12.6834 102.189 12.6947 102.2 12.7061C102.21 12.7176 102.22 12.729 102.231 12.7405C102.242 12.7526 102.252 12.7641 102.262 12.7755C102.272 12.7872 102.283 12.7986 102.293 12.8101C102.304 12.8222 102.314 12.8337 102.325 12.8451C102.334 12.8575 102.344 12.8692 102.355 12.8806C102.365 12.8921 102.375 12.9045 102.385 12.9159C102.395 12.9276 102.406 12.9397 102.416 12.9514C102.425 12.963 102.436 12.9752 102.446 12.9876C102.456 12.9992 102.466 13.0116 102.475 13.0233C102.486 13.0354 102.496 13.0471 102.506 13.0595C102.515 13.0711 102.525 13.0828 102.534 13.0954C102.545 13.1075 102.554 13.1194 102.564 13.1318C102.574 13.1435 102.584 13.1558 102.593 13.1684C102.603 13.1808 102.612 13.1925 102.622 13.2051C102.632 13.2174 102.642 13.2298 102.651 13.2417C102.66 13.2543 102.67 13.2666 102.679 13.2792C102.689 13.2916 102.698 13.3035 102.707 13.316C102.716 13.3286 102.726 13.341 102.735 13.3529C102.745 13.3655 102.754 13.3788 102.763 13.3914C102.772 13.4032 102.782 13.4158 102.791 13.4284C102.799 13.4412 102.809 13.4536 102.819 13.4662C102.827 13.479 102.836 13.4916 102.845 13.5044C102.854 13.5176 102.863 13.5295 102.872 13.5423C102.881 13.5556 102.891 13.5682 102.899 13.581C102.908 13.5936 102.917 13.6064 102.925 13.6192C102.935 13.6318 102.943 13.6446 102.952 13.6581C102.96 13.6709 102.97 13.6835 102.978 13.6963C102.987 13.7091 102.996 13.7226 103.004 13.7354C103.013 13.7482 103.021 13.761 103.03 13.7745C103.038 13.7873 103.047 13.8001 103.055 13.8138C103.064 13.8266 103.072 13.8394 103.081 13.8529C103.089 13.8657 103.097 13.8787 103.105 13.8918C103.114 13.9053 103.122 13.9183 103.13 13.9318C103.138 13.9448 103.147 13.9583 103.155 13.9713C103.163 13.9848 103.171 13.9978 103.179 14.0109C103.187 14.0246 103.195 14.0376 103.204 14.0511C103.212 14.0641 103.22 14.0778 103.227 14.0909C103.235 14.1046 103.243 14.1176 103.251 14.1313C103.259 14.1453 103.267 14.1583 103.275 14.172C103.283 14.1857 103.29 14.1989 103.298 14.2127C103.306 14.2257 103.313 14.2396 103.321 14.2533C103.328 14.2666 103.336 14.2803 103.343 14.2935C103.351 14.3072 103.359 14.3212 103.366 14.3351C103.374 14.3481 103.381 14.3621 103.389 14.376C103.396 14.3892 103.403 14.4032 103.41 14.4171C103.417 14.4303 103.425 14.4441 103.432 14.4582C103.439 14.4722 103.447 14.4861 103.454 14.4993C103.461 14.5133 103.469 14.5272 103.475 14.5413C103.483 14.5553 103.49 14.5685 103.496 14.5827C103.504 14.5966 103.51 14.6108 103.518 14.6247C103.524 14.6388 103.531 14.6521 103.538 14.6662C103.545 14.6804 103.552 14.6943 103.559 14.7085C103.565 14.7226 103.572 14.7359 103.579 14.75C103.586 14.7642 103.592 14.7783 103.599 14.7925C103.606 14.8066 103.612 14.8208 103.619 14.8349C103.625 14.8491 103.631 14.8634 103.638 14.8776C103.645 14.8917 103.651 14.9052 103.657 14.9203C103.664 14.9344 103.67 14.9478 103.676 14.9622C103.683 14.9764 103.689 14.9907 103.695 15.0049C103.701 15.0193 103.707 15.0336 103.714 15.0478C103.72 15.0622 103.726 15.0765 103.732 15.0909C103.738 15.105 103.744 15.1194 103.75 15.1338C103.756 15.1488 103.762 15.1632 103.768 15.1769C103.774 15.1919 103.78 15.2056 103.786 15.2207C103.792 15.235 103.797 15.2496 103.803 15.264C103.809 15.2784 103.814 15.2929 103.82 15.3073C103.826 15.3217 103.831 15.3363 103.837 15.3506C103.843 15.3659 103.848 15.3796 103.854 15.3942C103.859 15.4094 103.864 15.424 103.87 15.4384C103.875 15.453 103.881 15.4676 103.886 15.4821C103.891 15.4967 103.897 15.5111 103.902 15.5259C103.907 15.5403 103.912 15.555 103.918 15.5694C103.923 15.5847 103.928 15.5995 103.933 15.6141C103.938 15.6287 103.944 15.6433 103.948 15.6581C103.953 15.6726 103.959 15.6879 103.963 15.7027C103.968 15.7173 103.973 15.7321 103.978 15.7467C103.983 15.7615 103.987 15.7763 103.993 15.7909C103.997 15.8064 104.002 15.8202 104.007 15.8357C104.011 15.8505 104.016 15.8653 104.021 15.8801ZM45.2302 45.6684L38.6585 24.155C36.2238 24.8678 34.7421 26.5307 33.8486 28.4569L38.8207 44.7356C40.6382 45.8345 42.8002 46.399 45.2302 45.6684ZM33.1409 28.673C33.1409 28.673 21.1862 23.3263 10.7787 31.0812C10.7787 31.0812 18.3457 29.7838 21.8595 31.3561C28.0282 34.1166 10.7787 31.0812 0.639963 47.5349C18.2419 55.5156 30.8515 43.3601 27.278 49.0963C25.2424 52.3635 18.2419 55.5156 18.2419 55.5156C31.2062 56.1319 38.1333 45.018 38.1333 45.018L33.1409 28.673Z" fill="black"/>
</svg>