<svg width="66" height="40" viewBox="0 0 66 40" fill="none" xmlns="http://www.w3.org/2000/svg">
<path d="M65.2183 19.8631C65.2183 19.8631 63.4115 17.4134 57.7503 15.0618L57.7503 24.6648C63.4115 22.3133 65.2183 19.8631 65.2183 19.8631ZM57.0541 14.7039C50.5824 12.0154 39.4212 9.44692 20.9203 10.2938C20.3305 10.3082 19.7822 10.3295 19.2738 10.3566C18.7654 10.3833 18.2973 10.4154 17.8682 10.4507C17.4391 10.4861 17.0491 10.5243 16.6972 10.5637C16.345 10.6032 16.031 10.6439 15.754 10.6837C15.4766 10.7236 15.2361 10.7622 15.0319 10.7984C14.8272 10.8341 14.6583 10.8674 14.5243 10.8953C14.2555 10.9512 14.126 10.9878 14.126 10.9878C14.126 10.9878 14.1478 10.9697 14.2172 10.9339C14.2867 10.8986 14.4038 10.8452 14.5941 10.7749C14.6895 10.7396 14.8029 10.7001 14.9382 10.6562C15.0734 10.6122 15.23 10.5641 15.4116 10.512C15.5933 10.4594 15.7996 10.4031 16.0339 10.3423C16.2682 10.2814 16.5308 10.2165 16.8242 10.1475C17.1181 10.0785 17.419 10.0152 17.7211 9.95684C18.0227 9.89891 18.3256 9.84631 18.6228 9.79865C18.9204 9.75139 19.2118 9.70866 19.4917 9.67085C19.6014 9.65606 19.6988 9.64497 19.8044 9.63182L4.77609 0.714566L0.218263 0.655805L8.7846 12.7456L8.7846 26.9354L0.218261 39.0252L4.77608 39.0774L19.7724 30.094C19.6643 30.0805 19.5644 30.0689 19.4518 30.0537C19.1719 30.0159 18.8801 29.9732 18.5829 29.9255C18.2862 29.8783 17.9833 29.8257 17.6816 29.7678C17.3795 29.7098 17.0791 29.6461 16.7852 29.5771C16.4917 29.5081 16.2299 29.4431 15.9957 29.3823C15.761 29.3219 15.5547 29.2652 15.3734 29.2126C15.1921 29.1605 15.0351 29.1124 14.9003 29.0684C14.7651 29.0244 14.6517 28.985 14.5563 28.9497C14.366 28.8794 14.2489 28.8264 14.1794 28.7906C14.11 28.7549 14.0882 28.7372 14.0882 28.7372C14.0882 28.7372 14.2181 28.7734 14.486 28.8293C14.6204 28.8572 14.789 28.8905 14.9936 28.9262C15.1979 28.9624 15.4383 29.001 15.7154 29.0409C15.9924 29.0807 16.3064 29.1214 16.6582 29.1609C17.01 29.2007 17.4001 29.2389 17.8291 29.2743C18.2578 29.3092 18.7255 29.3412 19.234 29.368C19.742 29.3951 20.2902 29.4164 20.8796 29.4308C39.4048 30.2838 50.5779 27.7133 57.0541 25.0227L57.0541 14.7039ZM44.3504 19.8253C44.3508 19.8302 44.3508 19.8352 44.3504 19.8401C44.3508 19.8491 44.3508 19.8578 44.3504 19.8664C44.3504 19.875 44.3508 19.8837 44.3504 19.8923C44.3504 19.9013 44.35 19.9096 44.35 19.9182C44.35 19.9272 44.3496 19.9359 44.3491 19.9445C44.3491 19.9531 44.3491 19.9617 44.3487 19.9704C44.3483 19.979 44.3483 19.988 44.3479 19.9967C44.3475 20.0053 44.3471 20.0139 44.3467 20.0226C44.3467 20.0312 44.3463 20.0398 44.3459 20.0484C44.3454 20.0575 44.345 20.0657 44.3446 20.0743C44.3442 20.0834 44.3438 20.092 44.343 20.1006C44.3426 20.1092 44.3422 20.1179 44.3413 20.1265C44.3409 20.1351 44.3405 20.1438 44.3401 20.1524C44.3393 20.161 44.3389 20.1697 44.338 20.1787C44.3372 20.1873 44.3368 20.1959 44.336 20.2042C44.3356 20.2132 44.3348 20.2218 44.3339 20.2305C44.3331 20.2391 44.3327 20.2477 44.3319 20.2564C44.3311 20.2654 44.3302 20.2736 44.3294 20.2822C44.3286 20.2909 44.3278 20.2995 44.327 20.3081C44.3261 20.3168 44.3249 20.3254 44.3241 20.334C44.3233 20.3426 44.322 20.3513 44.3212 20.3599C44.3204 20.3685 44.3191 20.3772 44.3183 20.3858C44.3175 20.3944 44.3159 20.403 44.315 20.4117C44.3138 20.4203 44.313 20.4289 44.3117 20.4376C44.3105 20.4462 44.3093 20.4548 44.3085 20.4634C44.3072 20.4721 44.306 20.4807 44.3048 20.4893C44.3035 20.498 44.3023 20.5066 44.3011 20.5148C44.2998 20.5234 44.2986 20.5321 44.2974 20.5407C44.2961 20.5493 44.2949 20.5579 44.2932 20.5666C44.292 20.5748 44.2904 20.5838 44.2891 20.5921C44.2879 20.6007 44.2863 20.6093 44.285 20.6179C44.2834 20.6266 44.2822 20.6352 44.2805 20.6434C44.2789 20.652 44.2772 20.6607 44.276 20.6693C44.2743 20.6779 44.2727 20.6861 44.2711 20.6948C44.2694 20.7034 44.2678 20.712 44.2661 20.7203C44.2645 20.7289 44.2632 20.7375 44.2612 20.7457C44.2595 20.7544 44.2579 20.763 44.2563 20.7716C44.2542 20.7798 44.2526 20.7885 44.2509 20.7971C44.2489 20.8053 44.2472 20.8139 44.2456 20.8226C44.2435 20.8308 44.2419 20.8394 44.2398 20.8476C44.2382 20.8563 44.2361 20.8649 44.2341 20.8731C44.2324 20.8817 44.23 20.8904 44.2283 20.8986C44.2263 20.9072 44.2242 20.9154 44.2221 20.9241C44.2201 20.9327 44.218 20.9409 44.216 20.9491C44.2139 20.9577 44.2119 20.966 44.2098 20.9746C44.2078 20.9828 44.2057 20.9914 44.2037 20.9997C44.2012 21.0083 44.1991 21.0165 44.1971 21.0251C44.1946 21.0334 44.1926 21.0416 44.1901 21.0502C44.188 21.0584 44.1856 21.067 44.1831 21.0753C44.181 21.0835 44.1786 21.0921 44.1765 21.1003C44.1741 21.109 44.1716 21.1172 44.1691 21.1254C44.1667 21.134 44.1642 21.1418 44.1617 21.1505C44.1597 21.1591 44.1572 21.1669 44.1543 21.1755C44.1523 21.1837 44.1494 21.192 44.1469 21.2002C44.1445 21.2088 44.142 21.217 44.1391 21.2252C44.1367 21.2335 44.1342 21.2417 44.1317 21.2499C44.1289 21.2585 44.1264 21.2667 44.1235 21.275C44.1206 21.2832 44.1182 21.2914 44.1153 21.2996C44.1128 21.3078 44.1099 21.3161 44.1071 21.3243C44.1046 21.3325 44.1017 21.3407 44.0988 21.3489C44.096 21.3571 44.0931 21.3654 44.0902 21.3736C44.0873 21.3818 44.0845 21.39 44.0816 21.3982C44.0787 21.4064 44.0758 21.4143 44.0729 21.4225C44.0701 21.4307 44.0668 21.4389 44.0639 21.4471C44.061 21.4553 44.0577 21.4636 44.0549 21.4714C44.0516 21.4796 44.0487 21.4878 44.0458 21.4956C44.0425 21.5038 44.0392 21.512 44.0364 21.5203C44.0331 21.5281 44.0298 21.5363 44.0269 21.5445C44.0236 21.5523 44.0203 21.5605 44.0175 21.5688C44.0142 21.5766 44.0109 21.5848 44.0076 21.593C44.0043 21.6008 44.001 21.609 43.9977 21.6168C43.9945 21.625 43.9908 21.6329 43.9879 21.6407C43.9842 21.6489 43.9809 21.6571 43.9776 21.6649C43.9739 21.6731 43.9706 21.6809 43.9673 21.6887C43.9636 21.6965 43.9603 21.7048 43.9566 21.7126C43.9534 21.7208 43.9497 21.7286 43.9464 21.7364C43.9427 21.7446 43.939 21.7524 43.9357 21.7602C43.932 21.768 43.9283 21.7758 43.9246 21.7841C43.9209 21.7919 43.9176 21.7997 43.9139 21.8075C43.9098 21.8153 43.9065 21.8235 43.9028 21.8313C43.8991 21.8391 43.895 21.8469 43.8913 21.8547C43.8876 21.8625 43.8839 21.8704 43.8798 21.8782C43.8765 21.886 43.8724 21.8938 43.8687 21.9016C43.8646 21.9094 43.8609 21.9168 43.8572 21.9246C43.8531 21.9324 43.849 21.9402 43.8453 21.948C43.8411 21.9554 43.8374 21.9636 43.8333 21.9714C43.8292 21.9792 43.8255 21.9866 43.8214 21.9944C43.8173 22.0018 43.8132 22.0096 43.8091 22.0174C43.805 22.0253 43.8013 22.0327 43.7968 22.0405C43.7926 22.0479 43.789 22.0557 43.7844 22.0635C43.7803 22.0709 43.7762 22.0787 43.7721 22.0861C43.768 22.0939 43.7639 22.1013 43.7594 22.1091C43.7552 22.1165 43.7507 22.1239 43.7466 22.1317C43.7425 22.1391 43.7384 22.1465 43.7339 22.1543C43.7298 22.1617 43.7248 22.1691 43.7207 22.1769C43.7162 22.1843 43.7121 22.1917 43.7076 22.1995C43.703 22.2069 43.6989 22.2143 43.6944 22.2217C43.6899 22.2291 43.6854 22.2365 43.6809 22.2443C43.6763 22.2512 43.6718 22.2586 43.6673 22.266C43.6628 22.2734 43.6582 22.2812 43.6537 22.2886C43.6492 22.296 43.6447 22.303 43.6402 22.3104C43.6352 22.3178 43.6307 22.3252 43.6262 22.3326C43.6217 22.34 43.6167 22.3474 43.6118 22.3544C43.6073 22.3618 43.6028 22.3692 43.5978 22.3766C43.5933 22.3835 43.5884 22.3909 43.5834 22.3983C43.5789 22.4053 43.574 22.4127 43.5695 22.4197C43.5645 22.4271 43.5596 22.4345 43.5547 22.4415C43.5497 22.4485 43.5452 22.4559 43.5403 22.4629C43.5354 22.4702 43.5304 22.4772 43.5255 22.4846C43.5206 22.4916 43.5156 22.4986 43.5107 22.506C43.5058 22.513 43.5004 22.52 43.4955 22.5274C43.4906 22.5344 43.4856 22.5413 43.4807 22.5483C43.4754 22.5553 43.4704 22.5627 43.4651 22.5697C43.4601 22.5767 43.4552 22.5837 43.4499 22.5906C43.4449 22.5976 43.4396 22.6046 43.4347 22.6116C43.4293 22.6186 43.424 22.6256 43.419 22.6326C43.4137 22.6395 43.4084 22.6461 43.403 22.6531C43.3977 22.6601 43.3927 22.6671 43.3874 22.6741C43.3821 22.6806 43.3767 22.6876 43.3714 22.6946C43.366 22.7012 43.3607 22.7082 43.3553 22.7152C43.35 22.7217 43.3447 22.7287 43.3393 22.7357C43.334 22.7423 43.3286 22.7488 43.3229 22.7558C43.3175 22.7624 43.3118 22.7694 43.3064 22.776C43.3011 22.7825 43.2957 22.7895 43.29 22.7961C43.2846 22.8031 43.2789 22.8096 43.2735 22.8162C43.2678 22.8232 43.2625 22.8298 43.2567 22.8364C43.2509 22.8429 43.2456 22.8495 43.2398 22.8561C43.2341 22.8627 43.2288 22.8692 43.223 22.8758C43.2172 22.8824 43.2115 22.889 43.2057 22.8955C43.2004 22.9021 43.1946 22.9087 43.1889 22.9153C43.1831 22.9218 43.1774 22.928 43.1716 22.9346C43.1659 22.9411 43.1597 22.9477 43.1539 22.9539C43.1482 22.9604 43.1424 22.967 43.1367 22.9736C43.1305 22.9798 43.1248 22.9863 43.119 22.9925C43.1133 22.9991 43.1071 23.0052 43.1013 23.0114C43.0956 23.018 43.0894 23.0241 43.0833 23.0307C43.0775 23.0369 43.0713 23.0435 43.0656 23.0496C43.0594 23.0558 43.0537 23.0624 43.0475 23.0685C43.0413 23.0747 43.0356 23.0808 43.0294 23.087C43.0232 23.0932 43.0171 23.0993 43.0109 23.1055C43.0052 23.1117 42.999 23.1178 42.9928 23.124C42.9867 23.1302 42.9805 23.1363 42.9743 23.1425C42.9682 23.1486 42.962 23.1548 42.9558 23.161C42.9497 23.1667 42.9435 23.1729 42.9374 23.179C42.9312 23.1852 42.9246 23.191 42.9184 23.1971C42.9123 23.2033 42.9061 23.209 42.8995 23.2152C42.8934 23.221 42.8872 23.2271 42.8806 23.2329C42.8745 23.239 42.8679 23.2448 42.8617 23.251C42.8551 23.2567 42.849 23.2625 42.8424 23.2682C42.8362 23.274 42.8297 23.2801 42.8231 23.2859C42.8169 23.2916 42.8104 23.2978 42.8038 23.3036C42.7976 23.3093 42.7906 23.3151 42.7845 23.3208C42.7779 23.3266 42.7713 23.3319 42.7647 23.3381C42.7586 23.3438 42.752 23.3492 42.7454 23.3549C42.7384 23.3607 42.7323 23.3664 42.7257 23.3718C42.7187 23.3775 42.7125 23.3833 42.7055 23.389C42.699 23.3948 42.6924 23.4001 42.6858 23.4055C42.6792 23.4112 42.6727 23.4169 42.6657 23.4223C42.6591 23.428 42.6525 23.4334 42.6455 23.4387C42.639 23.4445 42.6324 23.4498 42.6254 23.4552C42.6188 23.4609 42.6118 23.4663 42.6048 23.4716C42.5983 23.4774 42.5917 23.4827 42.5847 23.4876C42.5781 23.4934 42.5711 23.4987 42.5642 23.5041C42.5576 23.5094 42.5506 23.5147 42.5436 23.5201C42.537 23.5254 42.53 23.5308 42.5231 23.5361C42.5161 23.5411 42.5095 23.5464 42.5021 23.5517C42.4955 23.5567 42.4885 23.562 42.4815 23.5673C42.4746 23.5727 42.4676 23.5776 42.4606 23.583C42.4536 23.5879 42.4466 23.5932 42.4396 23.5982C42.4326 23.6035 42.4256 23.6084 42.4187 23.6134C42.4113 23.6187 42.4043 23.6236 42.3973 23.6286C42.3903 23.6335 42.3833 23.6388 42.3763 23.6438C42.3689 23.6487 42.3619 23.6536 42.355 23.6586C42.3476 23.6639 42.3406 23.6684 42.3336 23.6734C42.3262 23.6783 42.3188 23.6832 42.3118 23.6882C42.3048 23.6931 42.2974 23.698 42.2904 23.7029C42.283 23.7075 42.2756 23.7124 42.2686 23.7173C42.2612 23.7218 42.2543 23.7268 42.2469 23.7313C42.2395 23.7362 42.2325 23.7412 42.2251 23.7457C42.2177 23.7506 42.2103 23.7551 42.2029 23.7596C42.1955 23.7646 42.1885 23.7691 42.1811 23.7736C42.1737 23.7785 42.1663 23.7831 42.1589 23.7876C42.1515 23.7921 42.1441 23.7966 42.1371 23.8012C42.1297 23.8057 42.1219 23.8106 42.1145 23.8147C42.1071 23.8196 42.0997 23.8237 42.0923 23.8283C42.0849 23.8328 42.0775 23.8373 42.0701 23.8418C42.0627 23.8463 42.0549 23.8504 42.0475 23.855C42.0401 23.8591 42.0327 23.8636 42.0249 23.8681C42.0175 23.8722 42.0097 23.8768 42.0023 23.8813C41.9949 23.8854 41.9871 23.8895 41.9797 23.894C41.9723 23.8981 41.9645 23.9022 41.9571 23.9067C41.9493 23.9109 41.9419 23.915 41.9341 23.9191C41.9267 23.9232 41.9189 23.9277 41.9115 23.9314C41.9037 23.9355 41.8959 23.9396 41.8885 23.9441C41.8807 23.9478 41.8729 23.9519 41.865 23.9561C41.8576 23.9602 41.8498 23.9643 41.8424 23.9684C41.8346 23.9721 41.8268 23.9762 41.819 23.9803C41.8116 23.984 41.8034 23.9881 41.796 23.9918C41.7882 23.9959 41.7804 23.9996 41.7726 24.0033C41.7648 24.0074 41.757 24.0115 41.7496 24.0152C41.7413 24.0189 41.7339 24.0226 41.7261 24.0263C41.7179 24.0304 41.7105 24.0341 41.7023 24.0378C41.6945 24.0415 41.6867 24.0452 41.6789 24.0489C41.671 24.0526 41.6632 24.0563 41.6554 24.06C41.6472 24.0637 41.6394 24.0674 41.6316 24.0711C41.6238 24.0744 41.616 24.0781 41.6078 24.0818C41.5999 24.0851 41.5921 24.0888 41.5843 24.0921C41.5761 24.0958 41.5683 24.0995 41.5601 24.1027C41.5523 24.106 41.5445 24.1097 41.5362 24.113C41.5284 24.1163 41.5206 24.12 41.5124 24.1233C41.5042 24.1266 41.4964 24.1303 41.4886 24.1336C41.4803 24.1368 41.4725 24.1401 41.4643 24.1434C41.4565 24.1467 41.4483 24.15 41.4405 24.1533C41.4323 24.1566 41.424 24.1599 41.4162 24.1627C41.408 24.166 41.3998 24.1693 41.392 24.1726C41.3838 24.1755 41.3755 24.1788 41.3677 24.182C41.3595 24.1849 41.3513 24.1882 41.3431 24.1911C41.3348 24.1944 41.327 24.1972 41.3188 24.2001C41.3106 24.2034 41.3024 24.2063 41.2946 24.2092C41.2863 24.212 41.2781 24.2153 41.2699 24.2182C41.2617 24.2211 41.2535 24.224 41.2452 24.2268C41.237 24.2297 41.2288 24.2326 41.2206 24.2355C41.2124 24.2383 41.2041 24.2412 41.1959 24.2441C41.1877 24.2465 41.1795 24.2494 41.1713 24.2523C41.163 24.2548 41.1548 24.2581 41.1466 24.2605C41.1384 24.2634 41.1302 24.2659 41.1219 24.2683C41.1137 24.2712 41.1055 24.2741 41.0969 24.2766C41.0891 24.279 41.0804 24.2819 41.0722 24.2844C41.064 24.2868 41.0558 24.2893 41.0471 24.2918C41.0389 24.2942 41.0307 24.2971 41.0225 24.2992C41.0139 24.302 41.0056 24.3041 40.9974 24.3066C40.9892 24.309 40.9806 24.3115 40.9723 24.3139C40.9641 24.3164 40.9555 24.3185 40.9473 24.3209C40.939 24.3234 40.9304 24.3259 40.9222 24.3279C40.914 24.3304 40.9054 24.3324 40.8971 24.3349C40.8885 24.3374 40.8803 24.3394 40.8716 24.3415C40.8634 24.3439 40.8548 24.3456 40.8466 24.348C40.8379 24.3501 40.8297 24.3522 40.8215 24.3542C40.8129 24.3567 40.8047 24.3587 40.796 24.3608C40.7874 24.3628 40.7792 24.3645 40.7705 24.3665C40.7623 24.369 40.7537 24.3706 40.7451 24.3727C40.7368 24.3748 40.7286 24.3764 40.72 24.3785C40.7114 24.3801 40.7031 24.3821 40.6945 24.3838C40.6859 24.3858 40.6777 24.3875 40.669 24.3896C40.6604 24.3912 40.6522 24.3933 40.6435 24.3949C40.6349 24.3965 40.6267 24.3982 40.6181 24.4002C40.6094 24.4019 40.6008 24.4035 40.5926 24.4052C40.5839 24.4068 40.5753 24.4085 40.5671 24.4101C40.5585 24.4117 40.5498 24.4134 40.5412 24.415C40.5326 24.4167 40.5243 24.4183 40.5157 24.4195C40.5071 24.4212 40.4985 24.4228 40.4898 24.4241C40.4816 24.4257 40.473 24.4269 40.4643 24.4286C40.4557 24.4298 40.4471 24.431 40.4384 24.4327C40.4302 24.4339 40.4216 24.4352 40.413 24.4368C40.4043 24.438 40.3957 24.4393 40.3871 24.4405C40.3784 24.4417 40.3702 24.443 40.3616 24.4442C40.3525 24.4454 40.3443 24.4467 40.3357 24.4479C40.3271 24.4491 40.3184 24.4504 40.3098 24.4516C40.3012 24.4528 40.2925 24.4541 40.2839 24.4549C40.2753 24.4561 40.2667 24.4569 40.258 24.4582C40.2494 24.4594 40.2408 24.4602 40.2321 24.4615C40.2235 24.4623 40.2149 24.4631 40.2062 24.4643C40.1976 24.4652 40.189 24.466 40.1803 24.4672C40.1717 24.468 40.1631 24.4689 40.1544 24.4697C40.1458 24.4709 40.1372 24.4713 40.1286 24.4721C40.1199 24.4734 40.1113 24.4738 40.1027 24.4746C40.094 24.4758 40.0854 24.4758 40.0768 24.4767C40.0681 24.4779 40.0595 24.4783 40.0509 24.4787C40.0422 24.4799 40.0336 24.4799 40.0246 24.4808C40.0159 24.482 40.0073 24.482 39.9987 24.4824C39.99 24.4836 39.9814 24.4836 39.9728 24.4841C39.9641 24.4841 39.9555 24.4853 39.9469 24.4857C39.9383 24.4857 39.9292 24.4865 39.9206 24.4869C39.912 24.4869 39.9033 24.4877 39.8947 24.4877C39.8861 24.4877 39.8774 24.489 39.8688 24.489C39.8602 24.489 39.8511 24.4902 39.8425 24.4902C39.8339 24.4902 39.8252 24.4915 39.8166 24.4915C39.808 24.4915 39.7993 24.4927 39.7907 24.4927C39.7821 24.4927 39.773 24.4927 39.7644 24.4927C39.7558 24.4927 39.7471 24.4927 39.7385 24.4927C39.7299 24.4927 39.7212 24.4927 39.7126 24.4927C39.7073 24.4927 39.7023 24.4927 39.6974 24.4927C39.6888 24.4927 39.6801 24.4927 39.6715 24.4927C39.6629 24.4927 39.6538 24.4927 39.6452 24.4927C39.6366 24.4927 39.628 24.4927 39.6193 24.4927C39.6107 24.4927 39.6021 24.4927 39.5934 24.4927C39.5848 24.4927 39.5758 24.4915 39.5671 24.4915C39.5585 24.4915 39.5499 24.4902 39.5412 24.4902C39.5326 24.4902 39.524 24.489 39.5153 24.489C39.5067 24.489 39.4977 24.4877 39.489 24.4877C39.4804 24.4877 39.4718 24.4869 39.4631 24.4869C39.4545 24.4869 39.4459 24.4857 39.4372 24.4853C39.4286 24.4853 39.4196 24.484 39.4109 24.4836C39.4023 24.4836 39.3937 24.4824 39.385 24.482C39.3764 24.4812 39.3678 24.4812 39.3591 24.4803C39.3505 24.4791 39.3419 24.4791 39.3333 24.4783C39.3246 24.4775 39.3156 24.4771 39.307 24.4762C39.2987 24.475 39.2901 24.4746 39.2811 24.4738C39.2724 24.4726 39.2638 24.4721 39.2552 24.4713C39.2465 24.4701 39.2379 24.4697 39.2293 24.4689C39.2206 24.4676 39.212 24.4672 39.2034 24.466C39.1948 24.4651 39.1861 24.4643 39.1775 24.4635C39.1689 24.4619 39.1602 24.4615 39.1516 24.4606C39.143 24.4594 39.1343 24.4582 39.1257 24.4573C39.1171 24.4561 39.1089 24.4549 39.0998 24.4541C39.0912 24.4528 39.083 24.4516 39.0743 24.4504C39.0653 24.4495 39.0571 24.4483 39.0484 24.4467C39.0398 24.4458 39.0312 24.4446 39.0225 24.443C39.0139 24.4417 39.0053 24.4405 38.9966 24.4393C38.988 24.438 38.9798 24.4368 38.9712 24.4352C38.9625 24.4339 38.9539 24.4327 38.9453 24.431C38.9366 24.4298 38.928 24.4286 38.9198 24.4269C38.9112 24.4257 38.9025 24.4241 38.8939 24.4224C38.8853 24.4208 38.8766 24.4195 38.8684 24.4179C38.8598 24.4167 38.8512 24.415 38.8429 24.4134C38.8339 24.4117 38.8257 24.4101 38.817 24.4084C38.8084 24.4068 38.8002 24.4052 38.7916 24.4035C38.7829 24.4019 38.7747 24.4002 38.7661 24.3982C38.7574 24.3969 38.7492 24.3949 38.7406 24.3932C38.732 24.3912 38.7233 24.3896 38.7151 24.3875C38.7065 24.3859 38.6983 24.3838 38.6896 24.3822C38.681 24.3801 38.6728 24.378 38.6641 24.3764C38.6559 24.3744 38.6473 24.3723 38.6387 24.3706C38.6304 24.3686 38.6218 24.3665 38.6136 24.3645C38.605 24.3624 38.5963 24.3604 38.5881 24.3583C38.5795 24.3563 38.5713 24.3542 38.5626 24.3522C38.5544 24.3501 38.5458 24.3476 38.5376 24.3456C38.5293 24.3435 38.5207 24.3415 38.5125 24.339C38.5039 24.337 38.4956 24.3349 38.4874 24.3324C38.4788 24.33 38.4706 24.3279 38.4619 24.3254C38.4537 24.3234 38.4455 24.3209 38.4369 24.3185C38.4286 24.316 38.4204 24.3139 38.4118 24.3115C38.4036 24.309 38.3953 24.3065 38.3867 24.3041C38.3785 24.3016 38.3703 24.2991 38.3621 24.2967C38.3534 24.2942 38.3452 24.2917 38.337 24.2893C38.3288 24.2868 38.3201 24.2844 38.3123 24.2819C38.3037 24.279 38.2955 24.2766 38.2873 24.2737C38.279 24.2712 38.2708 24.2683 38.2626 24.2659C38.2544 24.2634 38.2462 24.2605 38.2375 24.2576C38.2293 24.2552 38.2215 24.2523 38.2129 24.2494C38.2046 24.247 38.1964 24.2441 38.1882 24.2412C38.1804 24.2383 38.1722 24.2355 38.1635 24.2326C38.1553 24.2297 38.1471 24.2268 38.1393 24.224C38.1311 24.2211 38.1229 24.2182 38.1146 24.2149C38.1064 24.212 38.0982 24.2092 38.09 24.2063C38.0818 24.203 38.0739 24.2001 38.0657 24.1972C38.0579 24.1944 38.0497 24.1911 38.0415 24.1882C38.0333 24.1849 38.025 24.182 38.0172 24.1788C38.009 24.1755 38.0008 24.1726 37.993 24.1693C37.9848 24.1664 37.9765 24.1627 37.9687 24.1599C37.9605 24.1566 37.9523 24.1533 37.9445 24.15C37.9363 24.1467 37.9284 24.1434 37.9202 24.1401C37.9124 24.1369 37.9042 24.1332 37.8964 24.1299C37.8882 24.1266 37.8804 24.1233 37.8721 24.1196C37.8643 24.1163 37.8565 24.113 37.8483 24.1093C37.8405 24.106 37.8323 24.1023 37.8245 24.0991C37.8167 24.0958 37.8088 24.0921 37.8006 24.0888C37.7928 24.0851 37.7846 24.0814 37.7768 24.0777C37.769 24.074 37.7612 24.0707 37.7534 24.067C37.7456 24.0637 37.7373 24.06 37.7295 24.0563C37.7217 24.0526 37.7139 24.0489 37.7061 24.0452C37.6983 24.0415 37.6905 24.0374 37.6827 24.0337C37.6749 24.03 37.667 24.0263 37.6592 24.0226C37.651 24.0189 37.6436 24.0152 37.6358 24.0111C37.628 24.0074 37.6202 24.0033 37.6124 23.9996C37.6046 23.9955 37.5968 23.9918 37.589 23.9877C37.5812 23.984 37.5738 23.9799 37.5659 23.9758C37.5581 23.9721 37.5503 23.968 37.5429 23.9639C37.5351 23.9602 37.5273 23.9561 37.5195 23.9519C37.5121 23.9478 37.5043 23.9437 37.4969 23.9396C37.4891 23.9355 37.4817 23.9314 37.4739 23.9273C37.4661 23.9232 37.4587 23.9187 37.4509 23.9145C37.4435 23.9104 37.4361 23.9063 37.4283 23.9018C37.4209 23.8977 37.4131 23.8936 37.4057 23.8891C37.3978 23.885 37.3904 23.8804 37.383 23.8763C37.3752 23.8722 37.3678 23.8677 37.3604 23.8636C37.3526 23.8591 37.3452 23.8546 37.3378 23.8505C37.3304 23.8455 37.323 23.8414 37.3156 23.8369C37.3078 23.8324 37.3004 23.8279 37.293 23.8233C37.2856 23.8192 37.2782 23.8147 37.2708 23.8098C37.2634 23.8057 37.256 23.8011 37.2486 23.7962C37.2412 23.7917 37.2339 23.7872 37.2265 23.7827C37.2191 23.7781 37.2117 23.7732 37.2043 23.7687C37.1973 23.7642 37.1899 23.7592 37.1825 23.7547C37.1751 23.7498 37.1681 23.7453 37.1607 23.7407C37.1533 23.7358 37.1463 23.7313 37.1389 23.7264C37.1315 23.7214 37.1241 23.7169 37.1171 23.712C37.1097 23.707 37.1027 23.7021 37.0953 23.6976C37.0884 23.6927 37.081 23.6877 37.074 23.6828C37.0666 23.6779 37.0596 23.6729 37.0526 23.668C37.0452 23.6631 37.0382 23.6582 37.0308 23.6532C37.0238 23.6483 37.0168 23.6434 37.0099 23.638C37.0029 23.6331 36.9955 23.6282 36.9885 23.6232C36.9815 23.6179 36.9745 23.613 36.9675 23.608C36.9605 23.6027 36.9531 23.5978 36.9466 23.5924C36.9392 23.5875 36.9322 23.5821 36.9252 23.5772C36.9186 23.5719 36.9112 23.5669 36.9046 23.5616C36.8977 23.5563 36.8907 23.5509 36.8837 23.5456C36.8767 23.5406 36.8697 23.5353 36.8627 23.53C36.8561 23.5246 36.8492 23.5193 36.8422 23.5143C36.8356 23.5086 36.8286 23.5037 36.822 23.4979C36.815 23.4926 36.8085 23.4872 36.8015 23.4819C36.7945 23.4765 36.7879 23.4712 36.7813 23.4654C36.7743 23.4601 36.7674 23.4548 36.7608 23.4494C36.7542 23.4437 36.7472 23.4383 36.7406 23.4326C36.7341 23.4272 36.7271 23.4219 36.7205 23.4161C36.7139 23.4108 36.7069 23.405 36.7008 23.3997C36.6942 23.3935 36.6872 23.3882 36.6811 23.3829C36.6741 23.3767 36.6675 23.3714 36.6609 23.3656C36.6543 23.3603 36.6478 23.3545 36.6412 23.3487C36.6346 23.343 36.628 23.3372 36.6215 23.3315C36.6153 23.3257 36.6087 23.32 36.6021 23.3142C36.5956 23.3085 36.5894 23.3027 36.5828 23.297C36.5762 23.2908 36.5701 23.2851 36.5635 23.2793C36.5569 23.2736 36.5508 23.2678 36.5442 23.2616C36.538 23.2559 36.5314 23.2497 36.5253 23.244C36.5187 23.2382 36.5125 23.2321 36.5064 23.2263C36.4998 23.2201 36.4936 23.2144 36.4871 23.2082C36.4809 23.2021 36.4747 23.1963 36.4686 23.1901C36.4624 23.1844 36.4558 23.1782 36.4497 23.1725C36.4435 23.1663 36.4373 23.1602 36.4312 23.154C36.425 23.1478 36.4188 23.1417 36.4127 23.1355C36.4065 23.1297 36.4003 23.1232 36.3942 23.1174C36.388 23.1108 36.3823 23.1047 36.3761 23.0985C36.3699 23.0924 36.3638 23.0862 36.3576 23.08C36.3518 23.0739 36.3457 23.0673 36.3395 23.0611C36.3338 23.055 36.3276 23.0488 36.3218 23.0422C36.3157 23.0361 36.3099 23.0299 36.3038 23.0233C36.298 23.0172 36.2918 23.011 36.2861 23.0044C36.2803 22.9978 36.2742 22.9917 36.2684 22.9851C36.2626 22.9789 36.2565 22.9724 36.2507 22.9658C36.245 22.9596 36.2392 22.9531 36.2335 22.9465C36.2277 22.9403 36.222 22.9337 36.2162 22.9272C36.2105 22.9206 36.2047 22.9144 36.199 22.9079C36.1932 22.9013 36.1874 22.8947 36.1817 22.8881C36.1759 22.8816 36.1706 22.875 36.1648 22.8684C36.1591 22.8618 36.1533 22.8553 36.148 22.8487C36.1422 22.8421 36.1365 22.8351 36.1311 22.8285C36.1254 22.822 36.12 22.8154 36.1143 22.8084C36.1089 22.8018 36.1032 22.7953 36.0978 22.7887C36.0921 22.7817 36.0867 22.7751 36.0814 22.7682C36.0761 22.7616 36.0703 22.7546 36.065 22.748C36.0596 22.7414 36.0543 22.7345 36.0489 22.7275C36.0436 22.7209 36.0378 22.7139 36.0329 22.7069C36.0276 22.7004 36.0218 22.6934 36.0165 22.6864C36.0115 22.6798 36.0062 22.6728 36.0008 22.6658C35.9955 22.6593 35.9902 22.6523 35.9852 22.6453C35.9799 22.6383 35.9745 22.6313 35.9696 22.6243C35.9643 22.6174 35.9589 22.6104 35.954 22.6038C35.9486 22.5964 35.9437 22.5894 35.9384 22.5824C35.9334 22.5754 35.9285 22.5685 35.9232 22.5615C35.9182 22.5545 35.9133 22.5475 35.908 22.5401C35.903 22.5331 35.8981 22.5261 35.8928 22.5192C35.8878 22.5118 35.8829 22.5048 35.8779 22.4978C35.873 22.4904 35.8681 22.4834 35.8632 22.4764C35.8582 22.469 35.8533 22.462 35.8488 22.4546C35.8434 22.4476 35.8389 22.4403 35.834 22.4333C35.829 22.4259 35.8241 22.4189 35.8196 22.4115C35.8147 22.4041 35.8097 22.3971 35.8052 22.3897C35.8003 22.3827 35.7958 22.3753 35.7908 22.3679C35.7863 22.361 35.7818 22.3536 35.7768 22.3462C35.7719 22.3388 35.7674 22.3314 35.7629 22.324C35.7583 22.3166 35.7538 22.3096 35.7489 22.3022C35.7444 22.2944 35.7399 22.2874 35.7353 22.28C35.7308 22.2726 35.7263 22.2652 35.7218 22.2578C35.7172 22.2504 35.7127 22.2426 35.7082 22.2352C35.7037 22.2278 35.6996 22.2204 35.6951 22.213C35.6905 22.2056 35.686 22.1978 35.6815 22.1904C35.6774 22.183 35.6729 22.1756 35.6688 22.1678C35.6642 22.1604 35.6597 22.153 35.6556 22.1452C35.6515 22.1378 35.647 22.1304 35.6429 22.1226C35.6383 22.1152 35.6342 22.1074 35.6301 22.1C35.626 22.0926 35.6219 22.0848 35.6174 22.0774C35.6133 22.0696 35.6092 22.0618 35.605 22.0544C35.6009 22.0466 35.5968 22.0392 35.5927 22.0314C35.5886 22.024 35.5845 22.0162 35.5804 22.0084C35.5763 22.0006 35.5726 21.9932 35.5685 21.9854C35.5644 21.9776 35.5607 21.9698 35.5565 21.9624C35.5524 21.9546 35.5483 21.9468 35.5446 21.939C35.5409 21.9316 35.5368 21.9233 35.5331 21.9155C35.529 21.9077 35.5253 21.9003 35.5212 21.8925C35.5175 21.8847 35.5138 21.8769 35.5101 21.8691C35.5064 21.8609 35.5023 21.8535 35.4986 21.8457C35.4949 21.8379 35.4912 21.8301 35.4875 21.8219C35.4838 21.814 35.4801 21.8062 35.4764 21.7984C35.4727 21.7906 35.4694 21.7824 35.4657 21.7746C35.462 21.7668 35.4583 21.759 35.455 21.7512C35.4513 21.743 35.448 21.7352 35.4443 21.7273C35.4406 21.7191 35.4374 21.7113 35.4337 21.7035C35.4304 21.6957 35.4267 21.6875 35.4234 21.6797C35.4201 21.6715 35.4164 21.6637 35.4131 21.6554C35.4098 21.6476 35.4065 21.6394 35.4028 21.6316C35.4 21.6234 35.3967 21.6156 35.393 21.6074C35.3897 21.5996 35.3864 21.5913 35.3831 21.5835C35.3802 21.5753 35.3765 21.5671 35.3737 21.5593C35.3704 21.5511 35.3671 21.5433 35.3642 21.5351C35.3609 21.5268 35.3576 21.519 35.3547 21.5108C35.3515 21.5026 35.3486 21.4944 35.3453 21.4866C35.342 21.4784 35.3391 21.4701 35.3363 21.4619C35.3334 21.4537 35.3301 21.4455 35.3272 21.4377C35.3243 21.4294 35.3215 21.4212 35.3182 21.413C35.3153 21.4048 35.3124 21.3966 35.3095 21.3884C35.3067 21.3801 35.3038 21.3723 35.3009 21.3641C35.298 21.3555 35.2952 21.3473 35.2927 21.3391C35.2898 21.3312 35.2869 21.323 35.2841 21.3144C35.2816 21.3062 35.2787 21.298 35.2762 21.2902C35.2734 21.2815 35.2705 21.2733 35.268 21.2651C35.2651 21.2569 35.2627 21.2487 35.2598 21.2404C35.2573 21.2322 35.2549 21.2236 35.2524 21.2154C35.2495 21.2072 35.2471 21.1989 35.2446 21.1903C35.2421 21.1821 35.2397 21.1739 35.2372 21.1657C35.2347 21.1574 35.2323 21.1492 35.2298 21.1406C35.2273 21.1324 35.2249 21.1242 35.2224 21.1155C35.2203 21.1073 35.2179 21.0987 35.2154 21.0905C35.2134 21.0822 35.2109 21.0736 35.2084 21.0654C35.2064 21.0572 35.2043 21.0486 35.2019 21.0403C35.1998 21.0321 35.1973 21.0235 35.1953 21.0153C35.1932 21.0066 35.1912 20.9984 35.1887 20.9898C35.1866 20.9816 35.1842 20.973 35.1821 20.9647C35.1801 20.9561 35.1784 20.9479 35.176 20.9397C35.1739 20.931 35.1719 20.9224 35.1698 20.9142C35.1682 20.9056 35.1661 20.8969 35.164 20.8887C35.162 20.8801 35.1603 20.8719 35.1583 20.8632C35.1562 20.855 35.1546 20.8464 35.1525 20.8378C35.1505 20.8295 35.1488 20.8209 35.1472 20.8123C35.1451 20.8037 35.1435 20.7954 35.1418 20.7868C35.1402 20.7786 35.1381 20.77 35.1365 20.7613C35.1349 20.7531 35.1332 20.7445 35.1316 20.7359C35.1299 20.7276 35.1283 20.7186 35.1266 20.7104C35.125 20.7018 35.1233 20.6931 35.1217 20.6849C35.1201 20.6763 35.1184 20.6677 35.1172 20.659C35.1155 20.6504 35.1139 20.6422 35.1127 20.6335C35.111 20.6249 35.1094 20.6163 35.1081 20.6077C35.1065 20.599 35.1053 20.5908 35.104 20.5822C35.1028 20.5736 35.1012 20.5649 35.0999 20.5563C35.0987 20.5477 35.097 20.539 35.0958 20.5308C35.0946 20.5222 35.0933 20.5136 35.0921 20.5049C35.0909 20.4963 35.0896 20.4877 35.0884 20.4791C35.0876 20.4704 35.086 20.4618 35.0851 20.4532C35.0839 20.4445 35.0827 20.4359 35.0814 20.4273C35.0806 20.4187 35.0794 20.4104 35.0785 20.4018C35.0773 20.3928 35.0765 20.3841 35.0753 20.3759C35.0744 20.3673 35.0732 20.3582 35.0724 20.3496C35.0716 20.3414 35.0707 20.3328 35.0699 20.3237C35.0691 20.3155 35.0679 20.3069 35.067 20.2983C35.0662 20.2892 35.0654 20.2806 35.0646 20.272C35.0638 20.2633 35.0629 20.2551 35.0621 20.2461C35.0613 20.2374 35.0609 20.2288 35.0601 20.2202C35.0592 20.2116 35.0588 20.2029 35.058 20.1943C35.0576 20.1857 35.0568 20.177 35.0559 20.1684C35.0555 20.1594 35.0547 20.1512 35.0543 20.1425C35.0535 20.1335 35.0535 20.1249 35.0527 20.1162C35.0522 20.1076 35.0518 20.099 35.0514 20.0903C35.0506 20.0817 35.0502 20.0731 35.0498 20.064C35.0494 20.0554 35.049 20.0468 35.0486 20.0382C35.0481 20.0295 35.0481 20.0209 35.0477 20.0123C35.0473 20.0036 35.0473 19.995 35.0469 19.9864C35.0465 19.9778 35.0465 19.9687 35.0461 19.9601C35.0457 19.9515 35.0457 19.9428 35.0457 19.9342C35.0453 19.9256 35.0453 19.9169 35.0448 19.9083C35.0448 19.8993 35.0448 19.8907 35.0448 19.882C35.0448 19.8734 35.0444 19.8648 35.0444 19.8561C35.0444 19.8512 35.0444 19.8463 35.0444 19.8409C35.0444 19.8323 35.0444 19.8237 35.0444 19.815C35.0444 19.8064 35.0444 19.7978 35.0448 19.7892C35.0448 19.7801 35.0448 19.7715 35.0453 19.7629C35.0453 19.7542 35.0457 19.7456 35.0457 19.737C35.0461 19.7283 35.0461 19.7197 35.0465 19.7111C35.0465 19.702 35.0469 19.6934 35.0473 19.6848C35.0477 19.6762 35.0477 19.6675 35.0481 19.6589C35.0486 19.6503 35.049 19.6416 35.0494 19.6326C35.0498 19.624 35.0502 19.6154 35.0506 19.6067C35.051 19.5981 35.0514 19.5895 35.0518 19.5808C35.0522 19.5722 35.0527 19.5636 35.0531 19.5549C35.0539 19.5463 35.0543 19.5373 35.0551 19.5287C35.0555 19.52 35.0564 19.5114 35.0568 19.5028C35.0576 19.4941 35.058 19.4855 35.0588 19.4769C35.0596 19.4682 35.0601 19.4596 35.0609 19.451C35.0617 19.442 35.0625 19.4337 35.0629 19.4251C35.0638 19.4161 35.0646 19.4074 35.0654 19.3992C35.0662 19.3902 35.0675 19.382 35.0683 19.3729C35.0691 19.3643 35.0699 19.3561 35.0707 19.3474C35.0716 19.3384 35.0728 19.3298 35.0736 19.3212C35.0744 19.3125 35.0757 19.3039 35.0765 19.2953C35.0777 19.287 35.0786 19.2784 35.0798 19.2694C35.081 19.2612 35.0818 19.2525 35.0831 19.2439C35.0843 19.2353 35.0851 19.2266 35.0864 19.218C35.0876 19.2094 35.0888 19.2008 35.0901 19.1921C35.0913 19.1835 35.0925 19.1749 35.0938 19.1662C35.095 19.1576 35.0962 19.149 35.0975 19.1408C35.0987 19.1321 35.1003 19.1235 35.1016 19.1149C35.1028 19.1063 35.104 19.0976 35.1057 19.089C35.1073 19.0804 35.1086 19.0721 35.1102 19.0635C35.1114 19.0549 35.1131 19.0463 35.1143 19.0376C35.116 19.0294 35.1176 19.0208 35.1188 19.0122C35.1205 19.0035 35.1221 18.9949 35.1238 18.9867C35.1254 18.9781 35.1271 18.9694 35.1287 18.9612C35.1303 18.9526 35.132 18.9439 35.1336 18.9353C35.1353 18.9267 35.1369 18.9185 35.1386 18.9098C35.1402 18.9012 35.1423 18.893 35.1439 18.8844C35.1455 18.8757 35.1476 18.8675 35.1492 18.8589C35.1513 18.8507 35.1529 18.842 35.155 18.8334C35.1566 18.8248 35.1587 18.8166 35.1607 18.8079C35.1624 18.7997 35.1644 18.7911 35.1665 18.7829C35.1686 18.7743 35.1706 18.766 35.1727 18.7574C35.1747 18.7488 35.1768 18.7406 35.1784 18.7319C35.1809 18.7237 35.1829 18.7151 35.185 18.7069C35.1871 18.6982 35.1891 18.69 35.1916 18.6818C35.1936 18.6732 35.1957 18.665 35.1977 18.6563C35.2002 18.6481 35.2023 18.6395 35.2047 18.6313C35.2068 18.623 35.2092 18.6144 35.2117 18.6062C35.2138 18.5976 35.2162 18.5893 35.2183 18.5811C35.2208 18.5725 35.2232 18.5643 35.2257 18.5561C35.2282 18.5474 35.2306 18.5392 35.2327 18.531C35.2351 18.5224 35.2376 18.5142 35.2401 18.5059C35.243 18.4977 35.2454 18.4895 35.2479 18.4809C35.2504 18.4727 35.2528 18.4644 35.2557 18.4562C35.2582 18.4476 35.2606 18.4398 35.2635 18.4311C35.266 18.4229 35.2684 18.4147 35.2713 18.4065C35.2738 18.3983 35.2767 18.3901 35.2795 18.3818C35.282 18.3736 35.2849 18.3654 35.2878 18.3572C35.2902 18.3486 35.2931 18.3407 35.296 18.3325C35.2988 18.3243 35.3017 18.3161 35.3046 18.3075C35.3075 18.2997 35.3104 18.2914 35.3132 18.2832C35.3161 18.275 35.319 18.2668 35.3219 18.2586C35.3247 18.2504 35.328 18.2421 35.3309 18.2343C35.3342 18.2261 35.3371 18.2179 35.34 18.2097C35.3428 18.2019 35.3461 18.1937 35.349 18.1854C35.3523 18.1772 35.3556 18.169 35.3584 18.1612C35.3617 18.153 35.365 18.1452 35.3679 18.1369C35.3712 18.1287 35.3745 18.1209 35.3774 18.1127C35.3811 18.1045 35.3839 18.0967 35.3872 18.0885C35.3905 18.0807 35.3938 18.0724 35.3971 18.0646C35.4004 18.0564 35.4037 18.0486 35.4073 18.0404C35.4106 18.0326 35.4139 18.0244 35.4172 18.0161C35.4209 18.0083 35.4242 18.0005 35.4275 17.9923C35.4312 17.9845 35.4345 17.9767 35.4382 17.9685C35.4415 17.9607 35.4452 17.9529 35.4485 17.9447C35.4522 17.9368 35.4559 17.929 35.4596 17.9208C35.4628 17.913 35.4665 17.9052 35.4702 17.8974C35.4735 17.8892 35.4772 17.8818 35.4809 17.874C35.4846 17.8658 35.4883 17.858 35.492 17.8501C35.4957 17.8423 35.4998 17.8345 35.5035 17.8267C35.5072 17.8189 35.5109 17.8111 35.5146 17.8033C35.5183 17.7955 35.5224 17.7877 35.5261 17.7799C35.5302 17.7721 35.5339 17.7643 35.5381 17.7565C35.5418 17.7487 35.5455 17.7413 35.5496 17.733C35.5537 17.7256 35.5574 17.7178 35.5615 17.71C35.5652 17.7022 35.5697 17.6948 35.5734 17.687C35.5775 17.6792 35.5816 17.6714 35.5857 17.664C35.5894 17.6562 35.594 17.6488 35.5977 17.641C35.6022 17.6332 35.6059 17.6258 35.61 17.618C35.6145 17.6106 35.6186 17.6028 35.6227 17.595C35.6268 17.5876 35.6309 17.5802 35.6355 17.5724C35.6396 17.565 35.6437 17.5572 35.6482 17.5498C35.6523 17.5424 35.6568 17.5346 35.6609 17.5272C35.6651 17.5198 35.6696 17.512 35.6741 17.5046C35.6782 17.4972 35.6827 17.4894 35.6872 17.482C35.6914 17.4746 35.6959 17.4672 35.7004 17.4598C35.7049 17.452 35.7094 17.4446 35.714 17.4372C35.7185 17.4302 35.723 17.4224 35.7275 17.415C35.7316 17.4076 35.7366 17.4002 35.7411 17.3928C35.7456 17.3854 35.7501 17.378 35.7546 17.3706C35.7596 17.3636 35.7641 17.3558 35.7686 17.3489C35.7731 17.3415 35.7781 17.3341 35.7826 17.3267C35.7875 17.3197 35.7921 17.3123 35.797 17.3049C35.8015 17.2979 35.8064 17.2905 35.811 17.2831C35.8159 17.2761 35.8208 17.2687 35.8253 17.2613C35.8303 17.2543 35.8352 17.247 35.8401 17.24C35.8447 17.2326 35.85 17.2256 35.8545 17.2182C35.8595 17.2112 35.8644 17.2042 35.8693 17.1968C35.8743 17.1894 35.8792 17.1824 35.8841 17.1755C35.889 17.1681 35.894 17.1611 35.8993 17.1541C35.9043 17.1471 35.9092 17.1401 35.9145 17.1327C35.9195 17.1257 35.9244 17.1187 35.9297 17.1118C35.9347 17.1048 35.94 17.0978 35.9449 17.0908C35.9499 17.0838 35.9552 17.0768 35.9602 17.0699C35.9655 17.0629 35.9708 17.0559 35.9758 17.0489C35.9811 17.0419 35.9865 17.0349 35.9918 17.0279C35.9967 17.021 36.0021 17.0144 36.0074 17.0074C36.0128 17.0004 36.0181 16.9934 36.0234 16.9868C36.0288 16.9799 36.0341 16.9729 36.0395 16.9663C36.0448 16.9593 36.0502 16.9527 36.0555 16.9458C36.0609 16.9392 36.0666 16.9322 36.0719 16.9256C36.0773 16.9186 36.0826 16.9121 36.0884 16.9055C36.0937 16.8985 36.0991 16.8919 36.1048 16.885C36.1102 16.8784 36.1159 16.8718 36.1213 16.8652C36.127 16.8582 36.1324 16.8517 36.1381 16.8451C36.1435 16.8385 36.1492 16.8319 36.155 16.8254C36.1603 16.8188 36.1661 16.8122 36.1718 16.8056C36.1776 16.7991 36.1829 16.7925 36.1891 16.7859C36.1948 16.7794 36.2002 16.7728 36.2059 16.7662C36.2117 16.7596 36.2174 16.7531 36.2232 16.7465C36.2289 16.7403 36.2351 16.7337 36.2409 16.7272C36.2466 16.7206 36.2524 16.7144 36.2581 16.7079C36.2639 16.7013 36.2701 16.6951 36.2758 16.689C36.2816 16.6824 36.2873 16.6758 36.2935 16.6696C36.2992 16.6631 36.3054 16.6569 36.3116 16.6507C36.3173 16.6446 36.3235 16.638 36.3292 16.6318C36.335 16.6253 36.3412 16.6191 36.3473 16.6129C36.3535 16.6068 36.3592 16.6006 36.3654 16.5944C36.3716 16.5883 36.3777 16.5817 36.3835 16.5755C36.3896 16.5694 36.3958 16.5632 36.402 16.5571C36.4081 16.5509 36.4143 16.5447 36.4205 16.5386C36.4266 16.5328 36.4328 16.5266 36.439 16.5205C36.4451 16.5143 36.4513 16.5086 36.4579 16.5024C36.4636 16.4962 36.4702 16.4901 36.4764 16.4843C36.4825 16.4782 36.4891 16.4724 36.4953 16.4662C36.5014 16.4601 36.5076 16.4543 36.5142 16.4482C36.5204 16.4424 36.5269 16.4367 36.5331 16.4305C36.5397 16.4248 36.5458 16.419 36.5524 16.4128C36.5586 16.4071 36.5652 16.4013 36.5713 16.3956C36.5783 16.3894 36.5845 16.3837 36.591 16.3779C36.5972 16.3722 36.6038 16.3664 36.6104 16.3607C36.6169 16.3549 36.6235 16.3491 36.6301 16.3434C36.6363 16.3376 36.6428 16.3319 36.6494 16.3265C36.656 16.3208 36.6626 16.315 36.6691 16.3093C36.6757 16.3035 36.6823 16.2978 36.6889 16.2924C36.6958 16.2867 36.7024 16.2813 36.709 16.2756C36.7156 16.2698 36.7222 16.2645 36.7291 16.2592C36.7357 16.2534 36.7427 16.2481 36.7489 16.2423C36.7559 16.237 36.7624 16.2316 36.7694 16.2259C36.776 16.2205 36.783 16.2148 36.7896 16.2098C36.7965 16.2041 36.8031 16.1988 36.8097 16.1934C36.8167 16.1877 36.8237 16.1827 36.8302 16.1774C36.8372 16.172 36.8442 16.1667 36.8508 16.1614C36.8578 16.156 36.8648 16.1507 36.8718 16.1453C36.8787 16.14 36.8857 16.1351 36.8923 16.1297C36.8993 16.1244 36.9063 16.119 36.9133 16.1141C36.9203 16.1088 36.9272 16.1034 36.9342 16.0985C36.9412 16.0932 36.9482 16.0882 36.9552 16.0829C36.9622 16.0779 36.9692 16.073 36.9762 16.0677C36.9831 16.0627 36.9905 16.0578 36.9975 16.0529C37.0045 16.0475 37.0115 16.0426 37.0189 16.0377C37.0259 16.0328 37.0329 16.0278 37.0399 16.0229C37.0473 16.0175 37.0542 16.0126 37.0612 16.0077C37.0686 16.0028 37.0756 15.9978 37.083 15.9933C37.09 15.9884 37.0974 15.9834 37.1044 15.9785C37.1118 15.9736 37.1188 15.9691 37.1262 15.9641C37.1336 15.9596 37.1406 15.9547 37.1479 15.9498C37.1553 15.9448 37.1623 15.9403 37.1697 15.9354C37.1771 15.9309 37.1845 15.9263 37.1915 15.9214C37.1989 15.9169 37.2063 15.9124 37.2137 15.9074C37.2211 15.9029 37.2285 15.8984 37.2359 15.8935C37.2433 15.8893 37.2503 15.8848 37.2577 15.8799C37.2655 15.8754 37.2729 15.8709 37.2803 15.8663C37.2877 15.8618 37.2951 15.8573 37.3025 15.8528C37.3099 15.8487 37.3173 15.8442 37.3247 15.8396C37.3325 15.8351 37.3399 15.8306 37.3473 15.8265C37.3547 15.822 37.3621 15.8174 37.3699 15.8133C37.3773 15.8092 37.3847 15.8047 37.3925 15.8002C37.3999 15.7961 37.4073 15.792 37.4151 15.7875C37.4225 15.7833 37.4303 15.7792 37.4377 15.7747C37.4455 15.7706 37.4529 15.7665 37.4607 15.7624C37.4681 15.7579 37.4759 15.7538 37.4833 15.7496C37.4911 15.7455 37.4985 15.7414 37.5064 15.7373C37.5142 15.7332 37.522 15.7291 37.5294 15.725C37.5372 15.7213 37.5446 15.7172 37.5524 15.7131C37.5602 15.709 37.568 15.7053 37.5754 15.7012C37.5832 15.6971 37.591 15.6934 37.5988 15.6892C37.6066 15.6855 37.6144 15.6814 37.6223 15.6777C37.6296 15.6736 37.6379 15.6703 37.6453 15.6662C37.6531 15.6625 37.6613 15.6588 37.6687 15.6547C37.6769 15.651 37.6847 15.6473 37.6925 15.6432C37.7003 15.6395 37.7082 15.6358 37.716 15.6325C37.7238 15.6288 37.7316 15.6251 37.7394 15.6214C37.7472 15.6178 37.755 15.614 37.7632 15.6103C37.771 15.6067 37.7788 15.6034 37.7867 15.5997C37.7949 15.5964 37.8027 15.5927 37.8109 15.589C37.8187 15.5857 37.8265 15.582 37.8347 15.5787C37.8426 15.575 37.8504 15.5717 37.8586 15.5684C37.8664 15.5647 37.8742 15.5615 37.8824 15.5582C37.8902 15.5545 37.8984 15.5512 37.9067 15.5479C37.9145 15.5446 37.9227 15.5413 37.9305 15.538C37.9387 15.5347 37.9465 15.5315 37.9548 15.5282C37.9626 15.5249 37.9708 15.5216 37.9786 15.5187C37.9868 15.5154 37.995 15.5121 38.0028 15.5089C38.0111 15.5056 38.0193 15.5027 38.0275 15.4994C38.0353 15.4965 38.0435 15.4932 38.0517 15.49C38.06 15.4871 38.0678 15.4842 38.076 15.4813C38.0842 15.478 38.0924 15.4752 38.1002 15.4723C38.1085 15.4694 38.1167 15.4661 38.1249 15.4633C38.1331 15.4604 38.1414 15.4575 38.1496 15.4546C38.1578 15.4517 38.166 15.4489 38.1742 15.446C38.1825 15.4431 38.1907 15.4402 38.1989 15.4374C38.2071 15.4349 38.2153 15.432 38.2236 15.4291C38.2318 15.4263 38.24 15.4238 38.2482 15.4209C38.2564 15.4181 38.2647 15.4152 38.2729 15.4127C38.2811 15.4102 38.2893 15.4074 38.2975 15.4049C38.3062 15.4024 38.3144 15.3996 38.3226 15.3971C38.3308 15.3946 38.3395 15.3922 38.3477 15.3893C38.3559 15.3872 38.3641 15.3844 38.3723 15.3823C38.381 15.3794 38.3892 15.377 38.3974 15.3749C38.4056 15.3724 38.4143 15.37 38.4225 15.3675C38.4307 15.365 38.4393 15.363 38.4475 15.3605C38.4558 15.3581 38.464 15.3556 38.4726 15.3535C38.4812 15.3511 38.4895 15.349 38.4977 15.3466C38.5059 15.3441 38.5145 15.342 38.5232 15.34C38.5314 15.3375 38.54 15.3355 38.5482 15.3334C38.5565 15.3309 38.5651 15.3289 38.5737 15.3268C38.5819 15.3248 38.5906 15.3227 38.5988 15.3207C38.6074 15.3186 38.6156 15.3166 38.6243 15.3145C38.6325 15.3125 38.6411 15.3108 38.6493 15.3088C38.658 15.3067 38.6666 15.3046 38.6748 15.303C38.6835 15.301 38.6917 15.2989 38.7003 15.2973C38.7085 15.2956 38.7172 15.2935 38.7258 15.2919C38.7344 15.2899 38.7427 15.2882 38.7513 15.2862C38.7599 15.2845 38.7681 15.2829 38.7768 15.2812C38.7854 15.2796 38.7936 15.2775 38.8022 15.2759C38.8109 15.2742 38.8195 15.2726 38.8277 15.271C38.8364 15.2693 38.845 15.2677 38.8536 15.266C38.8622 15.2648 38.8705 15.2631 38.8791 15.2615C38.8877 15.2599 38.8964 15.2586 38.905 15.257C38.9136 15.2553 38.9218 15.2541 38.9305 15.2529C38.9391 15.2512 38.9477 15.25 38.956 15.2484C38.965 15.2471 38.9732 15.2459 38.9819 15.2447C38.9905 15.2434 38.9991 15.2422 39.0077 15.2405C39.0164 15.2393 39.025 15.2381 39.0332 15.2369C39.0419 15.2352 39.0505 15.234 39.0591 15.2332C39.0677 15.2319 39.0764 15.2307 39.085 15.2295C39.0936 15.2282 39.1023 15.2274 39.1109 15.2262C39.1195 15.2249 39.1282 15.2241 39.1368 15.2229C39.1454 15.2216 39.1541 15.2208 39.1627 15.22C39.1709 15.2188 39.18 15.2179 39.1886 15.2171C39.1972 15.2159 39.2058 15.2151 39.2141 15.2143C39.2231 15.213 39.2317 15.2126 39.2404 15.2114C39.249 15.2106 39.2576 15.2097 39.2663 15.2089C39.2749 15.2081 39.2835 15.2077 39.2922 15.2069C39.3008 15.2056 39.3094 15.2052 39.3181 15.2044C39.3267 15.2032 39.3353 15.2032 39.3439 15.2023C39.3526 15.2015 39.3612 15.2011 39.3698 15.2003C39.3785 15.1995 39.3875 15.1995 39.3961 15.1986C39.4048 15.1974 39.4134 15.1974 39.422 15.197C39.4307 15.197 39.4393 15.1958 39.4479 15.1958C39.4566 15.1958 39.4656 15.1945 39.4742 15.1945C39.4829 15.1945 39.4915 15.1933 39.5001 15.1933C39.5088 15.1933 39.5174 15.1921 39.526 15.1921C39.5347 15.1921 39.5433 15.1908 39.5519 15.1908C39.561 15.1908 39.5696 15.19 39.5782 15.19C39.5868 15.19 39.5955 15.1888 39.6041 15.1888C39.6127 15.1884 39.6218 15.1884 39.6304 15.1888C39.639 15.1884 39.6477 15.1884 39.6563 15.1888C39.6649 15.1884 39.6736 15.1884 39.6822 15.1888C39.6875 15.1888 39.6925 15.1888 39.6974 15.1888C39.706 15.1884 39.7147 15.1884 39.7233 15.1888C39.7319 15.1884 39.7406 15.1884 39.7492 15.1888C39.7582 15.1884 39.7669 15.1884 39.7755 15.1888C39.7841 15.1884 39.7928 15.1884 39.8014 15.1888C39.81 15.1888 39.8191 15.19 39.8277 15.19C39.8363 15.19 39.845 15.1908 39.8536 15.1908C39.8622 15.1908 39.8709 15.1921 39.8795 15.1921C39.8881 15.1921 39.8972 15.1933 39.9058 15.1933C39.9144 15.1933 39.9231 15.1945 39.9317 15.1945C39.9403 15.1945 39.9489 15.1958 39.958 15.1958C39.9666 15.1958 39.9748 15.1974 39.9835 15.1974C39.9925 15.1974 40.0011 15.1986 40.0098 15.199C40.0184 15.2003 40.027 15.2003 40.0357 15.2011C40.0443 15.2023 40.0529 15.2023 40.0616 15.2032C40.0702 15.204 40.0788 15.2044 40.0875 15.2052C40.0965 15.2064 40.1047 15.2069 40.1133 15.2077C40.1224 15.2085 40.131 15.2089 40.1396 15.2097C40.1483 15.2114 40.1569 15.2118 40.1655 15.2126C40.1742 15.2134 40.1828 15.2142 40.1914 15.2151C40.2001 15.2163 40.2087 15.2171 40.2173 15.2179C40.226 15.2192 40.2346 15.22 40.2432 15.2208C40.2519 15.2221 40.2605 15.2229 40.2691 15.2241C40.2777 15.2249 40.2864 15.2262 40.295 15.2274C40.3032 15.2286 40.3123 15.2295 40.3205 15.2307C40.3291 15.2319 40.3378 15.2331 40.3464 15.2344C40.355 15.2352 40.3636 15.2368 40.3723 15.2381C40.3809 15.2389 40.3895 15.2405 40.3982 15.2418C40.4064 15.243 40.415 15.2442 40.4236 15.2459C40.4323 15.2471 40.4409 15.2488 40.4495 15.25C40.4582 15.2516 40.4664 15.2529 40.475 15.2541C40.4837 15.2557 40.4923 15.257 40.5009 15.2586C40.5096 15.2603 40.5178 15.2615 40.5264 15.2631C40.535 15.2648 40.5437 15.266 40.5523 15.2677C40.5605 15.2693 40.5691 15.271 40.5778 15.2726C40.586 15.2742 40.5946 15.2759 40.6033 15.2775C40.6115 15.2792 40.6201 15.2808 40.6287 15.2829C40.6374 15.2845 40.6456 15.2862 40.6542 15.2882C40.6629 15.2899 40.6711 15.2919 40.6797 15.2936C40.6883 15.2956 40.6966 15.2972 40.7052 15.2993C40.7138 15.3009 40.722 15.303 40.7307 15.3051C40.7393 15.3067 40.7475 15.3088 40.7562 15.3108C40.7644 15.3125 40.773 15.3145 40.7812 15.3166C40.7899 15.3186 40.7981 15.3207 40.8067 15.3227C40.8149 15.3248 40.8236 15.3268 40.8322 15.3293C40.8404 15.3314 40.8486 15.3334 40.8573 15.3355C40.8659 15.3375 40.8741 15.3396 40.8823 15.342C40.891 15.3445 40.8992 15.3466 40.9074 15.3486C40.916 15.3511 40.9243 15.3535 40.9325 15.3556C40.9411 15.3581 40.9493 15.3601 40.958 15.3626C40.9662 15.3651 40.9744 15.3675 40.983 15.37C40.9912 15.3724 40.9995 15.3749 41.0081 15.377C41.0163 15.3794 41.0245 15.3819 41.0328 15.3844C41.041 15.3868 41.0496 15.3893 41.0578 15.3918C41.066 15.3946 41.0743 15.3971 41.0825 15.3996C41.0911 15.402 41.0993 15.4049 41.1076 15.4074C41.1158 15.4098 41.124 15.4127 41.1322 15.4152C41.1404 15.4181 41.1491 15.4209 41.1569 15.4234C41.1651 15.4263 41.1737 15.4291 41.1819 15.4316C41.1902 15.4345 41.1984 15.4374 41.2066 15.4402C41.2148 15.4431 41.2231 15.446 41.2313 15.4489C41.2391 15.4513 41.2473 15.4542 41.2555 15.4575C41.2637 15.4604 41.272 15.4633 41.2802 15.4661C41.2884 15.469 41.2966 15.4719 41.3048 15.4752C41.3126 15.478 41.3209 15.4809 41.3291 15.4842C41.3373 15.4871 41.3451 15.49 41.3533 15.4932C41.3616 15.4965 41.3698 15.4994 41.3776 15.5023C41.3858 15.5056 41.394 15.5089 41.4018 15.5122C41.4101 15.515 41.4183 15.5183 41.4261 15.5216C41.4343 15.5249 41.4425 15.5282 41.4503 15.5315C41.4586 15.5347 41.4664 15.538 41.4746 15.5413C41.4824 15.5446 41.4906 15.5479 41.4984 15.5512C41.5062 15.5545 41.5145 15.5582 41.5227 15.5615C41.5305 15.5647 41.5387 15.568 41.5465 15.5717C41.5543 15.575 41.5621 15.5787 41.5703 15.5824C41.5782 15.5857 41.5864 15.589 41.5942 15.5927C41.602 15.5964 41.6098 15.6001 41.618 15.6034C41.6258 15.6071 41.6336 15.6108 41.6415 15.614C41.6493 15.6177 41.6575 15.6215 41.6653 15.6251C41.6731 15.6288 41.6809 15.6325 41.6887 15.6362C41.6965 15.6399 41.7043 15.6436 41.7121 15.6473C41.72 15.651 41.7282 15.6547 41.7356 15.6588C41.7434 15.6625 41.7516 15.6662 41.759 15.6703C41.7668 15.674 41.7746 15.6777 41.7824 15.6818C41.7902 15.686 41.798 15.6897 41.8059 15.6938C41.8133 15.6975 41.8211 15.7016 41.8289 15.7057C41.8367 15.7094 41.8445 15.7135 41.8523 15.7176C41.8597 15.7213 41.8675 15.7254 41.8749 15.7295C41.8827 15.7336 41.8905 15.7377 41.8979 15.7418C41.9057 15.7459 41.9131 15.7501 41.9209 15.7542C41.9287 15.7583 41.9361 15.7624 41.944 15.7665C41.9514 15.771 41.9592 15.7751 41.9666 15.7792C41.974 15.7833 41.9818 15.7879 41.9892 15.7924C41.997 15.7965 42.0044 15.8006 42.0122 15.8051C42.0192 15.8092 42.027 15.8137 42.0344 15.8179C42.0422 15.8224 42.0496 15.8269 42.057 15.831C42.0644 15.8355 42.0718 15.84 42.0796 15.8446C42.087 15.8487 42.0944 15.8532 42.1018 15.8577C42.1092 15.8622 42.1166 15.8667 42.124 15.8713C42.1314 15.8758 42.1388 15.8803 42.1462 15.8848C42.1536 15.8894 42.161 15.8943 42.1684 15.8988C42.1758 15.9033 42.1832 15.9078 42.1906 15.9128C42.1975 15.9173 42.2049 15.9218 42.2123 15.9267C42.2197 15.9313 42.2267 15.9362 42.2341 15.9407C42.2415 15.9456 42.2485 15.9502 42.2559 15.9551C42.2633 15.96 42.2707 15.9645 42.2777 15.9695C42.2851 15.9744 42.2921 15.9789 42.2991 15.9839C42.3065 15.9888 42.3139 15.9937 42.3208 15.9986C42.3278 16.0036 42.3352 16.0085 42.3426 16.013C42.3496 16.0184 42.3566 16.0233 42.3636 16.0282C42.371 16.0332 42.378 16.0381 42.385 16.0434C42.3924 16.0484 42.3993 16.0533 42.4063 16.0582C42.4133 16.0636 42.4203 16.0685 42.4273 16.0734C42.4343 16.0788 42.4413 16.0837 42.4483 16.0886C42.4557 16.094 42.4626 16.0993 42.4692 16.1043C42.4766 16.1096 42.4832 16.1145 42.4902 16.1199C42.4972 16.1252 42.5041 16.1305 42.5111 16.1355C42.5181 16.1408 42.5251 16.1462 42.5317 16.1515C42.5387 16.1568 42.5457 16.1622 42.5522 16.1671C42.5592 16.1729 42.5662 16.1778 42.5728 16.1835C42.5798 16.1885 42.5868 16.1938 42.5933 16.1996C42.6003 16.2049 42.6069 16.2103 42.6139 16.2156C42.6205 16.2214 42.627 16.2267 42.634 16.232C42.6406 16.2378 42.6476 16.2431 42.6542 16.2489C42.6607 16.2542 42.6673 16.2596 42.6743 16.2653C42.6809 16.2707 42.6875 16.2764 42.694 16.2818C42.7006 16.2875 42.7072 16.2928 42.7138 16.2986C42.7208 16.3044 42.7273 16.3101 42.7339 16.3155C42.7405 16.3212 42.7471 16.3274 42.7536 16.3327C42.7598 16.3385 42.7668 16.3442 42.7734 16.35C42.7795 16.3557 42.7861 16.3615 42.7927 16.3672C42.7993 16.373 42.8054 16.3787 42.812 16.3845C42.8186 16.3902 42.8247 16.396 42.8313 16.4022C42.8379 16.4079 42.844 16.4136 42.8506 16.4198C42.8568 16.4256 42.8634 16.4313 42.8695 16.4375C42.8761 16.4432 42.8823 16.449 42.8884 16.4552C42.895 16.4609 42.9012 16.4671 42.9078 16.4732C42.9139 16.479 42.9201 16.4852 42.9263 16.4909C42.9324 16.4971 42.939 16.5032 42.9452 16.509C42.9513 16.5151 42.9575 16.5213 42.9637 16.5275C42.9698 16.5332 42.976 16.5398 42.9821 16.546C42.9883 16.5517 42.9945 16.5579 43.0006 16.564C43.0064 16.5702 43.0126 16.5768 43.0187 16.5825C43.0249 16.5891 43.0311 16.5953 43.0368 16.6014C43.043 16.6076 43.0491 16.6138 43.0549 16.6199C43.0611 16.6265 43.0672 16.6327 43.073 16.6392C43.0791 16.6454 43.0849 16.6516 43.0911 16.6581C43.0968 16.6643 43.103 16.6705 43.1087 16.677C43.1145 16.6832 43.1207 16.6898 43.1264 16.6959C43.1322 16.7025 43.1379 16.7087 43.1441 16.7152C43.1498 16.7218 43.1556 16.7284 43.1613 16.7346C43.1671 16.7411 43.1729 16.7477 43.1786 16.7543C43.1844 16.7609 43.1901 16.767 43.1959 16.7736C43.2016 16.7802 43.2074 16.7867 43.2131 16.7933C43.2189 16.7999 43.2242 16.8065 43.23 16.813C43.2357 16.8196 43.2415 16.8262 43.2468 16.8328C43.2526 16.8393 43.2583 16.8459 43.2637 16.8529C43.2694 16.8595 43.2748 16.8661 43.2805 16.8726C43.2859 16.8796 43.2916 16.8862 43.297 16.8928C43.3023 16.8993 43.3081 16.9063 43.3134 16.9129C43.3188 16.9199 43.3241 16.9264 43.3299 16.9334C43.3352 16.94 43.3405 16.947 43.3459 16.9536C43.3512 16.9606 43.3566 16.9671 43.3619 16.9741C43.3677 16.9811 43.373 16.9881 43.3779 16.9951C43.3833 17.0016 43.3886 17.0086 43.394 17.0156C43.3993 17.0222 43.4042 17.0292 43.4096 17.0362C43.4149 17.0431 43.4203 17.0501 43.4252 17.0571C43.4306 17.0637 43.4359 17.0711 43.4408 17.0777C43.4462 17.0851 43.4511 17.0916 43.4564 17.099C43.4614 17.106 43.4667 17.113 43.4717 17.12C43.4766 17.127 43.4815 17.134 43.4869 17.1409C43.4918 17.1483 43.4967 17.1553 43.5021 17.1623C43.507 17.1697 43.5119 17.1767 43.5169 17.1837C43.5218 17.1907 43.5267 17.1981 43.5317 17.205C43.5366 17.2124 43.5415 17.2194 43.5465 17.2268C43.551 17.2338 43.5559 17.2408 43.5608 17.2482C43.5658 17.2552 43.5703 17.2626 43.5752 17.27C43.5802 17.2769 43.5851 17.2843 43.5896 17.2917C43.5945 17.2987 43.5991 17.3061 43.604 17.3135C43.6085 17.3205 43.6135 17.3279 43.618 17.3353C43.6225 17.3427 43.6274 17.3501 43.6319 17.3575C43.6365 17.3649 43.641 17.3719 43.6459 17.3793C43.6504 17.3867 43.655 17.394 43.6595 17.4014C43.664 17.4088 43.6685 17.4162 43.673 17.4236C43.6776 17.431 43.6821 17.4384 43.6866 17.4462C43.6911 17.4536 43.6952 17.461 43.6998 17.4684C43.7043 17.4758 43.7088 17.4832 43.7133 17.491C43.7174 17.4984 43.722 17.5058 43.7261 17.5132C43.7306 17.521 43.7347 17.5284 43.7392 17.5358C43.7433 17.5432 43.7478 17.551 43.752 17.5584C43.7565 17.5662 43.7606 17.5736 43.7647 17.5814C43.7692 17.5888 43.7729 17.5966 43.777 17.604C43.7815 17.6118 43.7857 17.6192 43.7898 17.627C43.7939 17.6344 43.798 17.6422 43.8021 17.65C43.8062 17.6574 43.8103 17.6652 43.8144 17.673C43.8181 17.6804 43.8222 17.6883 43.8263 17.6961C43.8305 17.7039 43.8346 17.7117 43.8383 17.7191C43.8424 17.7269 43.8461 17.7347 43.8502 17.7425C43.8543 17.7499 43.858 17.7581 43.8617 17.7655C43.8658 17.7733 43.8695 17.7811 43.8736 17.7889C43.8773 17.7967 43.881 17.8045 43.8847 17.8123C43.8884 17.8201 43.8925 17.828 43.8962 17.8358C43.8999 17.8436 43.9036 17.8514 43.9073 17.8592C43.911 17.8674 43.9147 17.8752 43.9184 17.883C43.9217 17.8908 43.9254 17.8986 43.9291 17.9064C43.9328 17.9147 43.9365 17.9225 43.9402 17.9303C43.9435 17.9385 43.9468 17.9463 43.9505 17.9541C43.9542 17.9619 43.9575 17.9701 43.9612 17.9779C43.9644 17.9857 43.9681 17.994 43.9714 18.0018C43.9747 18.0096 43.9784 18.0178 43.9817 18.026C43.985 18.0338 43.9883 18.042 43.9916 18.0498C43.9953 18.0581 43.9986 18.0659 44.0019 18.0741C44.0051 18.0819 44.0084 18.0897 44.0113 18.0979C44.015 18.1061 44.0179 18.1139 44.0212 18.1222C44.0245 18.13 44.0277 18.1382 44.0306 18.1464C44.0339 18.1546 44.0372 18.1624 44.0401 18.1706C44.0434 18.1789 44.0466 18.1871 44.0495 18.1949C44.0524 18.2031 44.0557 18.2113 44.0586 18.2195C44.0619 18.2278 44.0647 18.2356 44.0676 18.2438C44.0705 18.252 44.0738 18.2602 44.0767 18.268C44.0795 18.2762 44.0824 18.2849 44.0853 18.2931C44.0882 18.3009 44.091 18.3091 44.0939 18.3173C44.0964 18.3256 44.0997 18.3338 44.1025 18.342C44.105 18.3502 44.1079 18.3584 44.1103 18.3666C44.1132 18.3753 44.1161 18.3831 44.1186 18.3913C44.1214 18.3999 44.1243 18.4081 44.1268 18.4164C44.1297 18.4246 44.1321 18.4328 44.1346 18.441C44.1375 18.4492 44.1399 18.4574 44.1424 18.4661C44.1449 18.4743 44.1478 18.4825 44.1502 18.4907C44.1527 18.4989 44.1551 18.5076 44.1576 18.5158C44.1601 18.524 44.1626 18.5322 44.165 18.5409C44.1675 18.5491 44.1699 18.5573 44.172 18.5659C44.1745 18.5741 44.1769 18.5824 44.1794 18.591C44.1819 18.5992 44.1839 18.6074 44.186 18.6156C44.1884 18.6243 44.1905 18.6325 44.193 18.6411C44.195 18.6493 44.1975 18.658 44.1995 18.6662C44.202 18.6748 44.2041 18.683 44.2061 18.6912C44.2082 18.6999 44.2102 18.7081 44.2127 18.7167C44.2147 18.7249 44.2168 18.7336 44.2189 18.7418C44.2209 18.7504 44.223 18.7586 44.225 18.7673C44.2267 18.7759 44.2287 18.7841 44.2308 18.7927C44.2328 18.8014 44.2345 18.8096 44.2365 18.8182C44.2386 18.8264 44.2402 18.8351 44.2423 18.8437C44.2439 18.8519 44.246 18.8605 44.2476 18.8688C44.2497 18.8774 44.2513 18.886 44.253 18.8946C44.255 18.9029 44.2567 18.9115 44.2583 18.9201C44.26 18.9283 44.2616 18.937 44.2632 18.9456C44.2649 18.9538 44.2669 18.9624 44.2682 18.9711C44.2698 18.9797 44.2715 18.9883 44.2731 18.9965C44.2748 19.0052 44.2764 19.0138 44.2776 19.0224C44.2793 19.0311 44.2809 19.0393 44.2822 19.0479C44.2838 19.0565 44.285 19.0652 44.2867 19.0738C44.2879 19.0824 44.2895 19.0906 44.2908 19.0993C44.292 19.1079 44.2937 19.1165 44.2949 19.1252C44.2961 19.1338 44.2978 19.142 44.299 19.1506C44.3002 19.1593 44.3015 19.1679 44.3027 19.1765C44.3039 19.1851 44.3052 19.1938 44.3064 19.2024C44.3076 19.211 44.3085 19.2197 44.3097 19.2283C44.3109 19.2369 44.3122 19.2451 44.313 19.2542C44.3142 19.2628 44.3154 19.271 44.3163 19.2796C44.3175 19.2883 44.3183 19.2969 44.3196 19.3055C44.3204 19.3142 44.3212 19.3228 44.3224 19.3314C44.3233 19.3401 44.3241 19.3487 44.3249 19.3573C44.3261 19.3659 44.327 19.3746 44.3278 19.3832C44.3286 19.3922 44.3294 19.4009 44.3302 19.4091C44.3311 19.4181 44.3319 19.4263 44.3327 19.4354C44.3335 19.444 44.3339 19.4526 44.3348 19.4613C44.3356 19.4699 44.336 19.4785 44.3368 19.4871C44.3376 19.4958 44.3381 19.5044 44.3389 19.513C44.3393 19.5221 44.3401 19.5303 44.3405 19.5389C44.3409 19.548 44.3413 19.5566 44.3422 19.5652C44.3426 19.5738 44.343 19.5825 44.3434 19.5911C44.3438 19.5997 44.3446 19.6084 44.3446 19.617C44.3454 19.6256 44.3454 19.6343 44.3463 19.6429C44.3467 19.6519 44.3467 19.6606 44.3471 19.6692C44.3475 19.6778 44.3479 19.6864 44.3479 19.6951C44.3483 19.7037 44.3487 19.7127 44.3487 19.7214C44.3491 19.73 44.3491 19.7386 44.3496 19.7472C44.3496 19.7559 44.3496 19.7645 44.35 19.7731C44.35 19.7822 44.3504 19.7904 44.3504 19.7994C44.3504 19.8081 44.3504 19.8167 44.3504 19.8253ZM8.14097 26.1359L8.14055 13.5908C6.72588 13.5744 5.66468 14.2199 4.87432 15.1017L4.87432 24.5942C5.66468 25.4764 6.72589 26.1297 8.14097 26.1359Z" fill="var(--secondary-01)"/>
</svg>