<svg width="73" height="65" viewBox="0 0 127 101" fill="none" xmlns="http://www.w3.org/2000/svg">
<path d="M115.024 0.218638C114.576 1.76044 113.608 4.99603 113.457 5.41586C112.893 6.99386 112.272 7.61636 110.683 8.21716C110.271 8.36917 105.316 9.83135 105.201 9.83135C105.179 9.83135 105.186 9.8603 105.229 9.89649C105.266 9.93269 106.45 10.2946 107.859 10.7C111.232 11.6699 111.788 11.8943 112.438 12.553C113.059 13.1755 113.334 13.8125 114.15 16.5921C115.14 19.958 115.089 19.806 115.169 19.6033C115.205 19.502 115.537 18.38 115.913 17.106C116.895 13.7474 117.075 13.2986 117.697 12.6182C118.34 11.916 119.019 11.641 122.847 10.5552C124.003 10.2295 124.963 9.93268 124.999 9.91097C125.028 9.88202 124.053 9.57076 122.832 9.21607C119.047 8.1303 118.441 7.89143 117.762 7.21825C117.112 6.55955 116.837 5.86466 115.66 1.79663C115.371 0.819429 115.132 0.00872136 115.118 0.00148286C115.104 -0.0129941 115.06 0.0811064 115.024 0.218638Z" fill="black"/>
<path d="M21.5629 1.79662C21.5629 1.82557 21.3534 2.54218 21.1006 3.38185C20.8406 4.22875 20.2266 6.34239 19.721 8.07239C19.2226 9.8024 18.6375 11.7495 18.4208 12.401C17.0845 16.4256 15.9866 17.7068 12.8228 18.9518C11.6815 19.4006 10.5186 19.7553 6.10521 21.0221C1.2151 22.4263 0.471107 22.6435 0.5 22.6724C0.543339 22.7159 3.58431 23.6134 6.8492 24.5472C10.5258 25.5968 12.3172 26.1686 13.444 26.6609C15.8132 27.6887 16.94 28.9482 17.9946 31.735C18.4136 32.8353 18.7242 33.827 19.7499 37.3594C21.1006 42.0354 21.5918 43.6207 21.6423 43.5193C21.7073 43.4035 22.5741 40.5081 23.6215 36.9251C25.3478 30.9967 25.9329 29.6142 27.2764 28.275C28.62 26.9432 30.2163 26.2917 36.4066 24.54C39.0214 23.8016 42.5246 22.7665 42.6402 22.7014C42.7052 22.6652 42.5969 22.6073 42.3513 22.5349C42.1418 22.4698 39.8232 21.7966 37.2011 21.0438C31.9065 19.5092 30.6425 19.1039 29.4651 18.5393C26.5758 17.1495 25.8029 15.8755 23.9032 9.37533C22.0179 2.93306 21.5629 1.44917 21.5629 1.79662Z" fill="black"/>
<path d="M111.651 72.6037C111.47 73.2118 111.008 74.7753 110.632 76.071C109.404 80.2765 109.014 81.1958 108.032 82.1875C107.534 82.6942 107.339 82.8317 106.689 83.143C106.27 83.3456 105.641 83.6135 105.28 83.7365C104.767 83.9175 98.8224 85.662 97.5728 85.9949C97.2622 86.0818 97.2189 86.1614 97.4645 86.2193C97.9123 86.3134 104.312 88.1955 105.042 88.4488C106.696 89.0062 107.526 89.4767 108.227 90.2584C108.957 91.0619 109.455 92.2128 110.264 94.9634C111.311 98.5031 111.969 100.711 111.998 100.733C112.026 100.769 112.388 99.5816 113.543 95.5932C114.605 91.9522 115.01 91.0185 115.963 90.0702C116.931 89.1003 117.805 88.7311 121.836 87.5729C124.653 86.7622 126.567 86.1976 126.653 86.1397C126.733 86.0963 126.848 86.1252 122.832 84.9671C121.048 84.4532 119.199 83.903 118.73 83.7365C116.613 83.0055 115.681 82.2671 114.93 80.7326C114.526 79.9146 114.165 78.8071 113.262 75.7018C112.453 72.915 112.048 71.5686 112.005 71.5252C111.998 71.5107 111.839 72.0029 111.651 72.6037Z" fill="black"/>
</svg>
