<svg width="42" height="58" viewBox="0 0 58 64" fill="none" xmlns="http://www.w3.org/2000/svg">
<path d="M49.9081 0.214557C49.5644 1.39969 48.8215 3.88681 48.7051 4.20952C48.2726 5.42248 47.7958 5.90098 46.5761 6.3628C46.2601 6.47964 42.4569 7.60357 42.3682 7.60357C42.3516 7.60357 42.3571 7.62583 42.3904 7.65365C42.4181 7.68147 43.3273 7.95967 44.4084 8.27125C46.9975 9.01683 47.4244 9.18932 47.9234 9.69564C48.4001 10.1741 48.6108 10.6638 49.2373 12.8004C49.9968 15.3876 49.958 15.2708 50.019 15.115C50.0467 15.0371 50.3017 14.1747 50.59 13.1954C51.344 10.6137 51.4826 10.2687 51.9594 9.74572C52.4528 9.20601 52.974 8.99458 55.9123 8.15997C56.7994 7.90959 57.5367 7.68147 57.5644 7.66478C57.5866 7.64252 56.8382 7.40327 55.9012 7.13063C52.9962 6.29603 52.5305 6.11242 52.0093 5.59496C51.5103 5.08864 51.2997 4.55449 50.396 1.42751C50.1742 0.676371 49.9913 0.0532009 49.9802 0.0476369C49.9691 0.0365089 49.9358 0.108841 49.9081 0.214557Z" fill="black"/>
<path d="M16.167 9.28947C16.167 9.31172 16.0063 9.86256 15.8122 10.508C15.6126 11.159 15.1414 12.7837 14.7533 14.1135C14.3708 15.4433 13.9217 16.94 13.7554 17.4407C12.7297 20.5343 11.887 21.5192 9.45875 22.4762C8.58279 22.8211 7.6902 23.0938 4.30279 24.0675C0.549466 25.1469 -0.0215704 25.3138 0.000605812 25.3361C0.0338701 25.3695 2.36791 26.0594 4.87382 26.7772C7.69574 27.5839 9.07067 28.0235 9.93554 28.4019C11.754 29.1919 12.6189 30.1601 13.4283 32.3022C13.7498 33.148 13.9882 33.9103 14.7755 36.6255C15.8122 40.2198 16.1892 41.4384 16.228 41.3605C16.2779 41.2714 16.9432 39.0458 17.7471 36.2916C19.0721 31.7347 19.5212 30.672 20.5524 29.6426C21.5836 28.6189 22.8088 28.1181 27.5601 26.7716C29.567 26.2041 32.2559 25.4084 32.3446 25.3583C32.3945 25.3305 32.3113 25.286 32.1228 25.2304C31.962 25.1803 30.1824 24.6628 28.1699 24.0842C24.1061 22.9046 23.1359 22.593 22.2322 22.159C20.0146 21.0907 19.4214 20.1115 17.9633 15.115C16.5163 10.163 16.167 9.02239 16.167 9.28947Z" fill="black"/>
<path d="M39.0584 41.4551C38.9198 41.9224 38.565 43.1243 38.2767 44.1202C37.3342 47.3529 37.0348 48.0595 36.2809 48.8218C35.8983 49.2113 35.7486 49.317 35.2497 49.5563C34.9281 49.7121 34.4458 49.9179 34.1686 50.0125C33.7749 50.1516 29.2122 51.4925 28.2531 51.7485C28.0147 51.8153 27.9814 51.8765 28.1699 51.921C28.5136 51.9933 33.4257 53.44 33.9856 53.6347C35.2552 54.0631 35.8928 54.4248 36.4305 55.0257C36.9905 55.6433 37.373 56.528 37.994 58.6423C38.7979 61.3631 39.3024 63.0601 39.3245 63.0768C39.3467 63.1046 39.6239 62.1922 40.511 59.1264C41.3259 56.3277 41.6364 55.6099 42.3682 54.881C43.1111 54.1355 43.7819 53.8517 46.8755 52.9614C49.0377 52.3383 50.5069 51.9043 50.5734 51.8598C50.6344 51.8264 50.7231 51.8486 47.6406 50.9584C46.2712 50.5634 44.852 50.1405 44.4916 50.0125C42.8672 49.4506 42.152 48.883 41.5754 47.7034C41.2649 47.0747 40.9877 46.2234 40.2947 43.8365C39.6738 41.6943 39.3633 40.6594 39.3301 40.626C39.3245 40.6149 39.2026 40.9932 39.0584 41.4551Z" fill="black"/>
</svg>