<svg width="571"  viewBox="0 0 571 272" fill="none" xmlns="http://www.w3.org/2000/svg">
<path d="M62.7686 1.24512C65.332 1.24512 68.2373 2.69775 71.4844 5.60303C73.7549 8.6792 74.8901 12.0972 74.8901 15.8569C74.8901 21.4966 72.6807 26.1353 68.2617 29.7729L63.2812 34.9365C61.6455 36.9141 58.374 37.9028 53.4668 37.9028H48.7793C47.4365 37.9028 45.3735 38.0127 42.5903 38.2324V38.5254C42.688 41.0156 42.8955 42.2607 43.2129 42.2607C50.2197 42.2607 54.7729 43.6035 56.8726 46.2891C58.728 49.585 59.6558 53.2227 59.6558 57.2021C59.6558 62.6221 57.8857 67.0532 54.3457 70.4956L50.2441 74.3042C47.9248 76.355 45.6787 77.3804 43.5059 77.3804V82.6538L43.8354 86.3892C53.3325 85.9741 58.8135 85.7666 60.2783 85.7666C64.2578 85.7666 67.2607 87.9395 69.2871 92.2852C70.1172 95.3125 70.5322 98.0103 70.5322 100.378C70.5322 106.384 68.4326 111.096 64.2334 114.514L55.3345 121.216C53.8452 122.461 40.4785 123.083 15.2344 123.083C8.10547 123.083 3.44238 120.593 1.24512 115.613C1.12305 113.538 0.915527 112.5 0.622559 112.5C0.817871 111.035 0.915527 110.205 0.915527 110.01C0.305176 75.1221 0 56.1646 0 53.1372C0.195312 48.5718 0.292969 45.1538 0.292969 42.8833C0.0976562 34.3628 0 27.4292 0 22.0825C0 19.9341 0.830078 17.334 2.49023 14.2822L7.61719 7.69043C8.76465 5.78613 11.9263 3.94287 17.1021 2.16064C19.3237 1.74561 21.7041 1.53809 24.2432 1.53809H53.1372C55.7495 1.53809 58.96 1.44043 62.7686 1.24512ZM37.2803 6.84814H22.6685C17.4927 6.84814 14.9048 7.77588 14.9048 9.63135C14.3921 9.63135 14.0869 10.8765 13.9893 13.3667V36.9873C13.9893 60.8887 14.2944 81.189 14.9048 97.8882C14.7095 100.281 14.6118 102.563 14.6118 104.736C15.4663 107.642 18.6768 109.094 24.2432 109.094C34.1797 109.094 46.1914 108.887 60.2783 108.472C63.5986 107.544 65.2588 105.164 65.2588 101.331V98.8403C65.2588 93.6646 63.7085 91.0767 60.6079 91.0767C55.0903 91.0767 49.707 91.272 44.458 91.6626C40.3076 91.6626 38.2324 88.7695 38.2324 82.9834C38.4277 78.9795 38.5254 75.4517 38.5254 72.3999V71.1548C38.5254 68.0786 39.978 66.1133 42.8833 65.2588C45.7642 64.6484 48.7671 64.1357 51.8921 63.7207C53.5522 62.3047 54.3823 60.2295 54.3823 57.4951V56.8726C54.3823 52.6978 53.5522 49.9023 51.8921 48.4863C50.5493 48.0713 46.9238 47.6562 41.0156 47.2412C38.9404 46.6553 37.9028 45.3125 37.9028 43.2129C37.2925 38.9893 36.9873 34.4238 36.9873 29.5166C36.9873 26.001 39.8804 24.2432 45.6665 24.2432C51.6968 24.2432 55.6396 24.1333 57.4951 23.9136C58.3984 24.1333 59.9487 24.2432 62.146 24.2432C67.1265 24.2432 69.6167 21.5454 69.6167 16.1499V15.5273C69.6167 11.1816 68.0664 8.38623 64.9658 7.14111L63.3911 6.51855C52.3804 6.73828 43.6768 6.84814 37.2803 6.84814Z" fill="white"/>
<path d="M101.257 0.952148H103.748C130.286 0.952148 146.973 9.75342 153.809 27.356C158.154 37.9517 160.327 47.3755 160.327 55.6274V57.2021C160.327 74.3408 155.457 89.2578 145.715 101.953C143.909 105.298 140.857 109.216 136.56 113.708C130.53 120.374 119.385 123.706 103.125 123.706C92.7246 123.706 86.4136 122.559 84.1919 120.264C81.897 118.066 80.7495 114.551 80.7495 109.717V102.246C80.7495 93.7012 80.127 71.9482 78.8818 36.9873C78.8818 29.9072 78.7842 25.6592 78.5889 24.2432C79.2236 19.3115 80.7739 15.4785 83.2397 12.7441L86.1694 9.11865C88.9038 6.14014 91.6626 3.93066 94.4458 2.49023C96.5698 1.46484 98.8403 0.952148 101.257 0.952148ZM92.5781 15.2344C92.5781 21.3867 93.2983 46.3501 94.7388 90.1245V102.869C94.7388 107.019 96.9116 109.094 101.257 109.094C102.649 109.509 106.079 109.717 111.548 109.717H113.379C127.734 109.717 137.476 105.566 142.603 97.2656C145.142 94.6777 147.937 89.7095 150.989 82.3608C153.894 72.7417 155.347 64.2456 155.347 56.8726C155.347 43.9819 151.208 31.2378 142.932 18.6401C134.363 10.3638 121.924 6.22559 105.615 6.22559H99.7192C95.813 6.22559 93.4326 9.22852 92.5781 15.2344ZM118.066 27.9785C123.804 27.9785 127.942 36.2671 130.481 52.8442C130.701 54.9927 130.811 56.7505 130.811 58.1177C130.811 65.5396 128.113 75.0732 122.717 86.7188C122.717 86.8652 121.887 87.6953 120.227 89.209H117.737C115.881 89.209 114.954 79.0527 114.954 58.7402V36.6577C114.954 30.8716 115.991 27.9785 118.066 27.9785Z" fill="white"/>
<path d="M234.851 0H236.096C241.418 0 245.142 2.0752 247.266 6.22559C247.9 8.56934 248.218 9.91211 248.218 10.2539C247.803 18.6279 247.595 25.4639 247.595 30.7617V37.6099C247.595 43.2007 247.693 48.999 247.888 55.0049C247.888 71.2402 245.3 85.7422 240.125 98.5107C238.367 102.441 235.62 106.873 231.885 111.804C229.59 114.856 227.258 117.517 224.89 119.788C219.08 122.815 212.561 124.329 205.334 124.329H205.005C197.998 124.329 190.332 122.559 182.007 119.019C176.294 115.479 172.253 111.023 169.885 105.652C167.224 103.455 165.259 91.1255 163.989 68.6646C163.989 66.0767 164.294 59.0332 164.905 47.5342C164.709 44.2871 164.612 41.1865 164.612 38.2324H164.282L164.612 37.6099V27.6489C164.612 26.7944 164.502 25.6592 164.282 24.2432C164.282 21.2646 165.32 18.0542 167.395 14.6118C169.543 12.4634 171.106 10.7788 172.083 9.55811C173.743 7.60498 176.123 5.45654 179.224 3.11279C181.982 2.06299 184.778 1.53809 187.61 1.53809H190.393C190.613 1.53809 190.723 1.44043 190.723 1.24512C195.557 1.24512 199.487 3.41797 202.515 7.76367C203.345 9.83887 203.967 12.4268 204.382 15.5273C204.187 30.1514 204.089 38.6475 204.089 41.0156C204.089 49.6338 204.712 60.0952 205.957 72.3999H206.25C207.3 55.6274 207.825 43.4082 207.825 35.7422C207.825 32.9102 207.715 27.832 207.495 20.5078C207.495 17.334 208.838 14.856 211.523 13.0737C213.232 11.4136 214.88 9.63135 216.467 7.72705C219.836 2.57568 225.964 0 234.851 0ZM221.777 9.96094C221.582 14.502 221.582 19.9829 221.777 26.4038C221.777 34.2651 220.959 51.1597 219.324 77.0874C218.005 83.5083 215.723 86.7188 212.476 86.7188C203.76 86.7188 199.402 75.4272 199.402 52.8442C199.207 52.8442 198.999 48.6938 198.779 40.3931C198.999 29.5776 199.109 20.9839 199.109 14.6118C198.352 9.21631 195.862 6.51855 191.638 6.51855C184.753 6.51855 180.823 7.4585 179.846 9.33838C179.016 10.8765 178.491 12.7319 178.271 14.9048C178.271 15.8813 178.381 19.0918 178.601 24.5361C178.601 25.6348 178.491 27.4048 178.271 29.8462L178.894 38.855C178.284 47.3755 177.979 54.5166 177.979 60.2783C178.955 79.6875 180.408 90.564 182.336 92.9077C184.827 99.2065 188.965 103.772 194.751 106.604C201.392 109.094 207.19 110.339 212.146 110.339H214.636C227.673 110.339 236.169 100.806 240.125 81.7383C241.785 72.2412 242.615 63.6475 242.615 55.957C242.419 42.3584 242.322 33.7524 242.322 30.1392C242.322 28.9673 242.517 22.1313 242.908 9.63135C242.908 7.31201 241.15 5.85938 237.634 5.27344H233.606C227.893 5.27344 223.95 6.83594 221.777 9.96094Z" fill="white"/>
<path d="M254.077 27.6855C254.541 24.5117 259.204 18.6523 268.066 10.1074C274.707 4.19922 283.191 1.24512 293.518 1.24512H295.386C310.083 1.24512 318.677 7.04346 321.167 18.6401C322.607 24.0601 323.328 31.9336 323.328 42.2607C323.328 55.2246 323.438 67.2485 323.657 78.3325C323.438 84.5337 323.328 92.5049 323.328 102.246C323.328 109.106 321.399 114.27 317.542 117.737C314.075 121.497 309.167 123.376 302.82 123.376C291.638 123.376 286.047 119.653 286.047 112.207H285.754C284.924 112.866 283.655 114.49 281.946 117.078C279.919 121.277 275.378 123.376 268.323 123.376H264.294C259.094 123.376 255.676 120.996 254.041 116.235C253.21 114.453 252.588 92.2852 252.173 49.7314C251.978 39.9414 252.612 32.5928 254.077 27.6855ZM265.833 44.1284C266.174 51.9653 266.589 70.7153 267.078 100.378C267.078 106.384 268.53 109.387 271.436 109.387H278.906C283.057 109.387 285.132 106.287 285.132 100.085V89.8315C285.132 85.8765 287.402 83.8989 291.943 83.8989H293.518C296.716 83.8989 298.779 84.9365 299.707 87.0117C299.512 93.0908 299.414 96.6187 299.414 97.5952C299.414 104.211 300.342 107.52 302.197 107.52C302.466 108.569 305.261 109.192 310.583 109.387H312.781C316.296 108.704 318.054 107.043 318.054 104.407C318.274 89.5874 318.384 78.2959 318.384 70.5322V53.7598C318.384 31.4453 317.139 18.6035 314.648 15.2344C311.743 9.42383 305.933 6.51855 297.217 6.51855H291.943C278.882 6.51855 270.911 12.5244 268.03 24.5361C267.2 27.1973 266.467 33.728 265.833 44.1284ZM292.896 25.4883H295.056C298.059 25.4883 300.024 29.834 300.952 38.5254C300.757 47.0703 300.659 54.0161 300.659 59.3628V64.6362C300.659 67.7368 298.279 69.2871 293.518 69.2871H290.405C287.305 69.043 285.754 67.4927 285.754 64.6362C285.754 62.439 285.852 60.6812 286.047 59.3628C285.852 54.187 285.754 49.4263 285.754 45.0806V39.1479C285.754 32.0923 287.512 27.6367 291.028 25.7812L292.896 25.4883Z" fill="white"/>
<path d="M374.927 1.24512C383.716 1.24512 390.552 3.21045 395.435 7.14111C399.243 10.9253 402.051 17.041 403.857 25.4883C404.688 27.9541 405.408 34.1675 406.018 44.1284C406.018 49.939 403.223 56.3599 397.632 63.3911L389.539 71.1548C393.03 80.5786 396.765 88.7695 400.745 95.7275C403.015 99.0234 404.15 102.026 404.15 104.736C404.15 109.521 402.502 113.037 399.207 115.283L394.849 119.678C393.14 121.729 389.709 122.754 384.558 122.754C379.529 122.974 376.636 123.083 375.879 123.083C370.312 123.083 366.37 119.556 364.05 112.5V112.207C363.318 112.939 361.853 115.466 359.656 119.788C357.947 121.765 354.651 122.754 349.768 122.754C347.571 123.169 345.398 123.376 343.25 123.376C335.168 121.716 331.128 119.958 331.128 118.103C329.053 117.786 328.015 107.422 328.015 87.0117L327.393 73.3521C327.588 62.7808 327.686 53.4546 327.686 45.3735V21.1304C327.686 16.6382 329.041 13.4277 331.75 11.499L336.877 6.44531C339.197 3.58887 341.943 2.16064 345.117 2.16064C345.117 1.81885 346.46 1.61133 349.146 1.53809C353.174 1.53809 361.768 1.44043 374.927 1.24512ZM349.475 6.84814H347.9C343.75 6.84814 341.675 8.19092 341.675 10.8765C341.675 18.9331 341.577 26.1841 341.382 32.6294C341.577 39.6851 341.675 43.6279 341.675 44.458C341.479 53.7109 341.382 59.7168 341.382 62.4756C341.87 91.6748 342.59 106.274 343.542 106.274C343.542 107.104 346.13 108.142 351.306 109.387H352.258C358.459 109.387 361.56 108.557 361.56 106.897C361.975 104.944 362.183 103.394 362.183 102.246V95.3979C362.183 87.9272 361.877 81.2012 361.267 75.2197C361.755 72.7295 362.683 71.4844 364.05 71.4844C366.125 71.4844 369.653 79.1504 374.634 94.4824C376.294 98.291 377.637 101.917 378.662 105.359C380.322 107.849 382.19 109.094 384.265 109.094H390.491C395.862 109.094 398.547 108.362 398.547 106.897C398.767 106.897 398.877 106.799 398.877 106.604V103.491C397.754 100.854 394.849 95.2637 390.161 86.7188C386.011 76.8311 383.936 71.0205 383.936 69.2871C384.375 67.8711 386.45 66.0156 390.161 63.7207C397.217 56.7871 400.745 50.3662 400.745 44.458C400.745 27.6611 397.424 16.1621 390.784 9.96094C386.633 7.4707 379.907 6.22559 370.605 6.22559C365.723 6.64062 358.679 6.84814 349.475 6.84814ZM368.408 23.3276C374.707 23.3276 378.857 24.7681 380.859 27.6489C382.3 31.0425 383.02 35.2905 383.02 40.3931C383.02 46.8628 380.737 50.6958 376.172 51.8921L371.228 52.5146C364.587 52.5146 361.267 50.8545 361.267 47.5342C360.242 41.1621 359.729 34.8511 359.729 28.6011C359.729 25.0854 362.622 23.3276 368.408 23.3276ZM365.295 37.9028C365.515 40.5884 365.833 43.5913 366.248 46.9116H367.493L369.031 47.2412V46.9116C369.031 40.9058 367.786 37.9028 365.295 37.9028Z" fill="white"/>
<path d="M432.385 0.952148H434.875C461.414 0.952148 478.101 9.75342 484.937 27.356C489.282 37.9517 491.455 47.3755 491.455 55.6274V57.2021C491.455 74.3408 486.584 89.2578 476.843 101.953C475.037 105.298 471.985 109.216 467.688 113.708C461.658 120.374 450.513 123.706 434.253 123.706C423.853 123.706 417.542 122.559 415.32 120.264C413.025 118.066 411.877 114.551 411.877 109.717V102.246C411.877 93.7012 411.255 71.9482 410.01 36.9873C410.01 29.9072 409.912 25.6592 409.717 24.2432C410.352 19.3115 411.902 15.4785 414.368 12.7441L417.297 9.11865C420.032 6.14014 422.791 3.93066 425.574 2.49023C427.698 1.46484 429.968 0.952148 432.385 0.952148ZM423.706 15.2344C423.706 21.3867 424.426 46.3501 425.867 90.1245V102.869C425.867 107.019 428.04 109.094 432.385 109.094C433.777 109.509 437.207 109.717 442.676 109.717H444.507C458.862 109.717 468.604 105.566 473.73 97.2656C476.27 94.6777 479.065 89.7095 482.117 82.3608C485.022 72.7417 486.475 64.2456 486.475 56.8726C486.475 43.9819 482.336 31.2378 474.06 18.6401C465.491 10.3638 453.052 6.22559 436.743 6.22559H430.847C426.941 6.22559 424.561 9.22852 423.706 15.2344ZM449.194 27.9785C454.932 27.9785 459.07 36.2671 461.609 52.8442C461.829 54.9927 461.938 56.7505 461.938 58.1177C461.938 65.5396 459.241 75.0732 453.845 86.7188C453.845 86.8652 453.015 87.6953 451.355 89.209H448.865C447.009 89.209 446.082 79.0527 446.082 58.7402V36.6577C446.082 30.8716 447.119 27.9785 449.194 27.9785Z" fill="white"/>
<path d="M533.35 0.32959H541.113C553.223 0.32959 562.231 6.43311 568.14 18.6401C570.02 27.8687 570.959 34.2896 570.959 37.9028C570.959 74.1821 568.262 95.8374 562.866 102.869C560.156 108.752 556.689 113.916 552.466 118.359C548.511 121.704 542.029 123.376 533.02 123.376C517.883 123.376 508.459 119.861 504.749 112.83C501.404 109.045 498.499 100.232 496.033 86.3892C495.422 83.4351 495.117 79.9194 495.117 75.8423V58.7402C495.117 37.3047 498.12 23.8403 504.126 18.3472C505.273 16.4673 507.336 14.209 510.315 11.5723C513.123 7.27539 518.005 3.93066 524.963 1.53809C528.674 0.732422 531.47 0.32959 533.35 0.32959ZM508.777 55.0049C508.777 70.2393 509.717 80.2856 511.597 85.144C511.597 87.9272 513.257 92.9077 516.577 100.085C520.337 105.261 523.962 107.849 527.454 107.849C528.186 108.679 532.947 109.192 541.736 109.387H542.029C552.917 109.387 559.863 102.344 562.866 88.2568C564.722 77.6611 565.649 60.6689 565.649 37.2803C565.649 30.1758 564.307 23.3398 561.621 16.7725C557.031 9.10645 548.95 5.27344 537.378 5.27344H536.462C522.571 5.27344 514.172 11.3892 511.267 23.6206C509.607 31.7017 508.777 42.1631 508.777 55.0049ZM536.462 22.7051H537.378C541.626 22.7051 544.629 26.8433 546.387 35.1196C546.802 41.3452 547.217 52.4292 547.632 68.3716C546.851 76.8677 545.715 82.4585 544.226 85.144C542.2 88.0493 539.819 89.502 537.085 89.502C532.275 89.502 529.272 81.0059 528.076 64.0137C527.734 64.0137 527.417 59.2529 527.124 49.7314C527.124 36.2793 529.089 27.6733 533.02 23.9136C534.119 23.1079 535.266 22.7051 536.462 22.7051ZM532.397 45.3735V50.647C532.397 52.4048 532.605 57.2754 533.02 65.2588H533.35V62.7686C532.935 52.0996 532.727 46.3013 532.727 45.3735H532.397Z" fill="white"/>
<path d="M82.2144 148.623C84.6069 148.623 89.0625 148.623 95.5811 148.623C97.8516 148.623 100.33 149.758 103.015 152.028C104.431 153.713 105.884 157.546 107.373 163.527L110.779 176.271H111.108C114.771 168.312 117.773 163.027 120.117 160.415L125.391 155.141C128.125 151.406 131.75 149.538 136.267 149.538H139.087C146.68 149.05 151.44 150.368 153.369 153.493C154.81 155.935 155.53 158.864 155.53 162.282V165.395C155.53 169.985 155.64 173.305 155.859 175.356C155.225 192.641 154.907 204.86 154.907 212.014V233.144C154.907 241.811 155.225 248.549 155.859 253.359C155.859 255.654 154.724 257.937 152.454 260.207L147.546 266.799C145.618 270.192 140.93 271.718 133.484 271.376H130.078C120.117 271.376 115.137 267.653 115.137 260.207V251.162C115.137 250.087 115.247 248.33 115.466 245.888H115.137C114.795 245.913 113.403 247.817 110.962 251.601C109.033 253.798 107.361 255.52 105.945 256.765L103.967 258.779C102.38 259.658 100.513 260.231 98.3643 260.5L94.8853 264.602C93.2739 267.678 91.5649 269.497 89.7583 270.058C88.1226 270.107 86.1206 270.131 83.7524 270.131H75.0366C68.9819 270.131 65.4663 267.128 64.4897 261.123C64.0747 258.852 63.8672 256.264 63.8672 253.359C63.8672 250.942 63.9648 248.977 64.1602 247.463C64.1602 246.462 64.0625 245.424 63.8672 244.35C64.0625 233.266 64.1602 224.245 64.1602 217.287V207.363C64.1602 202.285 63.855 188.71 63.2446 166.64C63.2446 163.173 64.9414 159.987 68.335 157.082L72.6929 152.431C74.9878 149.892 78.1616 148.623 82.2144 148.623ZM76.9043 158.876C77.7344 177.529 78.1494 189.956 78.1494 196.157C77.9541 218.862 77.8564 235.439 77.8564 245.888C77.8564 252.724 79.1992 256.142 81.8848 256.142C82.9834 256.362 86.0962 256.472 91.2231 256.472C96.5942 256.179 99.2798 254.934 99.2798 252.736C99.8657 251.979 100.281 249.392 100.525 244.973C100.11 234.914 99.9023 228.908 99.9023 226.955C100.244 223.83 100.867 222.268 101.77 222.268H102.393C103.345 222.316 106.348 228.225 111.401 239.992L112.646 240.908H114.514C116.125 240.908 118.616 235.939 121.985 226.003C123.889 221.242 125.439 218.654 126.636 218.239H127.258C128.357 218.239 129.089 221.45 129.456 227.871C129.236 230.581 129.126 232.753 129.126 234.389V253.029C129.126 255.568 131.506 257.021 136.267 257.387H143.738C148.303 257.387 150.586 256.142 150.586 253.652C149.951 246.547 149.634 238.161 149.634 228.493C149.634 214.113 149.951 196.608 150.586 175.979C150.366 170.217 150.256 164.687 150.256 159.389C149.67 156.069 147.803 154.409 144.653 154.409C141.504 154.482 138.501 154.519 135.645 154.519C131.519 154.519 128.137 158.474 125.5 166.384C123.474 170.925 119.714 180.642 114.221 195.534C113.464 196.169 112.732 196.486 112.024 196.486C109.802 192.653 106.494 181.362 102.1 162.612C100.439 157.021 98.6816 154.226 96.8262 154.226C96.8262 154.006 96.5088 153.896 95.874 153.896C91.2354 153.896 88.5376 153.896 87.7808 153.896H81.2622C78.3569 153.896 76.9043 155.556 76.9043 158.876Z" fill="white"/>
<path d="M161.755 175.686C162.219 172.512 166.882 166.652 175.745 158.107C182.385 152.199 190.869 149.245 201.196 149.245H203.064C217.761 149.245 226.355 155.043 228.845 166.64C230.286 172.06 231.006 179.934 231.006 190.261C231.006 203.225 231.116 215.249 231.335 226.333C231.116 232.534 231.006 240.505 231.006 250.246C231.006 257.106 229.077 262.27 225.22 265.737C221.753 269.497 216.846 271.376 210.498 271.376C199.316 271.376 193.726 267.653 193.726 260.207H193.433C192.603 260.866 191.333 262.49 189.624 265.078C187.598 269.277 183.057 271.376 176.001 271.376H171.973C166.772 271.376 163.354 268.996 161.719 264.235C160.889 262.453 160.266 240.285 159.851 197.731C159.656 187.941 160.291 180.593 161.755 175.686ZM173.511 192.128C173.853 199.965 174.268 218.715 174.756 248.378C174.756 254.384 176.208 257.387 179.114 257.387H186.584C190.735 257.387 192.81 254.287 192.81 248.085V237.832C192.81 233.876 195.081 231.899 199.622 231.899H201.196C204.395 231.899 206.458 232.937 207.385 235.012C207.19 241.091 207.092 244.619 207.092 245.595C207.092 252.211 208.02 255.52 209.875 255.52C210.144 256.569 212.939 257.192 218.262 257.387H220.459C223.975 256.704 225.732 255.043 225.732 252.407C225.952 237.587 226.062 226.296 226.062 218.532V201.76C226.062 179.445 224.817 166.604 222.327 163.234C219.421 157.424 213.611 154.519 204.895 154.519H199.622C186.56 154.519 178.589 160.524 175.708 172.536C174.878 175.197 174.146 181.728 173.511 192.128ZM200.574 173.488H202.734C205.737 173.488 207.703 177.834 208.63 186.525C208.435 195.07 208.337 202.016 208.337 207.363V212.636C208.337 215.737 205.957 217.287 201.196 217.287H198.083C194.983 217.043 193.433 215.493 193.433 212.636C193.433 210.439 193.53 208.681 193.726 207.363C193.53 202.187 193.433 197.426 193.433 193.081V187.148C193.433 180.092 195.19 175.637 198.706 173.781L200.574 173.488Z" fill="white"/>
<path d="M276.306 148.33C283.923 148.33 291.797 151.015 299.927 156.386C304.688 161.708 307.068 168.239 307.068 175.979V176.894C307.068 181.508 305.2 185.292 301.465 188.247L297.766 191.762C296.497 193.032 293.909 194.289 290.002 195.534C285.559 196.584 281.616 197.109 278.174 197.109C277.808 197.109 276.672 196.901 274.768 196.486V204.58C274.768 208.779 274.866 215.09 275.061 223.513C275.281 223.879 275.391 224.294 275.391 224.758C276.221 223.903 277.124 222.683 278.101 221.096C280.005 217.971 283.24 215.676 287.805 214.211C290.002 213.576 291.553 213.259 292.456 213.259C299.17 213.259 303.735 215.957 306.152 221.352C307.178 224.306 307.69 229.274 307.69 236.257C307.69 240.505 306.555 245.168 304.285 250.246C301.99 256.179 298.547 261.416 293.958 265.957C290.369 268.129 286.926 269.545 283.63 270.205C279.48 271.206 274.561 271.706 268.872 271.706H266.675C253.101 271.706 244.092 266.835 239.648 257.094C238.184 252.187 236.731 243.996 235.291 232.521C235.144 205.324 236.011 188.564 237.891 182.241C239.087 176.674 240.71 172.622 242.761 170.083C244.519 167.495 246.619 164.931 249.06 162.392C256.995 153.017 266.077 148.33 276.306 148.33ZM249.28 223.513C251.16 239.26 252.612 247.133 253.638 247.133C256.909 254.189 263.635 257.717 273.816 257.717H278.796C285.339 257.717 290.723 256.472 294.946 253.981C299.927 248.83 302.417 243.129 302.417 236.879V233.474C302.417 224.147 300.757 219.484 297.437 219.484C297.046 218.972 295.703 218.654 293.408 218.532H292.163C288.574 218.532 286.499 219.777 285.938 222.268C285.938 223.806 286.145 226.186 286.56 229.409C284.729 235.439 282.349 238.454 279.419 238.454H278.796C273.206 238.454 270.41 235.439 270.41 229.409C269.775 221.01 269.458 211.696 269.458 201.467C269.458 189.016 271.326 180.202 275.061 175.026C276.233 174.196 277.588 173.781 279.126 173.781C280.518 173.781 281.653 176.064 282.532 180.629C283.606 182.29 284.741 183.12 285.938 183.12H287.183C295.532 183.12 300.403 181.667 301.794 178.762V174.733C301.794 166.164 298.376 160.366 291.541 157.338C286.243 154.848 281.372 153.603 276.929 153.603H274.768C266.394 153.603 259.656 157.851 254.553 166.347C251.233 173.818 249.573 189.663 249.573 213.881C249.377 213.881 249.28 217.092 249.28 223.513Z" fill="white"/>
<path d="M340.613 148.952H340.906C347.058 148.952 351.208 151.223 353.357 155.764C353.357 156.667 353.564 157.607 353.979 158.583C353.979 160.097 353.662 176.455 353.027 207.656C353.247 222.353 353.357 233.437 353.357 240.908V249.001C353.357 255.056 352.185 259.731 349.841 263.027L345.886 267.348C343.396 269.619 340.491 270.656 337.17 270.461C336.047 270.656 335.12 270.754 334.387 270.754H325.049C319.043 270.754 314.905 268.264 312.634 263.283C312 260.769 311.584 252.382 311.389 238.125L312.012 170.083C311.792 168.959 311.682 168.02 311.682 167.263C312.268 164.528 313.306 162.355 314.795 160.744L318.86 155.727C320.105 152.602 324.243 150.441 331.274 149.245C334.961 149.05 338.074 148.952 340.613 148.952ZM338.123 154.226H335.303C329.248 154.128 326.038 155.373 325.671 157.961C325.476 192.189 325.378 216.005 325.378 229.409C325.378 246.206 326.001 254.604 327.246 254.604C328.613 256.044 330.481 256.765 332.849 256.765H344.348C346.594 256.765 347.827 255.214 348.047 252.114C348.047 247.988 348.157 244.777 348.376 242.482C348.157 235.964 347.949 224.257 347.754 207.363C348.169 194.79 348.474 178.322 348.669 157.961C348.669 155.812 345.776 154.458 339.99 153.896L338.123 154.226Z" fill="white"/>
<path d="M420.447 149.245C423.01 149.245 425.916 150.698 429.163 153.603C431.433 156.679 432.568 160.097 432.568 163.857C432.568 169.497 430.359 174.135 425.94 177.773L420.959 182.937C419.324 184.914 416.052 185.903 411.145 185.903H406.458C405.115 185.903 403.052 186.013 400.269 186.232V186.525C400.366 189.016 400.574 190.261 400.891 190.261C407.898 190.261 412.451 191.604 414.551 194.289C416.406 197.585 417.334 201.223 417.334 205.202C417.334 210.622 415.564 215.053 412.024 218.496L407.922 222.304C405.603 224.355 403.357 225.38 401.184 225.38V230.654L401.514 234.389C411.011 233.974 416.492 233.767 417.957 233.767C421.936 233.767 424.939 235.939 426.965 240.285C427.795 243.312 428.21 246.01 428.21 248.378C428.21 254.384 426.111 259.096 421.912 262.514L413.013 269.216C411.523 270.461 398.157 271.083 372.913 271.083C365.784 271.083 361.121 268.593 358.923 263.613C358.801 261.538 358.594 260.5 358.301 260.5C358.496 259.035 358.594 258.205 358.594 258.01C357.983 223.122 357.678 204.165 357.678 201.137C357.874 196.572 357.971 193.154 357.971 190.883C357.776 182.363 357.678 175.429 357.678 170.083C357.678 167.934 358.508 165.334 360.168 162.282L365.295 155.69C366.443 153.786 369.604 151.943 374.78 150.161C377.002 149.746 379.382 149.538 381.921 149.538H410.815C413.428 149.538 416.638 149.44 420.447 149.245ZM394.958 154.848H380.347C375.171 154.848 372.583 155.776 372.583 157.631C372.07 157.631 371.765 158.876 371.667 161.367V184.987C371.667 208.889 371.973 229.189 372.583 245.888C372.388 248.281 372.29 250.563 372.29 252.736C373.145 255.642 376.355 257.094 381.921 257.094C391.858 257.094 403.87 256.887 417.957 256.472C421.277 255.544 422.937 253.164 422.937 249.331V246.84C422.937 241.665 421.387 239.077 418.286 239.077C412.769 239.077 407.385 239.272 402.136 239.663C397.986 239.663 395.911 236.77 395.911 230.983C396.106 226.979 396.204 223.452 396.204 220.4V219.155C396.204 216.079 397.656 214.113 400.562 213.259C403.442 212.648 406.445 212.136 409.57 211.721C411.23 210.305 412.061 208.229 412.061 205.495V204.873C412.061 200.698 411.23 197.902 409.57 196.486C408.228 196.071 404.602 195.656 398.694 195.241C396.619 194.655 395.581 193.312 395.581 191.213C394.971 186.989 394.666 182.424 394.666 177.517C394.666 174.001 397.559 172.243 403.345 172.243C409.375 172.243 413.318 172.133 415.173 171.914C416.077 172.133 417.627 172.243 419.824 172.243C424.805 172.243 427.295 169.545 427.295 164.15V163.527C427.295 159.182 425.745 156.386 422.644 155.141L421.069 154.519C410.059 154.738 401.355 154.848 394.958 154.848Z" fill="white"/>
<path d="M466.406 148.623C471.143 148.623 474.353 150.698 476.038 154.848C476.721 154.848 477.246 162.612 477.612 178.139C477.612 180.751 477.478 189.541 477.209 204.506C476.843 212.197 476.868 219.716 477.283 227.065C477.063 228.554 477.063 230.483 477.283 232.851V233.474C479.114 233.474 480.664 233.364 481.934 233.144C486.523 233.364 490.771 233.474 494.678 233.474H495.63C500.83 233.474 504.248 235.439 505.884 239.37C506.714 240.566 507.336 244.704 507.751 251.784C507.751 255.422 506.165 258.559 502.991 261.196L498.926 265.261C497.217 266.799 495.703 268.007 494.385 268.886C493.701 269.301 492.151 269.826 489.734 270.461C478.528 270.656 470.129 270.754 464.539 270.754H455.859C447.51 270.754 442.639 270.131 441.248 268.886C438.123 265.834 436.56 262.209 436.56 258.01H436.267L436.56 254.274C436.56 239.943 436.975 219.228 437.805 192.128C437.61 185.903 437.512 182.277 437.512 181.252C437.512 170.217 438.647 163.381 440.918 160.744C441.748 159.182 443.542 157.033 446.301 154.299C448.206 150.856 452.417 148.964 458.936 148.623H466.406ZM451.501 173.488C451.501 177.736 451.599 181.459 451.794 184.658C451.184 199.331 450.671 220.888 450.256 249.331C450.793 254.287 452.661 256.765 455.859 256.765H468.274C468.494 256.765 468.604 256.875 468.604 257.094L469.226 256.765H494.678C499.878 256.765 502.478 255.312 502.478 252.407C502.478 243.52 501.123 239.077 498.413 239.077C498.413 238.71 496.863 238.503 493.762 238.454H485.999C483.264 238.454 479.736 238.552 475.415 238.747C473.145 238.039 472.009 236.904 472.009 235.341C472.009 234.121 471.997 231.569 471.973 227.688L471.899 204.213L472.632 177.224C471.997 166.237 471.68 159.609 471.68 157.338C470.752 154.848 468.896 153.603 466.113 153.603H464.246C456.36 153.603 452.417 155.056 452.417 157.961C451.807 160.891 451.501 166.066 451.501 173.488Z" fill="white"/>
</svg>