<svg width="18" height="29" viewBox="0 0 18 29" fill="none" xmlns="http://www.w3.org/2000/svg">
<path d="M9 15.5555C9 14.4947 9.42143 13.4773 10.1716 12.7271C10.9217 11.977 11.9391 11.5555 13 11.5555C14.0609 11.5555 15.0783 11.977 15.8284 12.7271C16.5786 13.4773 17 14.4947 17 15.5555C17 16.6164 16.5786 17.6338 15.8284 18.384C15.0783 19.1341 14.0609 19.5555 13 19.5555C11.9391 19.5555 10.9217 19.1341 10.1716 18.384C9.42143 17.6338 9 16.6164 9 15.5555V15.5555Z" stroke="white" stroke-width="2"/>
<path d="M1 23.5555C1 22.4947 1.42143 21.4773 2.17157 20.7271C2.92172 19.977 3.93913 19.5555 5 19.5555H9V23.5555C9 24.6164 8.57857 25.6338 7.82843 26.384C7.07828 27.1341 6.06087 27.5555 5 27.5555C3.93913 27.5555 2.92172 27.1341 2.17157 26.384C1.42143 25.6338 1 24.6164 1 23.5555Z" stroke="white" stroke-width="2"/>
<path d="M9 3.55554V11.5555H13C14.0609 11.5555 15.0783 11.1341 15.8284 10.384C16.5786 9.63382 17 8.61641 17 7.55554C17 6.49468 16.5786 5.47726 15.8284 4.72711C15.0783 3.97697 14.0609 3.55554 13 3.55554L9 3.55554Z" stroke="white" stroke-width="2"/>
<path d="M1 7.55554C1 8.61641 1.42143 9.63382 2.17157 10.384C2.92172 11.1341 3.93913 11.5555 5 11.5555H9V3.55554H5C3.93913 3.55554 2.92172 3.97697 2.17157 4.72711C1.42143 5.47726 1 6.49468 1 7.55554Z" stroke="white" stroke-width="2"/>
<path d="M1 15.5555C1 16.6164 1.42143 17.6338 2.17157 18.384C2.92172 19.1341 3.93913 19.5555 5 19.5555H9V11.5555H5C3.93913 11.5555 2.92172 11.977 2.17157 12.7271C1.42143 13.4773 1 14.4947 1 15.5555Z" stroke="white" stroke-width="2"/>
</svg>