<svg width="25" height="24" viewBox="0 0 25 24" fill="none" xmlns="http://www.w3.org/2000/svg">
<path d="M12.5 21L11.05 19.7C9.36667 18.1833 7.975 16.875 6.875 15.775C5.775 14.675 4.9 13.6873 4.25 12.812C3.6 11.9373 3.146 11.1333 2.888 10.4C2.62933 9.66667 2.5 8.91667 2.5 8.15C2.5 6.58333 3.025 5.275 4.075 4.225C5.125 3.175 6.43333 2.65 8 2.65C8.86667 2.65 9.69167 2.83333 10.475 3.2C11.2583 3.56667 11.9333 4.08333 12.5 4.75C13.0667 4.08333 13.7417 3.56667 14.525 3.2C15.3083 2.83333 16.1333 2.65 17 2.65C18.5667 2.65 19.875 3.175 20.925 4.225C21.975 5.275 22.5 6.58333 22.5 8.15C22.5 8.91667 22.371 9.66667 22.113 10.4C21.8543 11.1333 21.4 11.9373 20.75 12.812C20.1 13.6873 19.225 14.675 18.125 15.775C17.025 16.875 15.6333 18.1833 13.95 19.7L12.5 21ZM12.5 18.3C14.1 16.8667 15.4167 15.6373 16.45 14.612C17.4833 13.5873 18.3 12.696 18.9 11.938C19.5 11.1793 19.9167 10.504 20.15 9.912C20.3833 9.32067 20.5 8.73333 20.5 8.15C20.5 7.15 20.1667 6.31667 19.5 5.65C18.8333 4.98333 18 4.65 17 4.65C16.2167 4.65 15.4917 4.87067 14.825 5.312C14.1583 5.754 13.7 6.31667 13.45 7H11.55C11.3 6.31667 10.8417 5.754 10.175 5.312C9.50833 4.87067 8.78333 4.65 8 4.65C7 4.65 6.16667 4.98333 5.5 5.65C4.83333 6.31667 4.5 7.15 4.5 8.15C4.5 8.73333 4.61667 9.32067 4.85 9.912C5.08333 10.504 5.5 11.1793 6.1 11.938C6.7 12.696 7.51667 13.5873 8.55 14.612C9.58333 15.6373 10.9 16.8667 12.5 18.3Z" fill="var(--primary-01)"/>
</svg>