<svg width="23" height="22" viewBox="0 0 23 22" fill="none" xmlns="http://www.w3.org/2000/svg">
<mask id="mask0_709_563" style="mask-type:alpha" maskUnits="userSpaceOnUse" x="0" y="0" width="23" height="22">
<rect x="0.5" width="22" height="22" fill="#D9D9D9"/>
</mask>
<g mask="url(#mask0_709_563)">
<path d="M17 20.1667C16.2361 20.1667 15.5868 19.8993 15.0521 19.3646C14.5174 18.8299 14.25 18.1806 14.25 17.4167C14.25 17.3097 14.2576 17.1988 14.2729 17.0839C14.2882 16.9696 14.3111 16.8667 14.3417 16.775L7.87917 13.0167C7.61944 13.2458 7.32917 13.4252 7.00833 13.5547C6.6875 13.6849 6.35139 13.75 6 13.75C5.23611 13.75 4.58681 13.4826 4.05208 12.9479C3.51736 12.4132 3.25 11.7639 3.25 11C3.25 10.2361 3.51736 9.58681 4.05208 9.05208C4.58681 8.51736 5.23611 8.25 6 8.25C6.35139 8.25 6.6875 8.31478 7.00833 8.44433C7.32917 8.5745 7.61944 8.75417 7.87917 8.98333L14.3417 5.225C14.3111 5.13333 14.2882 5.03036 14.2729 4.91608C14.2576 4.80119 14.25 4.69028 14.25 4.58333C14.25 3.81944 14.5174 3.17014 15.0521 2.63542C15.5868 2.10069 16.2361 1.83333 17 1.83333C17.7639 1.83333 18.4132 2.10069 18.9479 2.63542C19.4826 3.17014 19.75 3.81944 19.75 4.58333C19.75 5.34722 19.4826 5.99653 18.9479 6.53125C18.4132 7.06597 17.7639 7.33333 17 7.33333C16.6486 7.33333 16.3125 7.26825 15.9917 7.13808C15.6708 7.00853 15.3806 6.82917 15.1208 6.6L8.65833 10.3583C8.68889 10.45 8.71181 10.553 8.72708 10.6672C8.74236 10.7821 8.75 10.8931 8.75 11C8.75 11.1069 8.74236 11.2176 8.72708 11.3318C8.71181 11.4467 8.68889 11.55 8.65833 11.6417L15.1208 15.4C15.3806 15.1708 15.6708 14.9912 15.9917 14.861C16.3125 14.7314 16.6486 14.6667 17 14.6667C17.7639 14.6667 18.4132 14.934 18.9479 15.4688C19.4826 16.0035 19.75 16.6528 19.75 17.4167C19.75 18.1806 19.4826 18.8299 18.9479 19.3646C18.4132 19.8993 17.7639 20.1667 17 20.1667ZM17 5.5C17.2597 5.5 17.4773 5.41231 17.6527 5.23692C17.8287 5.06092 17.9167 4.84306 17.9167 4.58333C17.9167 4.32361 17.8287 4.10575 17.6527 3.92975C17.4773 3.75436 17.2597 3.66667 17 3.66667C16.7403 3.66667 16.5227 3.75436 16.3473 3.92975C16.1713 4.10575 16.0833 4.32361 16.0833 4.58333C16.0833 4.84306 16.1713 5.06092 16.3473 5.23692C16.5227 5.41231 16.7403 5.5 17 5.5ZM6 11.9167C6.25972 11.9167 6.47758 11.8287 6.65358 11.6527C6.82897 11.4773 6.91667 11.2597 6.91667 11C6.91667 10.7403 6.82897 10.5224 6.65358 10.3464C6.47758 10.171 6.25972 10.0833 6 10.0833C5.74028 10.0833 5.52242 10.171 5.34642 10.3464C5.17103 10.5224 5.08333 10.7403 5.08333 11C5.08333 11.2597 5.17103 11.4773 5.34642 11.6527C5.52242 11.8287 5.74028 11.9167 6 11.9167ZM17 18.3333C17.2597 18.3333 17.4773 18.2453 17.6527 18.0693C17.8287 17.8939 17.9167 17.6764 17.9167 17.4167C17.9167 17.1569 17.8287 16.9394 17.6527 16.764C17.4773 16.588 17.2597 16.5 17 16.5C16.7403 16.5 16.5227 16.588 16.3473 16.764C16.1713 16.9394 16.0833 17.1569 16.0833 17.4167C16.0833 17.6764 16.1713 17.8939 16.3473 18.0693C16.5227 18.2453 16.7403 18.3333 17 18.3333Z" fill="var(--primary-01)"/>
</g>
</svg>