<svg width="24" height="24" viewBox="0 0 32 32" fill="none" xmlns="http://www.w3.org/2000/svg">
<mask id="mask0_803_719" style="mask-type:alpha" maskUnits="userSpaceOnUse" x="0" y="0" width="32" height="32">
<rect width="32" height="32" fill="#D9D9D9"/>
</mask>
<g mask="url(#mask0_803_719)">
<path d="M9.33341 23.9333L16.0001 21.0667L22.6667 23.9333V6.66667H9.33341V23.9333ZM8.53341 27.2C8.08897 27.3778 7.66675 27.3387 7.26675 27.0827C6.86675 26.8276 6.66675 26.4556 6.66675 25.9667V6.66667C6.66675 5.93333 6.92808 5.30533 7.45075 4.78267C7.97253 4.26089 8.60008 4 9.33341 4H22.6667C23.4001 4 24.0281 4.26089 24.5507 4.78267C25.0725 5.30533 25.3334 5.93333 25.3334 6.66667V25.9667C25.3334 26.4556 25.1334 26.8276 24.7334 27.0827C24.3334 27.3387 23.9112 27.3778 23.4667 27.2L16.0001 24L8.53341 27.2Z"/>
</g>
</svg>