<svg width="22" height="22" viewBox="0 0 22 22" fill="none" xmlns="http://www.w3.org/2000/svg">
<mask id="mask0_803_707" style="mask-type:alpha" maskUnits="userSpaceOnUse" x="0" y="0" width="22" height="22">
<rect width="22" height="22" fill="#D9D9D9"/>
</mask>
<g mask="url(#mask0_803_707)">
<path d="M4.58333 20.1667C4.07917 20.1667 3.64742 19.9873 3.28808 19.6286C2.92936 19.2693 2.75 18.8375 2.75 18.3334V5.50004C2.75 4.99587 2.92936 4.56443 3.28808 4.20571C3.64742 3.84637 4.07917 3.66671 4.58333 3.66671H5.5V2.72712C5.5 2.4674 5.58769 2.25351 5.76308 2.08546C5.93908 1.9174 6.15694 1.83337 6.41667 1.83337C6.67639 1.83337 6.89425 1.92107 7.07025 2.09646C7.24564 2.27246 7.33333 2.49032 7.33333 2.75004V3.66671H14.6667V2.72712C14.6667 2.4674 14.7547 2.25351 14.9307 2.08546C15.1061 1.9174 15.3236 1.83337 15.5833 1.83337C15.8431 1.83337 16.0606 1.92107 16.236 2.09646C16.412 2.27246 16.5 2.49032 16.5 2.75004V3.66671H17.4167C17.9208 3.66671 18.3526 3.84637 18.7119 4.20571C19.0706 4.56443 19.25 4.99587 19.25 5.50004V18.3334C19.25 18.8375 19.0706 19.2693 18.7119 19.6286C18.3526 19.9873 17.9208 20.1667 17.4167 20.1667H4.58333ZM4.58333 18.3334H17.4167V9.16671H4.58333V18.3334ZM4.58333 7.33337H17.4167V5.50004H4.58333V7.33337Z" fill="var(--secondary-01)"/>
</g>
</svg>