<svg width="40" height="40" viewBox="0 0 40 40" fill="none" xmlns="http://www.w3.org/2000/svg">
<mask id="mask0_348_91" style="mask-type:alpha" maskUnits="userSpaceOnUse" x="0" y="0" width="40" height="40">
<rect width="40" height="40" fill="#D9D9D9"/>
</mask>
<g mask="url(#mask0_348_91)">
<path d="M11.8334 30.5C11.189 31.1443 10.1444 31.1443 9.50004 30.5V30.5C8.85571 29.8557 8.85571 28.811 9.50004 28.1667L17.6667 20L9.50004 11.8333C8.85571 11.189 8.85571 10.1443 9.50004 9.50001V9.50001C10.1444 8.85568 11.189 8.85568 11.8334 9.50001L20 17.6667L28.1667 9.50001C28.811 8.85568 29.8557 8.85568 30.5 9.50001V9.50001C31.1444 10.1443 31.1444 11.189 30.5 11.8333L22.3334 20L30.5 28.1667C31.1444 28.811 31.1444 29.8557 30.5 30.5V30.5C29.8557 31.1443 28.811 31.1443 28.1667 30.5L20 22.3333L11.8334 30.5Z" fill="var(--primary-01)"/>
</g>
</svg>