<svg viewBox="0 0 28 29" fill="none" xmlns="http://www.w3.org/2000/svg">
<path d="M10.9317 6.92833C10.7217 7.675 10.6167 8.45667 10.6167 9.25C10.6167 14.01 14.49 17.8833 19.25 17.8833C20.0433 17.8833 20.825 17.7783 21.5717 17.5683C20.3583 20.555 17.4183 22.6667 14 22.6667C9.49667 22.6667 5.83333 19.0033 5.83333 14.5C5.83333 11.0817 7.945 8.14167 10.9317 6.92833ZM14 4C8.20167 4 3.5 8.70167 3.5 14.5C3.5 20.2983 8.20167 25 14 25C19.7983 25 24.5 20.2983 24.5 14.5C24.5 13.9633 24.4533 13.4267 24.3833 12.9133C23.24 14.5117 21.3733 15.55 19.25 15.55C15.7733 15.55 12.95 12.7267 12.95 9.25C12.95 7.13833 13.9883 5.26 15.5867 4.11667C15.0733 4.04667 14.5367 4 14 4Z"/>
</svg>