<svg width="15" height="16" viewBox="0 0 15 16" fill="none" xmlns="http://www.w3.org/2000/svg">
<path fill-rule="evenodd" clip-rule="evenodd" d="M3 2.5C2.44772 2.5 2 2.94772 2 3.5V12.5C2 13.0523 2.44772 13.5 3 13.5H12C12.5523 13.5 13 13.0523 13 12.5V9C13 8.72386 12.7761 8.5 12.5 8.5C12.2239 8.5 12 8.72386 12 9V12.5H3V3.5H6.5C6.77614 3.5 7 3.27614 7 3C7 2.72386 6.77614 2.5 6.5 2.5H3ZM12.8536 2.64645C12.9015 2.69439 12.9377 2.74964 12.9621 2.80861C12.9861 2.86669 12.9996 2.9303 13 2.997V3V6C13 6.27614 12.7761 6.5 12.5 6.5C12.2239 6.5 12 6.27614 12 6V4.20711L6.85355 9.35355C6.65829 9.54882 6.34171 9.54882 6.14645 9.35355C5.95118 9.15829 5.95118 8.84171 6.14645 8.64645L11.2929 3.5H9.5C9.22386 3.5 9 3.27614 9 3C9 2.72386 9.22386 2.5 9.5 2.5H12.4999C12.5677 2.5 12.6324 2.51349 12.6914 2.53794C12.7504 2.56234 12.8056 2.59851 12.8536 2.64645Z" fill="var(--primary-01)"/>
</svg>