<svg viewBox="0 0 28 29" fill="none" xmlns="http://www.w3.org/2000/svg">
<path d="M13.9883 2.83334C7.54831 2.83334 2.33331 8.06001 2.33331 14.5C2.33331 20.94 7.54831 26.1667 13.9883 26.1667C20.44 26.1667 25.6666 20.94 25.6666 14.5C25.6666 8.06001 20.44 2.83334 13.9883 2.83334ZM22.0733 9.83334H18.6316C18.2583 8.37501 17.7216 6.97501 17.0216 5.68001C19.1683 6.41501 20.9533 7.90834 22.0733 9.83334ZM14 5.21334C14.9683 6.61334 15.7266 8.16501 16.2283 9.83334H11.7716C12.2733 8.16501 13.0316 6.61334 14 5.21334ZM4.96998 16.8333C4.78331 16.0867 4.66665 15.305 4.66665 14.5C4.66665 13.695 4.78331 12.9133 4.96998 12.1667H8.91331C8.81998 12.9367 8.74998 13.7067 8.74998 14.5C8.74998 15.2933 8.81998 16.0633 8.91331 16.8333H4.96998ZM5.92665 19.1667H9.36831C9.74165 20.625 10.2783 22.025 10.9783 23.32C8.83165 22.585 7.04665 21.1033 5.92665 19.1667ZM9.36831 9.83334H5.92665C7.04665 7.89668 8.83165 6.41501 10.9783 5.68001C10.2783 6.97501 9.74165 8.37501 9.36831 9.83334ZM14 23.7867C13.0316 22.3867 12.2733 20.835 11.7716 19.1667H16.2283C15.7266 20.835 14.9683 22.3867 14 23.7867ZM16.73 16.8333H11.27C11.165 16.0633 11.0833 15.2933 11.0833 14.5C11.0833 13.7067 11.165 12.925 11.27 12.1667H16.73C16.835 12.925 16.9166 13.7067 16.9166 14.5C16.9166 15.2933 16.835 16.0633 16.73 16.8333ZM17.0216 23.32C17.7216 22.025 18.2583 20.625 18.6316 19.1667H22.0733C20.9533 21.0917 19.1683 22.585 17.0216 23.32ZM19.0866 16.8333C19.18 16.0633 19.25 15.2933 19.25 14.5C19.25 13.7067 19.18 12.9367 19.0866 12.1667H23.03C23.2166 12.9133 23.3333 13.695 23.3333 14.5C23.3333 15.305 23.2166 16.0867 23.03 16.8333H19.0866Z" fill="white"/>
</svg>