<svg viewBox="0 0 28 29" fill="none" xmlns="http://www.w3.org/2000/svg">
<mask id="mask0_511_83" style="mask-type:alpha" maskUnits="userSpaceOnUse" x="0" y="0" width="28" height="29">
<rect y="0.5" width="28" height="28" fill="#D9D9D9"/>
</mask>
<g mask="url(#mask0_511_83)">
<path d="M20.0083 24.65L12.95 17.5333C12.5611 17.6889 12.1676 17.8056 11.7693 17.8833C11.3703 17.9611 10.9472 18 10.5 18C8.55556 18 6.90278 17.3194 5.54167 15.9583C4.18056 14.5972 3.5 12.9444 3.5 11C3.5 10.3 3.59722 9.63383 3.79167 9.0015C3.98611 8.36994 4.25833 7.77222 4.60833 7.20833L8.86667 11.4667L10.9667 9.36667L6.70833 5.10833C7.27222 4.75833 7.86994 4.48611 8.5015 4.29167C9.13383 4.09722 9.8 4 10.5 4C12.4444 4 14.0972 4.68056 15.4583 6.04167C16.8194 7.40278 17.5 9.05556 17.5 11C17.5 11.4472 17.4611 11.8699 17.3833 12.2682C17.3056 12.6672 17.1889 13.0611 17.0333 13.45L24.15 20.5083C24.3833 20.7417 24.5 21.0236 24.5 21.3542C24.5 21.6847 24.3833 21.9667 24.15 22.2L21.7 24.65C21.4667 24.8833 21.1847 25 20.8542 25C20.5236 25 20.2417 24.8833 20.0083 24.65ZM20.8542 22.1708L21.6417 21.3833L14.175 13.9167C14.525 13.5278 14.7778 13.0755 14.9333 12.5598C15.0889 12.0449 15.1667 11.525 15.1667 11C15.1667 9.83333 14.7926 8.81717 14.0443 7.9515C13.2953 7.08661 12.3667 6.56667 11.2583 6.39167L13.4167 8.55C13.65 8.78333 13.7667 9.05556 13.7667 9.36667C13.7667 9.67778 13.65 9.95 13.4167 10.1833L9.68333 13.9167C9.45 14.15 9.17778 14.2667 8.86667 14.2667C8.55556 14.2667 8.28333 14.15 8.05 13.9167L5.89167 11.7583C6.06667 12.8667 6.587 13.7949 7.45267 14.5432C8.31756 15.2922 9.33333 15.6667 10.5 15.6667C11.0056 15.6667 11.5111 15.5889 12.0167 15.4333C12.5222 15.2778 12.9792 15.0347 13.3875 14.7042L20.8542 22.1708Z" fill="var(--primary-01)"/>
</g>
</svg>