<svg viewBox="0 0 28 29" fill="none" xmlns="http://www.w3.org/2000/svg">
<mask id="mask0_496_193" style="mask-type:alpha" maskUnits="userSpaceOnUse" x="0" y="0" width="28" height="29">
<rect y="0.5" width="28" height="28" fill="#D9D9D9"/>
</mask>
<g mask="url(#mask0_496_193)">
<path d="M14 18C14.9722 18 15.7986 17.6597 16.4792 16.9792C17.1597 16.2986 17.5 15.4722 17.5 14.5C17.5 13.5278 17.1597 12.7014 16.4792 12.0209C15.7986 11.3403 14.9722 11 14 11C13.0278 11 12.2014 11.3403 11.5209 12.0209C10.8403 12.7014 10.5 13.5278 10.5 14.5C10.5 15.4722 10.8403 16.2986 11.5209 16.9792C12.2014 17.6597 13.0278 18 14 18ZM14 20.3334C12.3861 20.3334 11.0106 19.7644 9.87352 18.6265C8.73563 17.4894 8.16669 16.1139 8.16669 14.5C8.16669 12.8861 8.73563 11.5102 9.87352 10.3724C11.0106 9.23524 12.3861 8.66669 14 8.66669C15.6139 8.66669 16.9898 9.23524 18.1277 10.3724C19.2648 11.5102 19.8334 12.8861 19.8334 14.5C19.8334 16.1139 19.2648 17.4894 18.1277 18.6265C16.9898 19.7644 15.6139 20.3334 14 20.3334ZM2.33335 15.6667C2.0028 15.6667 1.72591 15.5547 1.50269 15.3307C1.27869 15.1075 1.16669 14.8306 1.16669 14.5C1.16669 14.1695 1.27869 13.8922 1.50269 13.6682C1.72591 13.445 2.0028 13.3334 2.33335 13.3334H4.66669C4.99724 13.3334 5.27452 13.445 5.49852 13.6682C5.72174 13.8922 5.83335 14.1695 5.83335 14.5C5.83335 14.8306 5.72174 15.1075 5.49852 15.3307C5.27452 15.5547 4.99724 15.6667 4.66669 15.6667H2.33335ZM23.3334 15.6667C23.0028 15.6667 22.7259 15.5547 22.5027 15.3307C22.2787 15.1075 22.1667 14.8306 22.1667 14.5C22.1667 14.1695 22.2787 13.8922 22.5027 13.6682C22.7259 13.445 23.0028 13.3334 23.3334 13.3334H25.6667C25.9972 13.3334 26.2741 13.445 26.4974 13.6682C26.7214 13.8922 26.8334 14.1695 26.8334 14.5C26.8334 14.8306 26.7214 15.1075 26.4974 15.3307C26.2741 15.5547 25.9972 15.6667 25.6667 15.6667H23.3334ZM14 6.33335C13.6695 6.33335 13.3926 6.22135 13.1694 5.99735C12.9454 5.77413 12.8334 5.49724 12.8334 5.16669V2.83335C12.8334 2.5028 12.9454 2.22552 13.1694 2.00152C13.3926 1.7783 13.6695 1.66669 14 1.66669C14.3306 1.66669 14.6079 1.7783 14.8319 2.00152C15.0551 2.22552 15.1667 2.5028 15.1667 2.83335V5.16669C15.1667 5.49724 15.0551 5.77413 14.8319 5.99735C14.6079 6.22135 14.3306 6.33335 14 6.33335ZM14 27.3334C13.6695 27.3334 13.3926 27.2214 13.1694 26.9974C12.9454 26.7741 12.8334 26.4972 12.8334 26.1667V23.8334C12.8334 23.5028 12.9454 23.2259 13.1694 23.0027C13.3926 22.7787 13.6695 22.6667 14 22.6667C14.3306 22.6667 14.6079 22.7787 14.8319 23.0027C15.0551 23.2259 15.1667 23.5028 15.1667 23.8334V26.1667C15.1667 26.4972 15.0551 26.7741 14.8319 26.9974C14.6079 27.2214 14.3306 27.3334 14 27.3334ZM6.59169 8.72502L5.33752 7.50002C5.10419 7.28613 4.99219 7.01391 5.00152 6.68335C5.01163 6.3528 5.12363 6.07085 5.33752 5.83752C5.57085 5.60419 5.8528 5.48752 6.18335 5.48752C6.51391 5.48752 6.78613 5.60419 7.00002 5.83752L8.22502 7.09169C8.43891 7.32502 8.54585 7.59724 8.54585 7.90835C8.54585 8.21946 8.43891 8.49169 8.22502 8.72502C8.01113 8.95835 7.74396 9.06996 7.42352 9.05985C7.1023 9.05052 6.82502 8.93891 6.59169 8.72502ZM21 23.1625L19.775 21.9084C19.5611 21.675 19.4542 21.3981 19.4542 21.0777C19.4542 20.7565 19.5611 20.4889 19.775 20.275C19.9889 20.0417 20.2565 19.9301 20.5777 19.9402C20.8981 19.9495 21.175 20.0611 21.4084 20.275L22.6625 21.5C22.8959 21.7139 23.0079 21.9861 22.9985 22.3167C22.9884 22.6472 22.8764 22.9292 22.6625 23.1625C22.4292 23.3959 22.1472 23.5125 21.8167 23.5125C21.4861 23.5125 21.2139 23.3959 21 23.1625ZM19.775 8.72502C19.5417 8.51113 19.4301 8.24358 19.4402 7.92235C19.4495 7.60191 19.5611 7.32502 19.775 7.09169L21 5.83752C21.2139 5.60419 21.4861 5.49219 21.8167 5.50152C22.1472 5.51163 22.4292 5.62363 22.6625 5.83752C22.8959 6.07085 23.0125 6.3528 23.0125 6.68335C23.0125 7.01391 22.8959 7.28613 22.6625 7.50002L21.4084 8.72502C21.175 8.93891 20.9028 9.04585 20.5917 9.04585C20.2806 9.04585 20.0084 8.93891 19.775 8.72502ZM5.33752 23.1625C5.10419 22.9292 4.98752 22.6472 4.98752 22.3167C4.98752 21.9861 5.10419 21.7139 5.33752 21.5L6.59169 20.275C6.82502 20.0611 7.1023 19.9542 7.42352 19.9542C7.74396 19.9542 8.01113 20.0611 8.22502 20.275C8.45835 20.4889 8.57035 20.7565 8.56102 21.0777C8.55091 21.3981 8.43891 21.675 8.22502 21.9084L7.00002 23.1625C6.78613 23.3959 6.51391 23.5075 6.18335 23.4974C5.8528 23.488 5.57085 23.3764 5.33752 23.1625Z"/>
</g>
</svg>