<svg width="25" height="25" viewBox="0 0 25 25" fill="none" xmlns="http://www.w3.org/2000/svg">
<path d="M16.1585 16.987C15.9752 16.7703 15.8835 16.5243 15.8835 16.249C15.8835 15.9743 15.9752 15.7453 16.1585 15.562L18.0085 13.712H10.8335C10.5502 13.712 10.3128 13.616 10.1215 13.424C9.9295 13.2327 9.8335 12.9953 9.8335 12.712C9.8335 12.4287 9.9295 12.191 10.1215 11.999C10.3128 11.8077 10.5502 11.712 10.8335 11.712H18.0085L16.1585 9.86201C15.9585 9.66201 15.8585 9.42467 15.8585 9.15001C15.8585 8.87467 15.9585 8.63701 16.1585 8.43701C16.3418 8.23701 16.5712 8.13701 16.8465 8.13701C17.1212 8.13701 17.3502 8.22867 17.5335 8.41201L21.1335 12.012C21.2335 12.112 21.3045 12.2203 21.3465 12.337C21.3878 12.4537 21.4085 12.5787 21.4085 12.712C21.4085 12.8453 21.3878 12.9703 21.3465 13.087C21.3045 13.2037 21.2335 13.312 21.1335 13.412L17.5335 17.012C17.3168 17.2287 17.0795 17.3243 16.8215 17.299C16.5628 17.2743 16.3418 17.1703 16.1585 16.987ZM5.8335 21.712C5.2835 21.712 4.8125 21.5163 4.4205 21.125C4.02916 20.733 3.8335 20.262 3.8335 19.712V5.71201C3.8335 5.16201 4.02916 4.69101 4.4205 4.29901C4.8125 3.90767 5.2835 3.71201 5.8335 3.71201H11.8335C12.1168 3.71201 12.3545 3.80767 12.5465 3.99901C12.7378 4.19101 12.8335 4.42867 12.8335 4.71201C12.8335 4.99534 12.7378 5.23267 12.5465 5.42401C12.3545 5.61601 12.1168 5.71201 11.8335 5.71201H5.8335V19.712H11.8335C12.1168 19.712 12.3545 19.808 12.5465 20C12.7378 20.1913 12.8335 20.4287 12.8335 20.712C12.8335 20.9953 12.7378 21.2327 12.5465 21.424C12.3545 21.616 12.1168 21.712 11.8335 21.712H5.8335Z" fill="var(--primary-01)"/>
</svg>