<svg width="24" height="24" viewBox="0 0 36 36" fill="none" xmlns="http://www.w3.org/2000/svg">
<path fill-rule="evenodd" clip-rule="evenodd" d="M6 7.5C5.17843 7.5 4.5 8.17843 4.5 9V27C4.5 27.8216 5.17843 28.5 6 28.5H30C30.8216 28.5 31.5 27.8216 31.5 27V9C31.5 8.17843 30.8216 7.5 30 7.5H6ZM1.5 9C1.5 6.52157 3.52157 4.5 6 4.5H30C32.4784 4.5 34.5 6.52157 34.5 9V27C34.5 29.4784 32.4784 31.5 30 31.5H6C3.52157 31.5 1.5 29.4784 1.5 27V9Z" fill="white"/>
<path fill-rule="evenodd" clip-rule="evenodd" d="M1.77116 8.13994C2.24623 7.46126 3.18153 7.29621 3.8602 7.77128L18 17.6691L32.1398 7.77128C32.8185 7.29621 33.7538 7.46126 34.2289 8.13994C34.7039 8.81861 34.5389 9.7539 33.8602 10.229L18.8602 20.729C18.3437 21.0905 17.6563 21.0905 17.1398 20.729L2.13981 10.229C1.46114 9.7539 1.29609 8.81861 1.77116 8.13994Z" fill="white"/>
</svg>
