<svg width="25" height="25" viewBox="0 0 25 25" fill="none" xmlns="http://www.w3.org/2000/svg">
<path fill-rule="evenodd" clip-rule="evenodd" d="M8.48608 22.0634C9.70276 22.5886 11.0028 22.8513 12.3861 22.8513C13.7694 22.8513 15.0695 22.5886 16.2861 22.0634C17.5028 21.5387 18.5612 20.8263 19.4611 19.9263C20.3611 19.0264 21.0735 17.968 21.5981 16.7513C22.1234 15.5347 22.3861 14.2346 22.3861 12.8513C22.3861 11.468 22.1234 10.168 21.5981 8.95129C21.0735 7.73462 20.3611 6.67627 19.4611 5.77637C18.5612 4.87634 17.5028 4.1637 16.2861 3.63831C15.0695 3.11365 13.7694 2.85132 12.3861 2.85132C11.0028 2.85132 9.70276 3.11365 8.48608 3.63831C7.26941 4.1637 6.21106 4.87634 5.31116 5.77637C4.41113 6.67627 3.69873 7.73462 3.17407 8.95129C2.6488 10.168 2.38611 11.468 2.38611 12.8513C2.38611 14.2346 2.6488 15.5347 3.17407 16.7513C3.69873 17.968 4.41113 19.0264 5.31116 19.9263C6.21106 20.8263 7.26941 21.5387 8.48608 22.0634ZM18.0612 18.5264C16.5111 20.0763 14.6194 20.8513 12.3861 20.8513C10.1528 20.8513 8.26111 20.0763 6.71106 18.5264C5.16113 16.9763 4.38611 15.0846 4.38611 12.8513C4.38611 10.618 5.16113 8.72632 6.71106 7.17627C8.26111 5.62634 10.1528 4.85132 12.3861 4.85132C14.6194 4.85132 16.5111 5.62634 18.0612 7.17627C19.6111 8.72632 20.3861 10.618 20.3861 12.8513C20.3861 15.0846 19.6111 16.9763 18.0612 18.5264ZM17.6825 10.0477L16.9896 9.35486C16.7944 9.15967 16.4778 9.15967 16.2825 9.35486L11.3396 14.2977C11.1444 14.493 10.8278 14.493 10.6326 14.2977L8.48962 12.1549C8.29443 11.9596 7.97778 11.9596 7.78247 12.1549L7.0896 12.8478C6.89441 13.0431 6.89441 13.3596 7.0896 13.5549L10.6326 17.0978C10.8278 17.2931 11.1444 17.2931 11.3396 17.0978L17.6825 10.7549C17.8778 10.5597 17.8778 10.243 17.6825 10.0477Z" fill="var(--primary-01)"/>
</svg>