<svg width="24" height="24" viewBox="0 0 24 24" fill="none" xmlns="http://www.w3.org/2000/svg">
<mask id="mask0_512_110" style="mask-type:alpha" maskUnits="userSpaceOnUse" x="0" y="0" width="24" height="24">
<rect width="24" height="24" fill="#D9D9D9"/>
</mask>
<g mask="url(#mask0_512_110)">
<path d="M7 13.5C7.41667 13.5 7.77067 13.354 8.062 13.062C8.354 12.7707 8.5 12.4167 8.5 12C8.5 11.5833 8.354 11.2293 8.062 10.938C7.77067 10.646 7.41667 10.5 7 10.5C6.58333 10.5 6.22933 10.646 5.938 10.938C5.646 11.2293 5.5 11.5833 5.5 12C5.5 12.4167 5.646 12.7707 5.938 13.062C6.22933 13.354 6.58333 13.5 7 13.5ZM12 13.5C12.4167 13.5 12.7707 13.354 13.062 13.062C13.354 12.7707 13.5 12.4167 13.5 12C13.5 11.5833 13.354 11.2293 13.062 10.938C12.7707 10.646 12.4167 10.5 12 10.5C11.5833 10.5 11.2293 10.646 10.938 10.938C10.646 11.2293 10.5 11.5833 10.5 12C10.5 12.4167 10.646 12.7707 10.938 13.062C11.2293 13.354 11.5833 13.5 12 13.5ZM17 13.5C17.4167 13.5 17.7707 13.354 18.062 13.062C18.354 12.7707 18.5 12.4167 18.5 12C18.5 11.5833 18.354 11.2293 18.062 10.938C17.7707 10.646 17.4167 10.5 17 10.5C16.5833 10.5 16.2293 10.646 15.938 10.938C15.646 11.2293 15.5 11.5833 15.5 12C15.5 12.4167 15.646 12.7707 15.938 13.062C16.2293 13.354 16.5833 13.5 17 13.5ZM12 22C10.6167 22 9.31667 21.7373 8.1 21.212C6.88333 20.6873 5.825 19.975 4.925 19.075C4.025 18.175 3.31267 17.1167 2.788 15.9C2.26267 14.6833 2 13.3833 2 12C2 10.6167 2.26267 9.31667 2.788 8.1C3.31267 6.88333 4.025 5.825 4.925 4.925C5.825 4.025 6.88333 3.31233 8.1 2.787C9.31667 2.26233 10.6167 2 12 2C13.3833 2 14.6833 2.26233 15.9 2.787C17.1167 3.31233 18.175 4.025 19.075 4.925C19.975 5.825 20.6873 6.88333 21.212 8.1C21.7373 9.31667 22 10.6167 22 12C22 13.3833 21.7373 14.6833 21.212 15.9C20.6873 17.1167 19.975 18.175 19.075 19.075C18.175 19.975 17.1167 20.6873 15.9 21.212C14.6833 21.7373 13.3833 22 12 22ZM12 20C14.2333 20 16.125 19.225 17.675 17.675C19.225 16.125 20 14.2333 20 12C20 9.76667 19.225 7.875 17.675 6.325C16.125 4.775 14.2333 4 12 4C9.76667 4 7.875 4.775 6.325 6.325C4.775 7.875 4 9.76667 4 12C4 14.2333 4.775 16.125 6.325 17.675C7.875 19.225 9.76667 20 12 20Z" fill="var(--primary-01)"/>
</g>
</svg>