<svg width="24" height="24" viewBox="0 0 24 24" fill="none" xmlns="http://www.w3.org/2000/svg">
<mask id="mask0_804_796" style="mask-type:alpha" maskUnits="userSpaceOnUse" x="0" y="0" width="24" height="24">
<rect width="24" height="24" fill="#D9D9D9"/>
</mask>
<g mask="url(#mask0_804_796)">
<path d="M11.9998 16C13.2498 16 14.3125 15.5627 15.1878 14.688C16.0625 13.8127 16.4998 12.75 16.4998 11.5C16.4998 10.25 16.0625 9.18733 15.1878 8.312C14.3125 7.43733 13.2498 7 11.9998 7C10.7498 7 9.68714 7.43733 8.8118 8.312C7.93714 9.18733 7.4998 10.25 7.4998 11.5C7.4998 12.75 7.93714 13.8127 8.8118 14.688C9.68714 15.5627 10.7498 16 11.9998 16ZM11.9998 14.2C11.2498 14.2 10.6125 13.9373 10.0878 13.412C9.56247 12.8873 9.2998 12.25 9.2998 11.5C9.2998 10.75 9.56247 10.1123 10.0878 9.587C10.6125 9.06233 11.2498 8.8 11.9998 8.8C12.7498 8.8 13.3875 9.06233 13.9128 9.587C14.4375 10.1123 14.6998 10.75 14.6998 11.5C14.6998 12.25 14.4375 12.8873 13.9128 13.412C13.3875 13.9373 12.7498 14.2 11.9998 14.2ZM11.9998 19C9.68314 19 7.56647 18.3877 5.64981 17.163C3.73314 15.9377 2.28314 14.2833 1.2998 12.2C1.2498 12.1167 1.21647 12.0123 1.1998 11.887C1.18314 11.7623 1.1748 11.6333 1.1748 11.5C1.1748 11.3667 1.18314 11.2373 1.1998 11.112C1.21647 10.9873 1.2498 10.8833 1.2998 10.8C2.28314 8.71667 3.73314 7.06267 5.64981 5.838C7.56647 4.61267 9.68314 4 11.9998 4C14.3165 4 16.4331 4.61267 18.3498 5.838C20.2665 7.06267 21.7165 8.71667 22.6998 10.8C22.7498 10.8833 22.7831 10.9873 22.7998 11.112C22.8165 11.2373 22.8248 11.3667 22.8248 11.5C22.8248 11.6333 22.8165 11.7623 22.7998 11.887C22.7831 12.0123 22.7498 12.1167 22.6998 12.2C21.7165 14.2833 20.2665 15.9377 18.3498 17.163C16.4331 18.3877 14.3165 19 11.9998 19ZM11.9998 17C13.8831 17 15.6125 16.504 17.1878 15.512C18.7625 14.5207 19.9665 13.1833 20.7998 11.5C19.9665 9.81667 18.7625 8.479 17.1878 7.487C15.6125 6.49567 13.8831 6 11.9998 6C10.1165 6 8.38714 6.49567 6.8118 7.487C5.23714 8.479 4.03314 9.81667 3.1998 11.5C4.03314 13.1833 5.23714 14.5207 6.8118 15.512C8.38714 16.504 10.1165 17 11.9998 17Z" fill="var(--primary-01)"/>
</g>
</svg>