<svg width="25" height="25" viewBox="0 0 25 25" fill="none" xmlns="http://www.w3.org/2000/svg">
<mask id="mask0_512_91" style="mask-type:alpha" maskUnits="userSpaceOnUse" x="0" y="0" width="25" height="25">
<rect x="0.254395" y="0.469238" width="24" height="24" fill="#D9D9D9"/>
</mask>
<g mask="url(#mask0_512_91)">
<path d="M12.2544 17.4692C12.5377 17.4692 12.7754 17.3732 12.9674 17.1812C13.1587 16.9899 13.2544 16.7526 13.2544 16.4692C13.2544 16.1859 13.1587 15.9482 12.9674 15.7562C12.7754 15.5649 12.5377 15.4692 12.2544 15.4692C11.9711 15.4692 11.7337 15.5649 11.5424 15.7562C11.3504 15.9482 11.2544 16.1859 11.2544 16.4692C11.2544 16.7526 11.3504 16.9899 11.5424 17.1812C11.7337 17.3732 11.9711 17.4692 12.2544 17.4692ZM12.2544 13.4692C12.5377 13.4692 12.7754 13.3732 12.9674 13.1812C13.1587 12.9899 13.2544 12.7526 13.2544 12.4692V8.46924C13.2544 8.1859 13.1587 7.94824 12.9674 7.75624C12.7754 7.56491 12.5377 7.46924 12.2544 7.46924C11.9711 7.46924 11.7337 7.56491 11.5424 7.75624C11.3504 7.94824 11.2544 8.1859 11.2544 8.46924V12.4692C11.2544 12.7526 11.3504 12.9899 11.5424 13.1812C11.7337 13.3732 11.9711 13.4692 12.2544 13.4692ZM12.2544 22.4692C10.8711 22.4692 9.57106 22.2066 8.35439 21.6812C7.13773 21.1566 6.07939 20.4442 5.17939 19.5442C4.27939 18.6442 3.56706 17.5859 3.04239 16.3692C2.51706 15.1526 2.25439 13.8526 2.25439 12.4692C2.25439 11.0859 2.51706 9.78591 3.04239 8.56924C3.56706 7.35257 4.27939 6.29424 5.17939 5.39424C6.07939 4.49424 7.13773 3.78157 8.35439 3.25624C9.57106 2.73157 10.8711 2.46924 12.2544 2.46924C13.6377 2.46924 14.9377 2.73157 16.1544 3.25624C17.3711 3.78157 18.4294 4.49424 19.3294 5.39424C20.2294 6.29424 20.9417 7.35257 21.4664 8.56924C21.9917 9.78591 22.2544 11.0859 22.2544 12.4692C22.2544 13.8526 21.9917 15.1526 21.4664 16.3692C20.9417 17.5859 20.2294 18.6442 19.3294 19.5442C18.4294 20.4442 17.3711 21.1566 16.1544 21.6812C14.9377 22.2066 13.6377 22.4692 12.2544 22.4692ZM12.2544 20.4692C14.4877 20.4692 16.3794 19.6942 17.9294 18.1442C19.4794 16.5942 20.2544 14.7026 20.2544 12.4692C20.2544 10.2359 19.4794 8.34424 17.9294 6.79424C16.3794 5.24424 14.4877 4.46924 12.2544 4.46924C10.0211 4.46924 8.12939 5.24424 6.57939 6.79424C5.02939 8.34424 4.25439 10.2359 4.25439 12.4692C4.25439 14.7026 5.02939 16.5942 6.57939 18.1442C8.12939 19.6942 10.0211 20.4692 12.2544 20.4692Z" fill="var(--primary-01)"/>
</g>
</svg>