<svg width="256" height="256" viewBox="0 0 256 256" fill="none" xmlns="http://www.w3.org/2000/svg">
    <path d="M97.8257 19.5337C74.0738 23.2114 51.8543 37.4625 38.0629 58.1496C28.8686 71.941 29.3284 75.6187 42.3536 88.3374C54.6126 100.443 69.9364 110.863 89.8573 120.824C124.336 137.68 170.614 148.1 184.252 141.971C189.002 139.825 193.753 126.34 195.285 111.323C196.511 98.2979 192.68 78.8367 186.244 65.505C171.073 34.551 132.151 14.3236 97.8257 19.5337Z" fill="white"/>
    <path d="M35.3047 27.9617C1.43914 35.3171 -6.98894 65.0453 15.6903 96.7655C51.2414 146.568 142.418 181.2 194.979 165.11C209.23 160.666 220.876 149.633 223.174 138.14C225.32 128.026 222.561 115.92 215.972 105.807C210.609 97.6849 203.713 89.4101 202.947 90.1763C201.721 91.5554 204.939 112.702 207.084 118.372C210.302 126.647 210.302 131.244 206.625 137.067C201.568 145.342 192.986 148.713 174.598 149.479C155.903 150.246 140.732 148.1 120.811 141.817C79.284 128.639 37.1436 100.137 24.4248 76.3849C16.15 60.7546 18.755 50.1812 32.5464 43.2855C36.8371 41.1402 40.9745 39.4546 41.7407 39.4546C42.6601 39.3013 46.7975 36.2366 51.0882 32.5589L58.5969 25.6632L51.8544 25.8164C48.0234 25.8164 40.668 26.8891 35.3047 27.9617Z" fill="white"/>
    <path d="M26.7232 124.042C33.9254 147.794 44.4988 163.117 61.3549 174.457C87.2521 192.079 119.585 194.531 148.088 180.893L156.822 176.756L142.418 174.763C105.641 169.86 65.0326 152.238 37.9095 129.405C32.0865 124.655 27.0297 120.671 26.4167 120.671C25.957 120.671 26.1102 122.203 26.7232 124.042Z" fill="white"/>
    <path d="M230.989 168.021C225.319 173.844 225.013 180.587 230.376 185.797C235.74 191.313 243.708 191.466 249.071 186.103C254.435 180.74 254.281 172.771 248.765 167.408C243.555 162.045 236.812 162.351 230.989 168.021Z" fill="white"/>
    <path d="M166.017 191.773C152.685 197.749 147.781 212.92 155.137 225.638C164.484 241.575 188.696 240.503 196.664 223.953C206.012 204.185 185.784 183.038 166.017 191.773Z" fill="white"/>
    <style>
        @media (prefers-color-scheme:light){:root{filter:invert(100%)}}
    </style>
</svg>