<svg width="256" height="256" viewBox="0 0 256 256" fill="none" xmlns="http://www.w3.org/2000/svg">
<path d="M146.472 157.432L152.999 153.26L79.7889 65.1566C78.8007 65.9438 77.8632 66.7642 76.9422 67.6015C74.079 70.2471 71.4836 73.1941 69.2231 76.3755L67.1869 74.925C67.1868 74.9252 67.1866 74.9254 67.1865 74.9256C66.9984 75.1895 66.7963 75.4689 66.5844 75.7619C65.3707 77.44 63.8342 79.5643 62.7686 81.7841C61.6006 84.2173 60.77 87.2164 61.7647 90.2875C60.9331 88.8835 60.1974 87.4365 59.5747 85.9447C57.4773 80.9199 57.806 76.1306 61.4846 72.9392L61.4897 72.9347C64.188 70.5809 68.2626 69.0096 72.1282 68.0915L72.8317 67.9244L73.3374 67.4076C76.2547 64.4261 79.5118 61.762 83.0624 59.4485L89.5908 55.1947L81.8062 54.8563L81.7938 54.8557C81.0321 54.8226 80.2392 54.7881 79.425 54.7708C71.8403 54.5993 63.5511 55.4591 56.3496 59.2042C51.0301 61.9641 46.3035 66.4579 43.9935 72.2708L43.9911 72.277C42.1554 76.9325 42.0196 82.0167 42.9056 86.7179L42.9069 86.7248C44.6454 95.8081 50.1334 104.186 56.1825 110.979L57.5534 118.58C60.8928 137.095 73.1 153.684 91.647 161.768C110.177 169.87 130.63 167.556 146.472 157.432ZM107.114 50.5063C96.5031 51.9446 86.4554 56.5132 78.2214 63.2091L94.2392 135.935C112.758 145.245 134.476 151.742 155.373 150.67L155.499 153.167C155.5 153.167 155.5 153.167 155.501 153.167C163.616 152.755 172.525 151.086 179.839 146.494C182.445 144.872 184.915 142.777 186.942 140.194C190.959 135.087 192.611 128.614 191.793 122.254C190.824 114.72 187.008 108.115 182.553 102.603C180.668 100.263 178.704 98.1795 176.758 96.2851L171.246 90.9189L172.55 98.5003C173.142 101.941 173.416 105.436 173.385 108.969C173.368 109.705 173.352 110.409 173.32 111.107L173.288 111.818L173.635 112.439C174.012 113.115 174.377 113.813 174.729 114.517C176.888 118.988 178.216 123.742 176.638 127.563L176.636 127.569C175.595 130.108 173.164 132.15 170.208 133.397C168.506 134.115 166.709 134.653 164.85 135.045C165.67 134.645 166.452 134.112 167.139 133.397C168.357 132.13 168.989 130.577 169.425 129.455L169.425 129.453C176.727 110.596 173.339 88.0463 160.818 72.181C148.298 56.3162 127.146 47.7749 107.114 50.5063ZM93.1185 138.17C95.7327 139.484 98.4127 140.745 101.148 141.938C96.1336 139.78 91.2391 137.347 86.4961 134.649C88.685 135.882 90.8961 137.056 93.1185 138.17ZM134.199 133.575C121.489 130.858 109.04 125.992 97.533 119.835C105.139 123.779 113.089 127.063 121.152 129.781L121.154 129.782C125.416 131.216 129.773 132.517 134.199 133.575Z" fill="black" stroke="white" stroke-width="5"/>
<path d="M199.741 166.981C205.949 166.981 210.981 161.949 210.981 155.741C210.981 149.533 205.949 144.5 199.741 144.5C193.533 144.5 188.5 149.533 188.5 155.741C188.5 161.949 193.533 166.981 199.741 166.981Z" fill="black" stroke="white" stroke-width="5"/>
<path d="M157.572 197.645C167.553 197.645 175.645 189.553 175.645 179.572C175.645 169.591 167.553 161.5 157.572 161.5C147.591 161.5 139.5 169.591 139.5 179.572C139.5 189.553 147.591 197.645 157.572 197.645Z" fill="black" stroke="white" stroke-width="5"/>
    <style>
        @media (prefers-color-scheme:dark){:root{filter:invert(100%)}}
    </style>
</svg>