<svg width="134" height="26" viewBox="0 0 134 26" fill="none" xmlns="http://www.w3.org/2000/svg">
<path d="M10.668 5.342V8.45L0.56 12.93L0 11.894V10.214L10.668 5.342ZM10.668 14.694V18.054L0 13.182V11.39L0.588 10.214L10.668 14.694Z" fill="var(--primary-01)"/>
<path d="M15.696 18.166V15.03L26.056 10.438L26.616 11.474V13.182L15.696 18.166ZM15.696 8.59V5.174L26.616 10.186V11.978L26.028 13.154L15.696 8.59Z" fill="var(--primary-01)"/>
<path d="M34.8359 14.246C34.8359 15.0673 34.9106 15.8047 35.0599 16.458C35.2093 17.0927 35.4333 17.634 35.7319 18.082C36.0493 18.5113 36.4506 18.838 36.9359 19.062C37.4213 19.2673 37.9813 19.37 38.6159 19.37C39.2879 19.37 39.8666 19.2487 40.3519 19.006C40.8373 18.7447 41.2479 18.418 41.5839 18.026C41.9386 17.6153 42.2279 17.1953 42.4519 16.766L44.2159 18.026C43.8613 18.7353 43.3946 19.3607 42.8159 19.902C42.2373 20.4433 41.5373 20.8727 40.7159 21.19C39.9133 21.4887 38.9519 21.638 37.8319 21.638C36.2079 21.638 34.7799 21.3393 33.5479 20.742C32.3346 20.1447 31.3919 19.2953 30.7199 18.194C30.0479 17.074 29.7119 15.7487 29.7119 14.218C29.7119 12.7247 30.0386 11.418 30.6919 10.298C31.3639 9.178 32.2693 8.31 33.4079 7.694C34.5653 7.05933 35.8719 6.742 37.3279 6.742C38.5039 6.742 39.5306 6.91933 40.4079 7.274C41.3039 7.61 42.0506 8.12333 42.6479 8.814C43.2453 9.486 43.7026 10.3447 44.0199 11.39C44.3373 12.4167 44.4959 13.6207 44.4959 15.002H34.2199V13.014H40.3519L39.7359 13.826C39.7173 12.874 39.6613 12.0807 39.5679 11.446C39.4746 10.8113 39.3346 10.3167 39.1479 9.962C38.9613 9.58867 38.7279 9.318 38.4479 9.15C38.1679 8.982 37.8319 8.898 37.4399 8.898C37.0479 8.898 36.6933 9.00067 36.3759 9.206C36.0773 9.41133 35.8066 9.738 35.5639 10.186C35.3399 10.6153 35.1626 11.166 35.0319 11.838C34.9013 12.51 34.8359 13.3127 34.8359 14.246Z" fill="var(--primary-01)"/>
<path d="M62.0482 18.698C62.0482 18.9967 62.1602 19.202 62.3842 19.314C62.6269 19.4073 62.9722 19.482 63.4202 19.538L63.5322 19.566V21.358H57.2602V18.054L56.9242 18.278V3.55C56.9242 3.34467 56.8682 3.186 56.7562 3.074C56.6629 2.962 56.5136 2.878 56.3082 2.822C56.1216 2.74733 55.8696 2.67267 55.5522 2.598L55.3282 2.542V0.75H62.0482V18.698ZM52.8082 6.742C53.6669 6.742 54.4136 6.87267 55.0482 7.134C55.6829 7.39533 56.2429 7.78733 56.7282 8.31C57.2136 8.83267 57.6429 9.486 58.0162 10.27L57.9322 13.07C57.5402 12.2113 57.1576 11.502 56.7842 10.942C56.4109 10.3633 56.0189 9.94333 55.6082 9.682C55.2162 9.402 54.7496 9.262 54.2082 9.262C53.7416 9.262 53.3309 9.38333 52.9762 9.626C52.6402 9.85 52.3509 10.186 52.1082 10.634C51.8842 11.0633 51.7162 11.5953 51.6042 12.23C51.5109 12.8647 51.4642 13.574 51.4642 14.358C51.4642 15.1047 51.5109 15.7767 51.6042 16.374C51.7162 16.9713 51.8749 17.4753 52.0802 17.886C52.3042 18.2967 52.5749 18.6047 52.8922 18.81C53.2282 19.0153 53.6109 19.118 54.0402 19.118C54.5629 19.118 55.0296 18.9687 55.4402 18.67C55.8509 18.3527 56.2522 17.886 56.6442 17.27C57.0362 16.654 57.4656 15.8607 57.9322 14.89L57.9882 17.662C57.5402 18.5393 57.0642 19.2767 56.5602 19.874C56.0562 20.4527 55.4869 20.8913 54.8522 21.19C54.2362 21.4887 53.4896 21.638 52.6122 21.638C51.3242 21.638 50.1949 21.3393 49.2242 20.742C48.2722 20.126 47.5256 19.2767 46.9842 18.194C46.4616 17.0927 46.2002 15.814 46.2002 14.358C46.2002 12.8647 46.4802 11.5487 47.0402 10.41C47.6002 9.25267 48.3749 8.35667 49.3642 7.722C50.3722 7.06867 51.5202 6.742 52.8082 6.742Z" fill="var(--primary-01)"/>
<path d="M71.036 7.022V16.766C71.036 17.2513 71.0827 17.6527 71.176 17.97C71.288 18.2873 71.456 18.5207 71.68 18.67C71.904 18.8007 72.2027 18.866 72.576 18.866C73.0053 18.866 73.3973 18.754 73.752 18.53C74.1253 18.306 74.4893 17.9607 74.844 17.494C75.1987 17.0087 75.544 16.374 75.88 15.59L75.936 18.222C75.544 18.9873 75.0867 19.622 74.564 20.126C74.0413 20.63 73.4533 21.0127 72.8 21.274C72.1467 21.5167 71.428 21.638 70.644 21.638C69.7107 21.638 68.8893 21.4607 68.18 21.106C67.4707 20.7327 66.92 20.1913 66.528 19.482C66.136 18.754 65.94 17.858 65.94 16.794V9.822C65.94 9.52333 65.8373 9.318 65.632 9.206C65.4267 9.07533 65.1 8.96333 64.652 8.87L64.4 8.814V7.022H71.036ZM80.416 7.022V18.698C80.416 18.8847 80.472 19.034 80.584 19.146C80.696 19.258 80.8547 19.342 81.06 19.398C81.2653 19.454 81.5173 19.5007 81.816 19.538L81.956 19.566V21.358H75.656V18.138L75.32 18.25V9.822C75.32 9.52333 75.18 9.30867 74.9 9.178C74.62 9.04733 74.256 8.954 73.808 8.898L73.388 8.814V7.022H80.416Z" fill="var(--primary-01)"/>
<path d="M86.7223 21.694C85.8263 21.694 85.117 21.4513 84.5943 20.966C84.0903 20.4807 83.8383 19.846 83.8383 19.062C83.8383 18.278 84.0903 17.6433 84.5943 17.158C85.117 16.6727 85.8263 16.43 86.7223 16.43C87.6183 16.43 88.3183 16.6727 88.8223 17.158C89.345 17.6433 89.6063 18.278 89.6063 19.062C89.6063 19.846 89.345 20.4807 88.8223 20.966C88.3183 21.4513 87.6183 21.694 86.7223 21.694Z" fill="var(--primary-01)"/>
<path d="M104.238 5.342V8.45L94.1303 12.93L93.5703 11.894V10.214L104.238 5.342ZM104.238 14.694V18.054L93.5703 13.182V11.39L94.1583 10.214L104.238 14.694Z" fill="var(--primary-01)"/>
<path d="M119.99 0.694L109.742 25.306H106.298L116.546 0.694H119.99Z" fill="var(--primary-01)"/>
<path d="M122.173 18.166V15.03L132.533 10.438L133.093 11.474V13.182L122.173 18.166ZM122.173 8.59V5.174L133.093 10.186V11.978L132.505 13.154L122.173 8.59Z" fill="var(--primary-01)"/>
</svg>