<svg width="110" height="111" viewBox="0 0 110 111" fill="none" xmlns="http://www.w3.org/2000/svg">
<path fill-rule="evenodd" clip-rule="evenodd" d="M95.9525 31.833C95.2717 30.6285 94.2504 29.6334 92.8888 28.8479C87.2358 25.5895 81.5762 22.3312 75.9167 19.0729L75.9068 19.0672L75.8949 19.0603C70.2362 15.8025 64.5776 12.5447 58.9254 9.28686C55.8616 7.53237 52.9288 7.58476 49.8913 9.36539C47.5434 10.7441 40.2855 14.9193 32.9252 19.1535L32.9247 19.1538L32.9242 19.1541L32.9238 19.1543L32.9234 19.1546C26.1647 23.0426 19.32 26.9802 16.1112 28.8479C13.3354 30.4452 12 32.9067 12 36.1014V75.4852C12 77.0377 12.3323 78.4111 12.9718 79.6058L12.9427 79.6226C13.6236 80.8533 14.671 81.9008 16.0588 82.7126C18.6678 84.2251 23.6536 87.0914 29.0438 90.1902L29.0477 90.1924L29.0518 90.1948C37.5639 95.0882 47.0817 100.56 49.8388 102.195C50.0881 102.341 50.3368 102.476 50.5851 102.599C53.3807 104.003 56.1195 103.944 58.9254 102.3C65.9412 98.2397 72.967 94.1998 79.9904 90.1613C84.2918 87.688 88.5922 85.2153 92.8888 82.7387C94.3028 81.927 95.3241 80.9057 96.0049 79.6488C96.6556 78.4514 96.9958 77.0729 96.9999 75.5133L97 75.459V36.0752C97 35.2765 96.9148 34.5171 96.7413 33.8068C96.6198 33.3094 96.455 32.836 96.2457 32.3901C96.1561 32.1993 96.0585 32.0135 95.9526 31.833L95.9525 31.833ZM54.4738 69.8294C59.7373 69.8294 64.3199 66.9226 66.7289 62.6543L79.0102 69.7508C74.1396 78.2613 64.9745 83.996 54.4738 83.996C43.9994 83.996 34.8343 78.2874 29.9637 69.8294C27.5807 65.692 26.2191 60.8737 26.2191 55.7674C26.2191 40.1867 38.8407 27.5389 54.4477 27.5389C64.8959 27.5389 74.0087 33.2213 78.9054 41.6531L66.6242 48.7233C64.1889 44.5336 59.6586 41.7055 54.4738 41.7055C46.6965 41.7055 40.4119 47.9902 40.4119 55.7674C40.4119 58.3075 41.0928 60.6642 42.2712 62.7329C44.6803 66.975 49.2366 69.8294 54.4738 69.8294ZM79.4553 49.09H82.2572V51.3682H85.6614V49.09H88.4633V51.3682H90.7415V54.1701H88.4633V57.5481H90.7415V60.35H88.4633V62.6282H85.6614V60.35H82.2572V62.6282H79.4553V60.35H77.2033V57.5481H79.4553V54.1701H77.2033V51.3682H79.4553V49.09ZM82.2572 54.1701V57.5481H85.6614V54.1701H82.2572Z" fill="white"/>
</svg>