<svg width="85" height="86" viewBox="0 0 85 86" fill="none" xmlns="http://www.w3.org/2000/svg">
<path d="M11.2634 8.00933C10.5159 12.1704 9.86803 15.7266 9.8182 15.8916C9.73514 16.2032 11.1969 16.2215 38.8212 16.2215C66.4454 16.2215 67.9072 16.2399 67.8241 16.5332C67.7743 16.7165 67.4421 18.6412 67.06 20.8042C66.678 22.9673 66.2959 25.1303 66.1962 25.6069L66.0301 26.4868L36.9441 26.5235L7.85809 26.5784L6.49598 34.2774C5.73187 38.5118 5.11726 42.0313 5.11726 42.1046C5.10065 42.1963 18.1736 42.2513 34.1534 42.2513H63.1896L61.6448 50.8118C60.781 55.5411 60.0501 59.5739 60.0003 59.7939C59.9173 60.1605 58.605 60.6738 48.3393 64.4316C41.9773 66.7413 36.6783 68.6477 36.5621 68.6477C36.3793 68.6477 16.3962 60.2888 16.2965 60.1605C16.2799 60.1422 16.5457 58.5291 16.9111 56.5677C17.26 54.6063 17.559 52.8465 17.559 52.6632C17.559 52.3516 17.2434 52.3332 10.466 52.3699L3.3731 52.4249L1.66215 61.8469C0.731932 67.0346 -0.0321782 71.2873 0.00104397 71.3056C0.0176551 71.324 7.5757 74.5135 16.7949 78.3997L33.5554 85.457L52.7579 78.3997C63.3225 74.5319 72.0267 71.2873 72.0932 71.214C72.1929 71.104 84.9668 1.09861 85 0.49369C85 0.475359 68.7211 0.457028 48.8044 0.457028H12.6255L11.2634 8.00933Z" fill="white"/>
</svg>