<svg width="75" height="107" viewBox="0 0 75 107" fill="none" xmlns="http://www.w3.org/2000/svg">
<path d="M6.97806 0.457031H11.7495V5.17123H16.1143V0.457031H20.886V14.7328H16.1145V9.95242H11.7497V14.7328H6.97826L6.97806 0.457031Z" fill="white"/>
<path d="M27.1606 5.19108H22.96V0.457031H36.135V5.19108H31.9325V14.7328H27.1608L27.1606 5.19108Z" fill="white"/>
<path d="M38.2259 0.457031H43.2013L46.2618 5.4731L49.3192 0.457031H54.2964V14.7328H49.5446V7.65693L46.2618 12.7328H46.1797L42.8947 7.65693V14.7328H38.2259V0.457031Z" fill="white"/>
<path d="M56.6711 0.457031H61.444V10.014H68.1541V14.7328H56.6711V0.457031Z" fill="white"/>
<path fill-rule="evenodd" clip-rule="evenodd" d="M0 21.2615L6.82545 97.817L37.4541 106.32L68.1673 97.805L75 21.2615H0ZM25.0756 55.9144H59.2926L59.0635 58.4357L56.7159 84.7407L37.5 90.0664V90.068L37.4568 90.0799L18.2237 84.7407L16.9083 69.9983H26.3336L27.002 77.4866L37.4589 80.3102L37.4675 80.3079L47.9395 77.4806L49.0293 65.3035H16.4887L13.9563 36.9104H60.9877L60.147 46.2997H24.2175L25.0756 55.9144Z" fill="white"/>
</svg>