<svg width="85" height="86" viewBox="0 0 85 86" fill="none" xmlns="http://www.w3.org/2000/svg">
<path d="M0 0.457031V85.457H85V0.457031H0ZM45.5357 66.4838C45.5357 74.758 40.6482 78.7917 33.5731 78.7917C27.1829 78.7917 23.4737 75.4828 21.5915 71.489L28.0955 67.552C29.3497 69.7776 30.3021 71.6597 33.04 71.6597C35.3167 71.6597 37.1875 70.6333 37.1875 66.6394V39.9213H45.5357V66.4838ZM64.3856 78.602C56.969 78.602 52.1763 75.2551 49.8369 70.6333L56.3504 66.8633C58.058 69.6599 60.2874 71.5231 64.2243 71.5231C67.5333 71.5231 69.4552 70.0584 69.4552 67.7759C69.4552 65.0381 67.4763 64.0685 63.824 62.4634L61.828 61.6058C56.064 59.1545 52.2427 56.0732 52.2427 49.5673C52.2427 43.5775 56.8058 39.2022 63.9378 39.2022C69.017 39.2022 72.6655 40.7808 75.2933 45.4027L69.0625 49.4079C67.6926 46.9547 66.2165 45.9927 63.9284 45.9927C61.589 45.9927 60.1052 47.4765 60.1052 49.4079C60.1052 51.8042 61.589 52.7738 65.0117 54.2575L67.0077 55.1132C73.7982 58.0237 77.6213 60.9949 77.6213 67.6659C77.6232 74.8567 71.9749 78.602 64.3856 78.602Z" fill="white"/>
</svg>