<svg width="110" height="111" viewBox="0 0 110 111" fill="none" xmlns="http://www.w3.org/2000/svg">
<path fill-rule="evenodd" clip-rule="evenodd" d="M55.3837 13C54.5862 13 53.7938 13.0221 53.0069 13.0656L53.1175 15.0626C53.8676 15.021 54.6231 15 55.3837 15C56.2756 15 57.1653 15.0295 58.0515 15.0881L58.1835 13.0925C57.2535 13.031 56.3197 13 55.3837 13ZM48.2823 13.5933C46.7061 13.8595 45.1593 14.2129 43.6471 14.6482L44.2004 16.5702C45.6407 16.1555 47.114 15.819 48.6154 15.5653L48.2823 13.5933ZM69.1397 15.2924C67.3726 14.6866 65.5669 14.198 63.7344 13.8301L63.3406 15.7909C65.0867 16.1415 66.8073 16.6071 68.4911 17.1843L69.1397 15.2924ZM39.1611 16.2192C37.6906 16.8295 36.2618 17.5202 34.8803 18.2857L35.8497 20.0351C37.1659 19.3057 38.527 18.6478 39.9277 18.0665L39.1611 16.2192ZM76.7698 18.7857C75.9617 18.3139 75.1397 17.8699 74.3053 17.454L73.4131 19.2439C74.2082 19.6402 74.9915 20.0634 75.7615 20.5129L76.7698 18.7857ZM30.8585 20.8189C29.5649 21.7387 28.3253 22.7291 27.145 23.7846L28.4783 25.2754C29.6032 24.2694 30.7847 23.3254 32.0174 22.4489L30.8585 20.8189ZM23.7846 27.145C22.7291 28.3253 21.7387 29.5649 20.8189 30.8585L22.4489 32.0174C23.3254 30.7847 24.2694 29.6032 25.2754 28.4783L23.7846 27.145ZM18.2857 34.8803C17.5201 36.2618 16.8295 37.6906 16.2192 39.1611L18.0665 39.9277C18.6478 38.527 19.3057 37.1659 20.0351 35.8497L18.2857 34.8803ZM94.2163 38.3999C93.8835 37.6386 93.5279 36.886 93.1498 36.1433L91.3675 37.0507C91.7278 37.7585 92.0666 38.4755 92.3838 39.201L94.2163 38.3999ZM97.1074 47.9335C96.8147 46.2945 96.4258 44.6744 95.9427 43.0815L94.0288 43.6619C94.4891 45.1797 94.8597 46.7234 95.1385 48.2851L97.1074 47.9335ZM14.6482 43.6471C14.2129 45.1593 13.8595 46.7061 13.5933 48.2823L15.5653 48.6154C15.819 47.114 16.1555 45.6407 16.5702 44.2004L14.6482 43.6471ZM97.7674 55.3837C97.7674 54.5502 97.7428 53.7182 97.6939 52.8888L95.6974 53.0065C95.744 53.7968 95.7674 54.5895 95.7674 55.3837C95.7674 56.1443 95.7464 56.8999 95.7048 57.6499L97.7018 57.7605C97.7454 56.9736 97.7674 56.1812 97.7674 55.3837ZM13.0656 53.0069C13.0221 53.7938 13 54.5862 13 55.3837C13 56.1812 13.0221 56.9737 13.0656 57.7605L15.0626 57.6499C15.021 56.8999 15 56.1443 15 55.3837C15 54.6231 15.021 53.8676 15.0626 53.1175L13.0656 53.0069ZM96.1192 67.1203C96.5545 65.6081 96.9079 64.0613 97.1742 62.4851L95.2021 62.152C94.9485 63.6534 94.6119 65.1267 94.1972 66.567L96.1192 67.1203ZM13.5933 62.4851C13.8595 64.0613 14.2129 65.6081 14.6482 67.1203L16.5702 66.567C16.1555 65.1267 15.819 63.6535 15.5653 62.152L13.5933 62.4851ZM92.4817 75.8871C93.2473 74.5056 93.9379 73.0769 94.5482 71.6063L92.7009 70.8397C92.1197 72.2404 91.4617 73.6015 90.7324 74.9178L92.4817 75.8871ZM16.2192 71.6063C16.8295 73.0769 17.5202 74.5057 18.2857 75.8872L20.0351 74.9178C19.3057 73.6015 18.6478 72.2405 18.0665 70.8397L16.2192 71.6063ZM86.9828 83.6224C88.0383 82.4422 89.0288 81.2025 89.9485 79.9089L88.3185 78.75C87.442 79.9827 86.4981 81.1642 85.492 82.2891L86.9828 83.6224ZM20.8189 79.909C21.7387 81.2025 22.7291 82.4422 23.7846 83.6224L25.2754 82.2891C24.2694 81.1642 23.3254 79.9827 22.4489 78.75L20.8189 79.909ZM79.909 89.9485C81.2025 89.0288 82.4422 88.0383 83.6224 86.9828L82.2891 85.492C81.1642 86.4981 79.9827 87.442 78.75 88.3185L79.909 89.9485ZM27.145 86.9828C28.3253 88.0383 29.565 89.0288 30.8585 89.9485L32.0174 88.3185C30.7847 87.442 29.6032 86.4981 28.4783 85.492L27.145 86.9828ZM71.6063 94.5482C73.0769 93.9379 74.5057 93.2473 75.8872 92.4817L74.9178 90.7324C73.6015 91.4617 72.2405 92.1197 70.8397 92.7009L71.6063 94.5482ZM34.8803 92.4817C36.2618 93.2473 37.6906 93.9379 39.1611 94.5482L39.9277 92.7009C38.527 92.1197 37.1659 91.4617 35.8497 90.7324L34.8803 92.4817ZM62.4851 97.1742C64.0613 96.9079 65.6081 96.5545 67.1203 96.1192L66.567 94.1972C65.1267 94.6119 63.6535 94.9485 62.152 95.2021L62.4851 97.1742ZM43.6471 96.1192C45.1593 96.5545 46.7061 96.9079 48.2823 97.1742L48.6154 95.2021C47.114 94.9485 45.6407 94.6119 44.2004 94.1972L43.6471 96.1192ZM53.0069 97.7018C53.7938 97.7454 54.5862 97.7674 55.3837 97.7674C56.1812 97.7674 56.9737 97.7453 57.7605 97.7018L57.6499 95.7048C56.8999 95.7464 56.1443 95.7674 55.3837 95.7674C54.6231 95.7674 53.8676 95.7464 53.1175 95.7048L53.0069 97.7018ZM96.7586 23.38C96.7586 18.2081 92.5592 14.0087 87.3873 14.0087C82.2155 14.0087 78.0161 18.2081 78.0161 23.38C78.0161 28.5518 82.2155 32.7512 87.3873 32.7512C92.5592 32.7512 96.7586 28.5607 96.7586 23.38ZM70.7313 64.7548C73.2686 64.41 73.7902 64.2951 74.5947 63.9238V66.6291C74.5947 67.4424 74.356 67.9287 73.6399 68.5917C72.6586 69.4847 71.4828 69.9444 70.0682 69.9444C68.194 69.9444 67.0977 69.0515 67.0977 67.522C67.0977 65.9395 68.1675 65.1261 70.7313 64.7548ZM87.3873 55.3924C87.3873 37.7285 73.0476 23.3888 55.3837 23.3888C37.7198 23.3888 23.3801 37.7285 23.3801 55.3924C23.3801 73.0563 37.7198 87.3961 55.3837 87.3961C73.0476 87.3961 87.3873 73.0563 87.3873 55.3924ZM78.0161 42.1313C78.0161 36.9594 73.8167 32.76 68.6449 32.76C63.473 32.76 59.2736 36.9594 59.2736 42.1313C59.2736 47.3031 63.473 51.5025 68.6449 51.5025C73.8167 51.5025 78.0161 47.3031 78.0161 42.1313ZM36.3406 69.0249H46.7109V71.3854H33.6619V50.3886H36.3406V69.0249ZM59.0968 69.2813V71.3854H61.254V56.2942H58.867V64.8521C58.867 67.9375 57.2491 69.9532 54.7472 69.9532C52.8464 69.9532 51.6352 68.7951 51.6352 66.9827V56.2942H49.2482V67.9287C49.2482 70.4395 51.1224 72.0485 54.0576 72.0485C56.2766 72.0485 57.6823 71.2705 59.0968 69.2813ZM78.8029 71.7921C78.0249 71.9954 77.6536 72.0485 77.1585 72.0485C75.6026 72.0485 74.8511 71.3589 74.6831 69.8294C72.9857 71.3854 71.4562 72.0485 69.5555 72.0485C66.5054 72.0485 64.6046 70.3245 64.6046 67.5839C64.6046 65.6212 65.4975 64.2686 67.2569 63.5525C68.1763 63.1812 68.6979 63.0662 72.0928 62.633C73.9935 62.4032 74.5947 61.97 74.5947 60.9621V60.3256C74.5947 58.8846 73.3835 58.08 71.2264 58.08C68.9808 58.08 67.8846 58.9111 67.6812 60.7588H65.2588C65.3207 59.2647 65.6036 58.3983 66.2932 57.6203C67.3011 56.4975 69.1134 55.861 71.3059 55.861C75.0191 55.861 76.9817 57.302 76.9817 59.9808V68.857C76.9817 69.6084 77.4415 70.0416 78.2813 70.0416C78.4228 70.0416 78.5377 70.0416 78.8029 69.9797V71.7921Z" fill="white"/>
</svg>