<svg width="97" height="59" viewBox="0 0 97 59" fill="none" xmlns="http://www.w3.org/2000/svg">
<path d="M22.7109 15.6016H40.8646V17.0445H24.375V27.904H39.8813V29.3469H24.375V41.2696H41.0537V42.7125H22.7109V15.6016ZM42.4908 15.6016H44.4197L52.967 27.5243L61.7034 15.6016L73.5864 0.457031L54.0638 28.7773L64.1239 42.7125H62.1195L52.967 30.0304L43.7767 42.7125H41.8101L51.9459 28.7773L42.4908 15.6016ZM64.8425 17.0445V15.6016H85.5301V17.0445H75.9994V42.7125H74.3353V17.0445H64.8425ZM0 15.6016H2.0801L30.7635 58.5236L18.91 42.7125L1.73972 17.652L1.66408 42.7125H0V15.6016ZM85.3624 40.8342C85.0224 40.8342 84.7674 40.5708 84.7674 40.2303C84.7674 39.8899 85.0224 39.6265 85.3624 39.6265C85.7065 39.6265 85.9574 39.8899 85.9574 40.2303C85.9574 40.5708 85.7065 40.8342 85.3624 40.8342ZM86.9976 39.2455H87.888C87.9002 39.7278 88.2523 40.052 88.7704 40.052C89.3491 40.052 89.677 39.7035 89.677 39.051V34.9172H90.5836V39.055C90.5836 40.2303 89.9036 40.9071 88.7785 40.9071C87.7221 40.9071 86.9976 40.2506 86.9976 39.2455ZM91.7695 39.1928H92.668C92.7449 39.7481 93.2873 40.1006 94.0684 40.1006C94.797 40.1006 95.3312 39.7237 95.3312 39.205C95.3312 38.7592 94.9912 38.4917 94.2182 38.3093L93.4654 38.127C92.409 37.8798 91.9273 37.3691 91.9273 36.5099C91.9273 35.4684 92.7773 34.7754 94.0522 34.7754C95.2381 34.7754 96.1043 35.4684 96.1569 36.4532H95.2746C95.1896 35.9142 94.7201 35.5778 94.0401 35.5778C93.3237 35.5778 92.8461 35.9223 92.8461 36.4492C92.8461 36.8666 93.1537 37.1057 93.9146 37.284L94.5582 37.4421C95.7562 37.7217 96.25 38.208 96.25 39.0875C96.25 40.206 95.3839 40.9071 93.9996 40.9071C92.7045 40.9071 91.8343 40.2384 91.7695 39.1928Z" fill="white"/>
</svg>