<svg width="97" height="60" viewBox="0 0 97 60" fill="none" xmlns="http://www.w3.org/2000/svg">
<path d="M47.5777 59.457C47.26 59.457 46.944 59.3741 46.6659 59.2131L43.7636 57.4958C43.3303 57.2534 43.5418 57.1674 43.6848 57.1176C44.263 56.917 44.38 56.8706 44.9972 56.5207C45.0613 56.4844 45.1466 56.4983 45.213 56.5373L47.4428 57.8609C47.5235 57.9058 47.6375 57.9058 47.7119 57.8609L56.4051 52.8435C56.486 52.7974 56.5378 52.7042 56.5378 52.6083V42.5761C56.5378 42.4779 56.486 42.3863 56.4029 42.3365L47.7135 37.3234C47.6332 37.2764 47.5265 37.2764 47.4456 37.3234L38.7583 42.338C38.6739 42.3863 38.6204 42.481 38.6204 42.5761V52.6083C38.6204 52.7042 38.6739 52.7952 38.7575 52.8407L41.1389 54.2166C42.431 54.8626 43.2222 54.1017 43.2222 53.3372V43.4323C43.2222 43.2922 43.3347 43.1819 43.4748 43.1819H44.577C44.7149 43.1819 44.8289 43.2922 44.8289 43.4323V53.3372C44.8289 55.0617 43.8898 56.0507 42.255 56.0507C41.7525 56.0507 41.3569 56.0507 40.2526 55.5065L37.973 54.1942C37.4099 53.8686 37.0613 53.26 37.0613 52.6083V42.5761C37.0613 41.9243 37.4099 41.3157 37.973 40.9917L46.6659 35.9684C47.216 35.6575 47.9472 35.6575 48.4929 35.9684L57.1854 40.9917C57.7483 41.3172 58.0984 41.9243 58.0984 42.5761V52.6083C58.0984 53.26 57.7483 53.8665 57.1854 54.1942L48.4929 59.2131C48.215 59.3741 47.8997 59.457 47.5777 59.457Z" fill="white"/>
<path d="M50.2629 52.5454C46.4588 52.5454 45.662 50.7994 45.662 49.3347C45.662 49.1955 45.7738 49.0843 45.9131 49.0843H47.037C47.1626 49.0843 47.2672 49.1746 47.2868 49.2971C47.4565 50.4412 47.9625 51.0187 50.2629 51.0187C52.0942 51.0187 52.8739 50.6044 52.8739 49.6328C52.8739 49.0727 52.6528 48.6569 49.8068 48.3782C47.4282 48.1429 45.9571 47.6174 45.9571 45.7147C45.9571 43.9607 47.4354 42.9146 49.9143 42.9146C52.6992 42.9146 54.0772 43.8812 54.2517 45.955C54.2583 46.0265 54.233 46.0951 54.1854 46.1484C54.1377 46.1982 54.0714 46.2287 54.0013 46.2287H52.873C52.7562 46.2287 52.6528 46.1456 52.6291 46.0322C52.3584 44.8282 51.7002 44.4435 49.9143 44.4435C47.9148 44.4435 47.6824 45.14 47.6824 45.6621C47.6824 46.2944 47.9566 46.4783 50.6563 46.8356C53.3278 47.1887 54.5969 47.6888 54.5969 49.5665C54.5969 51.4605 53.0175 52.5454 50.2629 52.5454Z" fill="white"/>
<path d="M60.8481 41.9089H61.1404C61.3793 41.9089 61.4241 41.7407 61.4241 41.6432C61.4241 41.3857 61.2466 41.3857 61.1491 41.3857H60.8481V41.9089ZM60.493 41.0844H61.1404C61.3621 41.0844 61.7967 41.0844 61.7967 41.5812C61.7967 41.9269 61.5749 41.9976 61.4415 42.042C61.6992 42.0597 61.7166 42.2283 61.7518 42.4674C61.7699 42.618 61.7967 42.8754 61.8493 42.9638H61.4509C61.4415 42.8754 61.3793 42.3965 61.3793 42.3702C61.3534 42.2635 61.3173 42.2107 61.1846 42.2107H60.8569V42.9638H60.493V41.0844ZM59.7177 42.0196C59.7177 42.7999 60.3472 43.4294 61.1182 43.4294C61.8985 43.4294 62.5278 42.7867 62.5278 42.0196C62.5278 41.2397 61.8898 40.6191 61.1182 40.6191C60.3559 40.6191 59.7177 41.2306 59.7177 42.0196ZM62.7978 42.0244C62.7978 42.9462 62.0441 43.6997 61.1225 43.6997C60.2093 43.6997 59.447 42.9551 59.447 42.0244C59.447 41.0759 60.2273 40.3487 61.1225 40.3487C62.0269 40.3487 62.7978 41.0759 62.7978 42.0244Z" fill="white"/>
<path fill-rule="evenodd" clip-rule="evenodd" d="M20.6583 20.2069C20.6583 19.8063 20.4474 19.4382 20.1017 19.2397L10.8852 13.9357C10.7294 13.8439 10.5547 13.7962 10.378 13.789H10.2827C10.1064 13.7962 9.93192 13.8439 9.77372 13.9357L0.557273 19.2397C0.213683 19.4382 0 19.8063 0 20.2069L0.0202357 34.4891C0.0202357 34.6878 0.123378 34.8725 0.298111 34.97C0.469145 35.0725 0.680652 35.0725 0.851033 34.97L6.32846 31.8335C6.67488 31.6279 6.88574 31.2647 6.88574 30.8676V24.1951C6.88574 23.7973 7.09637 23.4292 7.44149 23.2314L9.77372 21.8881C9.94759 21.7878 10.1376 21.7386 10.3316 21.7386C10.5216 21.7386 10.7164 21.7878 10.8852 21.8881L13.2168 23.2314C13.5619 23.4292 13.7734 23.7973 13.7734 24.1951V30.8676C13.7734 31.2647 13.9871 31.6301 14.3314 31.8335L19.8073 34.97C19.9789 35.0725 20.1935 35.0725 20.3637 34.97C20.5334 34.8725 20.6402 34.6878 20.6402 34.4891L20.6583 20.2069Z" fill="white"/>
<path fill-rule="evenodd" clip-rule="evenodd" d="M64.1493 27.6434C64.1493 27.7426 64.0962 27.8346 64.01 27.884L60.8444 29.7088C60.7584 29.7582 60.6524 29.7582 60.5665 29.7088L57.4008 27.884C57.3145 27.8346 57.2616 27.7426 57.2616 27.6434V23.9879C57.2616 23.8887 57.3145 23.7966 57.4006 23.7468L60.5661 21.9185C60.6524 21.8687 60.7584 21.8687 60.8448 21.9185L64.0102 23.7468C64.0962 23.7966 64.1493 23.8887 64.1493 23.9879V27.6434ZM65.0047 0.573277C64.8321 0.477531 64.6217 0.479488 64.4513 0.579582C64.2814 0.679462 64.1767 0.862247 64.1767 1.05961V15.2036C64.1767 15.3427 64.1023 15.4715 63.9822 15.5411C63.8616 15.6107 63.713 15.6107 63.5924 15.5411L61.2839 14.2111C60.9397 14.0125 60.516 14.0129 60.1715 14.2114L50.9516 19.5323C50.6069 19.7312 50.3948 20.0987 50.3948 20.4965V31.1406C50.3948 31.5384 50.6069 31.9057 50.9512 32.105L60.1709 37.4299C60.5156 37.6288 60.9399 37.6288 61.2846 37.4299L70.5058 32.105C70.8501 31.9057 71.0624 31.5384 71.0624 31.1406V4.60736C71.0624 4.20393 70.844 3.83184 70.4914 3.63512L65.0047 0.573277Z" fill="white"/>
<path fill-rule="evenodd" clip-rule="evenodd" d="M95.706 23.8925C96.0489 23.6933 96.26 23.3265 96.26 22.9298V20.3504C96.26 19.9537 96.0489 19.5866 95.7056 19.3875L86.5448 14.0687C86.2001 13.8683 85.7747 13.8681 85.4292 14.0672L76.2125 19.3881C75.868 19.587 75.6559 19.9543 75.6559 20.3521V30.9934C75.6559 31.3938 75.8707 31.763 76.2182 31.9608L85.3776 37.18C85.7153 37.3728 86.1294 37.375 86.4693 37.1861L92.0094 34.1068C92.1852 34.0089 92.2947 33.8246 92.2958 33.624C92.2971 33.4231 92.1902 33.2373 92.0164 33.1374L82.7412 27.8138C82.5679 27.7146 82.4613 27.5301 82.4613 27.331V23.996C82.4613 23.7971 82.5675 23.6131 82.7401 23.5138L85.6268 21.8496C85.7984 21.7504 86.0106 21.7504 86.1825 21.8496L89.0705 23.5138C89.243 23.6131 89.349 23.7971 89.349 23.996V26.6199C89.349 26.8192 89.4556 27.0033 89.6282 27.1025C89.8008 27.2021 90.0134 27.2013 90.1855 27.1014L95.706 23.8925Z" fill="white"/>
<path fill-rule="evenodd" clip-rule="evenodd" d="M85.8512 23.3942C85.9173 23.3559 85.9987 23.3559 86.0649 23.3942L87.834 24.4148C87.9001 24.4531 87.9408 24.5236 87.9408 24.5999V26.6428C87.9408 26.7194 87.9001 26.7897 87.834 26.828L86.0649 27.8487C85.9987 27.887 85.9173 27.887 85.8512 27.8487L84.0834 26.828C84.0173 26.7897 83.9766 26.7194 83.9766 26.6428V24.5999C83.9766 24.5236 84.0173 24.4531 84.0834 24.4148L85.8512 23.3942Z" fill="white"/>
<path d="M34.9139 14.1798L25.7704 19.4575C25.4283 19.6547 25.2179 20.0194 25.2179 20.4139V30.9779C25.2179 31.3726 25.4283 31.7371 25.7699 31.9347L34.9135 37.2167C35.2553 37.4141 35.6766 37.4141 36.0187 37.2167L45.1642 31.9347C45.5061 31.7371 45.7165 31.3726 45.7165 30.9779V20.4143C45.7165 20.0194 45.5061 19.6547 45.164 19.4575L36.0183 14.1798C35.8474 14.081 35.6568 14.0319 35.466 14.0319C35.2754 14.0319 35.0845 14.081 34.9139 14.1798Z" fill="url(#paint0_linear_341_234)"/>
<g opacity="0.660004">
<path d="M45.1178 19.4576L36.0127 14.1797C35.9216 14.127 35.8241 14.0896 35.724 14.065L25.4324 31.6706C25.519 31.7748 25.6234 31.8655 25.7431 31.9347L34.9025 37.2168C35.1756 37.3743 35.4916 37.4039 35.7823 37.3099L45.3976 19.703C45.3223 19.6068 45.2303 19.5224 45.1178 19.4576Z" fill="#4B4B4B"/>
</g>
<path d="M35.4001 14.0338C35.2323 14.0442 35.0665 14.093 34.9161 14.1798L25.8577 19.407L35.6982 37.334C35.8011 37.3096 35.9017 37.2718 35.997 37.2167L45.1209 31.9347C45.4623 31.7371 45.6295 31.3726 45.6295 30.9779V30.9365L35.7591 14.0741C35.6601 14.0464 35.5581 14.0325 35.4562 14.0325C35.4375 14.0325 35.4188 14.0329 35.4001 14.0338Z" fill="url(#paint1_linear_341_234)"/>
<defs>
<linearGradient id="paint0_linear_341_234" x1="25.2177" y1="25.6983" x2="45.7165" y2="25.6983" gradientUnits="userSpaceOnUse">
<stop stop-color="white"/>
<stop offset="0.00530134" stop-color="white"/>
<stop offset="0.725388" stop-color="#AFB1B3"/>
<stop offset="1" stop-color="#AFB1B3"/>
</linearGradient>
<linearGradient id="paint1_linear_341_234" x1="25.0761" y1="25.6832" x2="46.222" y2="25.6832" gradientUnits="userSpaceOnUse">
<stop stop-color="#AFB1B3"/>
<stop offset="0.274612" stop-color="#AFB1B3"/>
<stop offset="0.994699" stop-color="white"/>
<stop offset="1" stop-color="white"/>
</linearGradient>
</defs>
</svg>