<svg width="75" height="79" viewBox="0 0 75 79" fill="none" xmlns="http://www.w3.org/2000/svg">
<path d="M54.1719 0.458017C52.8127 0.681882 51.4535 0.897752 50.1023 1.12162C50.1663 1.1536 50.2302 1.18558 50.2942 1.21756C51.8133 2.37686 53.7081 3.04846 55.2192 4.15179C59.5606 7.33387 64.1738 13.0344 65.4451 19.1188C66.0047 21.7892 65.0133 25.8987 64.5896 28.2093C63.902 31.983 65.9328 35.1651 65.2532 39.1947C64.9654 40.8977 63.3264 44.9272 63.83 45.351C63.83 45.287 63.83 45.223 63.83 45.1591C65.0213 43.9758 65.605 42.1049 66.4845 40.6098C69.9943 34.6134 72.5048 27.5857 74.2478 19.8703C74.9034 16.9521 75.503 11.9631 74.3437 9.16477C73.7521 7.74962 72.273 6.47039 71.1217 5.56694C66.7483 2.11302 62.303 0.410046 54.1719 0.458017Z" fill="white"/>
<path d="M38.7332 1.3135C38.0056 1.37746 37.278 1.44142 36.5585 1.50539C35.1993 1.88116 33.8401 2.26493 32.4889 2.6407C26.3566 5.28711 22.7268 12.7786 22.351 21.1096C23.7502 20.414 25.2613 19.6624 26.9003 19.2147C35.1833 16.9601 36.3186 22.2529 37.414 28.5931C37.8297 30.9996 37.9017 34.3976 37.318 36.7402C36.8223 38.723 36.0548 40.4739 35.3272 42.1369C34.6956 43.9358 34.064 45.7347 33.4324 47.5337C33.4643 47.5337 33.4963 47.5337 33.5283 47.5337C34.3118 47.3258 35.1273 47.5896 35.703 47.8215C39.1169 49.1487 38.7332 52.4827 38.7332 57.1039C38.7332 65.4349 37.7178 76.7561 44.2259 78.6029C46.1767 79.1546 48.4793 78.507 50.0064 78.0353C58.2654 75.4848 56.6344 65.6268 58.2494 56.7281C58.6652 54.4175 58.1695 51.2514 59.1928 49.5324C59.9044 48.3332 60.9918 48.1413 62.1271 47.3578C58.6732 41.977 54.8355 36.2205 52.8447 29.4565C50.4461 21.3095 54.6836 18.0474 62.6947 18.5671C59.0489 9.09281 51.7094 1.38546 38.7332 1.3135Z" fill="white"/>
<path d="M14.3878 1.49739C12.9967 1.65729 11.6055 1.8092 10.2223 1.96911C6.29671 2.95251 3.09864 5.20716 1.60354 8.60511C-3.04966 19.1588 3.55436 38.8029 7.09623 47.0619C8.3035 49.8682 10.6141 55.345 13.6283 56.0565C15.1874 56.4243 16.1228 55.273 16.7544 54.6334C19.089 51.979 21.4236 49.3326 23.7662 46.6782C21.5675 44.0957 18.6013 40.9696 19.5048 35.405C19.6647 33.7979 19.8166 32.1829 19.9765 30.5759C19.9125 27.6416 19.8485 24.6994 19.7846 21.7652C21.1917 12.6427 22.2151 9.54854 26.7004 3.67208C26.7004 3.6401 26.7004 3.60812 26.7004 3.57614C22.8387 2.92053 19.2489 1.55336 14.3878 1.49739Z" fill="white"/>
<path d="M66.7643 50.8437C65.4131 50.5878 64.4777 49.7883 63.2624 49.6124C61.6474 50.4759 60.9118 50.6358 60.9918 53.2102C65.0213 55.185 72.7287 52.4587 74.5356 50.276C72.201 50.5238 69.4746 51.3554 66.7643 50.8437Z" fill="white"/>
<path d="M33.9041 49.9002C32.6089 51.2914 31.3136 52.6826 30.0184 54.0657C28.3474 55.1531 25.5971 55.5128 23.4864 56.0565C23.5183 56.1205 23.5503 56.1844 23.5823 56.2484C28.0196 57.7995 31.7214 57.4477 34.8555 54.8253C36.4066 53.522 37.1501 50.0122 33.9041 49.9002Z" fill="white"/>
<path d="M62.1271 28.5931C62.4149 26.0666 62.6947 23.5401 62.9826 21.0136C59.8484 20.8937 56.6104 20.7498 55.3072 22.7166C54.3797 24.1238 54.7075 27.1379 55.2112 28.777C56.4665 32.8545 58.4493 36.3884 60.4241 39.7623C60.8638 40.6818 61.3116 41.5932 61.7513 42.5127C61.8153 42.4807 61.8792 42.4487 61.9432 42.4167C62.327 40.394 63.2144 38.2033 62.7987 35.5009C62.5668 33.1983 62.3509 30.8957 62.1271 28.5931ZM58.3773 25.411C57.274 25.1072 56.8423 24.8833 56.2026 24.1797C56.2586 23.6361 56.3546 23.644 56.5784 23.3242C57.0901 23.1244 57.3939 22.7566 58.7531 22.6606C59.6965 22.8205 60.0084 22.9725 60.4561 23.6041C59.8804 24.6834 59.4327 24.7314 58.3773 25.411Z" fill="white"/>
<path d="M32.7688 21.9571C31.9293 21.3494 30.634 21.2775 29.1709 21.2935C27.9717 21.6053 26.7724 21.9251 25.5731 22.2369C24.4698 22.8365 23.3664 23.4362 22.2551 24.0358C22.3191 26.4024 22.383 28.769 22.447 31.1355C22.1112 33.4142 21.5435 36.1885 21.9753 38.5231C22.7908 43.0484 25.813 46.91 31.0578 46.966C31.5295 45.4789 32.0012 43.9998 32.4809 42.5127C33.2805 40.5699 34.2799 38.699 34.8475 36.4523C35.8389 32.5427 35.0634 23.6281 32.7688 21.9571ZM32.7128 25.1312C31.8333 27.2019 28.3634 26.3384 28.2595 24.0918C28.2915 24.0278 28.3234 23.9639 28.3554 23.8999C28.6432 23.74 28.9231 23.5881 29.2109 23.4282C30.9938 23.3722 31.8653 23.676 32.8087 24.3716C32.7688 24.6275 32.7448 24.8753 32.7128 25.1312Z" fill="white"/>
</svg>