<svg width="62" height="76" viewBox="0 0 62 76" fill="none" xmlns="http://www.w3.org/2000/svg">
<path fill-rule="evenodd" clip-rule="evenodd" d="M0.580397 51.9366C-0.182609 50.7331 -0.194136 49.2001 0.550682 47.985L28.5944 2.23995C30.1543 -0.304372 33.9206 -0.0819024 35.1701 2.62833L60.7894 58.2027C61.7399 60.2648 60.6457 62.6909 58.4707 63.3434L18.618 75.2993C17.0145 75.7802 15.2869 75.1356 14.3906 73.7217L0.580397 51.9366ZM31.8301 15.6154C32.1003 14.2697 33.9442 14.0757 34.4887 15.3356L52.1606 56.2273C52.4931 56.9973 52.0792 57.8852 51.2755 58.1249L23.7403 66.3446C22.7282 66.6466 21.7587 65.7623 21.9667 64.7266L31.8301 15.6154Z" fill="white"/>
</svg>