<svg width="100" height="90" viewBox="0 0 100 90" fill="none" xmlns="http://www.w3.org/2000/svg">
<path d="M73.8709 86.4517L74.8709 88.1838L73.8709 86.4517ZM25.957 3.46233L26.957 5.19438L25.957 3.46233ZM25.957 86.4517L26.957 84.7197L25.957 86.4517ZM73.8709 3.46232L74.8709 1.73027L73.8709 3.46232ZM56.8434 44.957C56.8434 48.784 53.741 51.8865 49.914 51.8865V55.8865C55.9501 55.8865 60.8434 50.9932 60.8434 44.957H56.8434ZM49.914 51.8865C46.087 51.8865 42.9845 48.784 42.9845 44.957H38.9845C38.9845 50.9932 43.8778 55.8865 49.914 55.8865V51.8865ZM42.9845 44.957C42.9845 41.13 46.0869 38.0276 49.914 38.0276V34.0276C43.8778 34.0276 38.9845 38.9209 38.9845 44.957H42.9845ZM49.914 38.0276C53.741 38.0276 56.8434 41.13 56.8434 44.957H60.8434C60.8434 38.9209 55.9501 34.0276 49.914 34.0276V38.0276ZM95.8279 44.957C95.8279 46.7199 94.8998 48.628 92.7225 50.5935C90.5453 52.5588 87.2827 54.4204 83.0808 56.0247C74.6909 59.2281 62.9652 61.2515 49.914 61.2515V65.2515C63.3249 65.2515 75.5562 63.1794 84.5077 59.7616C88.9765 58.0553 92.7307 55.9747 95.4028 53.5626C98.0746 51.1507 99.8279 48.246 99.8279 44.957H95.8279ZM49.914 61.2515C36.8627 61.2515 25.137 59.2281 16.7471 56.0247C12.5452 54.4204 9.28259 52.5588 7.10548 50.5935C4.92815 48.628 4 46.7199 4 44.957H0C0 48.246 1.75333 51.1507 4.42516 53.5626C7.0972 55.9747 10.8514 58.0553 15.3203 59.7616C24.2718 63.1794 36.503 65.2515 49.914 65.2515V61.2515ZM4 44.957C4 43.1942 4.92815 41.2861 7.10548 39.3206C9.28259 37.3553 12.5452 35.4937 16.7471 33.8894C25.137 30.6859 36.8627 28.6626 49.914 28.6626V24.6626C36.503 24.6626 24.2718 26.7346 15.3203 30.1525C10.8514 31.8588 7.0972 33.9393 4.42516 36.3514C1.75333 38.7634 0 41.668 0 44.957H4ZM49.914 28.6626C62.9652 28.6626 74.6909 30.6859 83.0808 33.8894C87.2827 35.4937 90.5453 37.3553 92.7225 39.3206C94.8998 41.2861 95.8279 43.1942 95.8279 44.957H99.8279C99.8279 41.668 98.0746 38.7634 95.4028 36.3514C92.7307 33.9393 88.9765 31.8588 84.5077 30.1525C75.5562 26.7346 63.3249 24.6626 49.914 24.6626V28.6626ZM72.8709 84.7197C71.3443 85.6011 69.2278 85.7514 66.4369 84.8485C63.6463 83.9457 60.4029 82.051 56.9125 79.2142C49.9433 73.55 42.3282 64.4069 35.8026 53.1042L32.3385 55.1042C39.0439 66.7185 46.954 76.275 54.3897 82.3183C58.1018 85.3353 61.7807 87.5463 65.2057 88.6543C68.6304 89.7622 72.0226 89.8283 74.8709 88.1838L72.8709 84.7197ZM35.8026 53.1042C29.277 41.8016 25.1664 30.6351 23.7456 21.7675C23.0341 17.3264 23.015 13.5701 23.6284 10.702C24.2419 7.83364 25.4303 6.0758 26.957 5.19438L24.957 1.73028C22.1086 3.37478 20.4698 6.34554 19.7169 9.86537C18.964 13.3855 19.0393 17.677 19.796 22.4003C21.3118 31.8614 25.633 43.49 32.3385 55.1042L35.8026 53.1042ZM26.957 5.19438C28.4837 4.31295 30.6002 4.16272 33.391 5.06558C36.1816 5.96835 39.4251 7.86309 42.9154 10.6998C49.8846 16.364 57.4997 25.5071 64.0253 36.8098L67.4894 34.8098C60.784 23.1956 52.8739 13.639 45.4382 7.59575C41.7261 4.57874 38.0472 2.36778 34.6222 1.25978C31.1975 0.151862 27.8053 0.0857699 24.957 1.73028L26.957 5.19438ZM64.0253 36.8098C70.551 48.1125 74.6616 59.2789 76.0823 68.1466C76.7938 72.5876 76.813 76.344 76.1995 79.2121C75.586 82.0804 74.3976 83.8383 72.8709 84.7197L74.8709 88.1838C77.7193 86.5393 79.3582 83.5685 80.111 80.0487C80.864 76.5286 80.7887 72.2371 80.0319 67.5138C78.5161 58.0526 74.1949 46.424 67.4894 34.8098L64.0253 36.8098ZM26.957 84.7197C25.4303 83.8383 24.2419 82.0804 23.6284 79.2121C23.015 76.344 23.0341 72.5876 23.7456 68.1466C25.1664 59.2789 29.277 48.1125 35.8026 36.8098L32.3385 34.8098C25.633 46.424 21.3118 58.0526 19.796 67.5138C19.0393 72.2371 18.964 76.5286 19.7169 80.0487C20.4698 83.5685 22.1086 86.5393 24.957 88.1838L26.957 84.7197ZM35.8026 36.8098C42.3282 25.5071 49.9433 16.364 56.9125 10.6998C60.4029 7.86309 63.6463 5.96835 66.4369 5.06558C69.2278 4.16271 71.3443 4.31295 72.8709 5.19437L74.8709 1.73027C72.0226 0.0857675 68.6304 0.15186 65.2057 1.25978C61.7807 2.36778 58.1018 4.57874 54.3897 7.59574C46.954 13.639 39.0439 23.1956 32.3385 34.8098L35.8026 36.8098ZM72.8709 5.19437C74.3976 6.0758 75.586 7.83363 76.1995 10.702C76.813 13.5701 76.7938 17.3264 76.0823 21.7675C74.6616 30.6351 70.551 41.8016 64.0253 53.1042L67.4894 55.1042C74.1949 43.49 78.5161 31.8614 80.0319 22.4003C80.7887 17.677 80.864 13.3855 80.111 9.86537C79.3582 6.34554 77.7193 3.37478 74.8709 1.73027L72.8709 5.19437ZM64.0253 53.1042C57.4997 64.4069 49.8846 73.55 42.9154 79.2142C39.4251 82.051 36.1816 83.9457 33.391 84.8485C30.6002 85.7514 28.4837 85.6011 26.957 84.7197L24.957 88.1838C27.8053 89.8283 31.1975 89.7622 34.6222 88.6543C38.0472 87.5463 41.7261 85.3353 45.4382 82.3183C52.8739 76.275 60.784 66.7185 67.4894 55.1042L64.0253 53.1042Z" fill="white"/>
</svg>