<svg width="85" height="86" viewBox="0 0 85 86" fill="none" xmlns="http://www.w3.org/2000/svg">
<path fill-rule="evenodd" clip-rule="evenodd" d="M0 0.457031H85V85.457H0V0.457031ZM52.627 68.3549V68.0254L52.3115 68.0984C52.4158 68.1854 52.521 68.2708 52.627 68.3549ZM52.627 68.3549V76.3262C53.9717 77.0234 55.6152 77.5381 57.4414 77.8867C59.2676 78.2354 61.2598 78.4014 63.252 78.4014C65.2441 78.4014 67.0703 78.2187 68.8965 77.8369C70.7227 77.4551 72.2168 76.8242 73.5449 76.0108C74.8896 75.1309 76.0352 74.0186 76.6992 72.5244C77.3633 71.0303 77.8779 69.3701 77.8779 67.2119C77.8779 65.7012 77.6455 64.3897 77.1973 63.2276C76.749 62.0654 76.1016 61.0694 75.2051 60.2393C74.3584 59.3594 73.3789 58.5791 72.2168 57.9151C71.0547 57.251 69.7266 56.5537 68.2324 55.9229C67.5533 55.645 66.9507 55.3736 66.3535 55.1046C65.9872 54.9395 65.6229 54.7754 65.2441 54.6113C64.3809 54.1797 63.6338 53.748 63.0859 53.3164C62.4717 52.8682 62.0068 52.4033 61.6748 51.9219C61.3428 51.4238 61.1768 50.876 61.1768 50.2617C61.1768 49.6973 61.3245 49.1826 61.625 48.7178C61.9255 48.2529 62.3389 47.8711 62.8701 47.5391C63.4014 47.207 64.0654 46.958 64.8623 46.7754C65.6426 46.5928 66.5059 46.5098 67.5185 46.5098C68.2158 46.5098 68.9463 46.5612 69.6768 46.6658C70.4404 46.7704 71.2207 46.9314 72.001 47.1473C72.7813 47.3631 73.5449 47.6287 74.3252 47.9608C75.0557 48.2928 75.7363 48.6746 76.3174 49.1063V41.3035C75.0557 40.8221 73.6611 40.4568 72.167 40.2244C70.6728 39.992 69.0127 39.8758 67.0205 39.8758C65.0283 39.8758 63.2021 40.0916 61.376 40.5066C59.5498 40.9217 58.0557 41.5857 56.7275 42.4988C55.3828 43.3953 54.4033 44.491 53.5732 45.9852C52.793 47.3797 52.4111 48.9734 52.4111 50.9656C52.4111 53.4559 53.125 55.6141 54.5693 57.2742C55.9971 59.1004 58.2217 60.4285 61.0439 61.7566C62.038 62.16 62.9321 62.5635 63.8021 62.956C63.9346 63.0158 64.0666 63.0753 64.1982 63.1346C65.1943 63.5828 66.0244 64.0477 66.6885 64.5291C67.4023 65.0106 67.9668 65.5418 68.3486 66.1062C68.7637 66.6707 68.9795 67.3348 68.9795 68.0984C68.9795 68.6297 68.85 69.1277 68.5976 69.5926C68.3453 70.0574 67.9502 70.4559 67.4189 70.7879C66.8877 71.1199 66.2402 71.3855 65.4268 71.5848C64.6465 71.7674 63.7666 71.867 62.6045 71.867C60.7783 71.867 58.9521 71.5516 57.292 70.9207C55.5933 70.3339 54.0383 69.4741 52.627 68.3549ZM49.3066 47.6055H38.6816V77.9863H30.2148V47.6055H19.5898V40.7988H49.3066V47.6055Z" fill="white"/>
</svg>